<?xml version="1.0" encoding="us-ascii" standalone="no"?><svg xmlns="http://www.w3.org/2000/svg" xmlns:xlink="http://www.w3.org/1999/xlink" contentStyleType="text/css" height="1158px" preserveAspectRatio="none" style="width:3277px;height:1158px;background:#FFFFFF;" version="1.1" viewBox="0 0 3277 1158" width="3277px" zoomAndPan="magnify"><defs/><g><!--cluster UC--><g id="cluster_UC"><rect fill="none" height="924.28" rx="2.5" ry="2.5" style="stroke:#181818;stroke-width:1.0;" width="1437" x="225.5" y="154.46"/><text fill="#000000" font-family="sans-serif" font-size="14" font-style="italic" lengthAdjust="spacing" textLength="62" x="913" y="169.9952">&#171;System&#187;</text><text fill="#000000" font-family="sans-serif" font-size="14" font-weight="bold" lengthAdjust="spacing" textLength="88" x="900" y="186.4834">UC Platform</text></g><!--entity APIGW--><g id="elem_APIGW"><rect fill="#ADD8E6" height="52.9766" rx="2.5" ry="2.5" style="stroke:#00008B;stroke-width:0.5;" width="103" x="1220" y="205.46"/><text fill="#000000" font-family="sans-serif" font-size="14" font-style="italic" lengthAdjust="spacing" textLength="82" x="1230.5" y="228.9952">&#171;Container&#187;</text><text fill="#000000" font-family="sans-serif" font-size="14" lengthAdjust="spacing" textLength="83" x="1230" y="245.4834">API Gateway</text></g><!--entity IAM--><g id="elem_IAM"><rect fill="#ADD8E6" height="52.9766" rx="2.5" ry="2.5" style="stroke:#00008B;stroke-width:0.5;" width="164" x="241.5" y="350.44"/><text fill="#000000" font-family="sans-serif" font-size="14" font-style="italic" lengthAdjust="spacing" textLength="82" x="282.5" y="373.9752">&#171;Container&#187;</text><text fill="#000000" font-family="sans-serif" font-size="14" lengthAdjust="spacing" textLength="144" x="251.5" y="390.4634">IAM / Identity Service</text></g><!--entity CallControl--><g id="elem_CallControl"><rect fill="#ADD8E6" height="52.9766" rx="2.5" ry="2.5" style="stroke:#00008B;stroke-width:0.5;" width="154" x="881.5" y="350.44"/><text fill="#000000" font-family="sans-serif" font-size="14" font-style="italic" lengthAdjust="spacing" textLength="82" x="917.5" y="373.9752">&#171;Container&#187;</text><text fill="#000000" font-family="sans-serif" font-size="14" lengthAdjust="spacing" textLength="134" x="891.5" y="390.4634">Call Control Service</text></g><!--entity SIPGW--><g id="elem_SIPGW"><rect fill="#ADD8E6" height="52.9766" rx="2.5" ry="2.5" style="stroke:#00008B;stroke-width:0.5;" width="142" x="592.5" y="599.37"/><text fill="#000000" font-family="sans-serif" font-size="14" font-style="italic" lengthAdjust="spacing" textLength="82" x="622.5" y="622.9052">&#171;Container&#187;</text><text fill="#000000" font-family="sans-serif" font-size="14" lengthAdjust="spacing" textLength="122" x="602.5" y="639.3934">SIP Gateway / SBC</text></g><!--entity WebRTCGW--><g id="elem_WebRTCGW"><rect fill="#ADD8E6" height="52.9766" rx="2.5" ry="2.5" style="stroke:#00008B;stroke-width:0.5;" width="138" x="910.5" y="516.39"/><text fill="#000000" font-family="sans-serif" font-size="14" font-style="italic" lengthAdjust="spacing" textLength="82" x="938.5" y="539.9252">&#171;Container&#187;</text><text fill="#000000" font-family="sans-serif" font-size="14" lengthAdjust="spacing" textLength="118" x="920.5" y="556.4134">WebRTC Gateway</text></g><!--entity Presence--><g id="elem_Presence"><rect fill="#ADD8E6" height="52.9766" rx="2.5" ry="2.5" style="stroke:#00008B;stroke-width:0.5;" width="133" x="1207" y="516.39"/><text fill="#000000" font-family="sans-serif" font-size="14" font-style="italic" lengthAdjust="spacing" textLength="82" x="1232.5" y="539.9252">&#171;Container&#187;</text><text fill="#000000" font-family="sans-serif" font-size="14" lengthAdjust="spacing" textLength="113" x="1217" y="556.4134">Presence Service</text></g><!--entity Chat--><g id="elem_Chat"><rect fill="#ADD8E6" height="52.9766" rx="2.5" ry="2.5" style="stroke:#00008B;stroke-width:0.5;" width="192" x="1454.5" y="350.44"/><text fill="#000000" font-family="sans-serif" font-size="14" font-style="italic" lengthAdjust="spacing" textLength="82" x="1509.5" y="373.9752">&#171;Container&#187;</text><text fill="#000000" font-family="sans-serif" font-size="14" lengthAdjust="spacing" textLength="172" x="1464.5" y="390.4634">Messaging / Chat Service</text></g><!--entity MediaRec--><g id="elem_MediaRec"><rect fill="#ADD8E6" height="52.9766" rx="2.5" ry="2.5" style="stroke:#00008B;stroke-width:0.5;" width="198" x="829.5" y="682.34"/><text fill="#000000" font-family="sans-serif" font-size="14" font-style="italic" lengthAdjust="spacing" textLength="82" x="887.5" y="705.8752">&#171;Container&#187;</text><text fill="#000000" font-family="sans-serif" font-size="14" lengthAdjust="spacing" textLength="178" x="839.5" y="722.3634">Media / Recording Service</text></g><!--entity Provisioning--><g id="elem_Provisioning"><rect fill="#ADD8E6" height="52.9766" rx="2.5" ry="2.5" style="stroke:#00008B;stroke-width:0.5;" width="157" x="573" y="205.46"/><text fill="#000000" font-family="sans-serif" font-size="14" font-style="italic" lengthAdjust="spacing" textLength="82" x="610.5" y="228.9952">&#171;Container&#187;</text><text fill="#000000" font-family="sans-serif" font-size="14" lengthAdjust="spacing" textLength="137" x="583" y="245.4834">Provisioning Service</text></g><!--entity Billing--><g id="elem_Billing"><rect fill="#ADD8E6" height="52.9766" rx="2.5" ry="2.5" style="stroke:#00008B;stroke-width:0.5;" width="158" x="523.5" y="848.3"/><text fill="#000000" font-family="sans-serif" font-size="14" font-style="italic" lengthAdjust="spacing" textLength="82" x="561.5" y="871.8352">&#171;Container&#187;</text><text fill="#000000" font-family="sans-serif" font-size="14" lengthAdjust="spacing" textLength="138" x="533.5" y="888.3234">Billing / CDR Service</text></g><!--entity Notify--><g id="elem_Notify"><rect fill="#ADD8E6" height="52.9766" rx="2.5" ry="2.5" style="stroke:#00008B;stroke-width:0.5;" width="151" x="1489" y="433.42"/><text fill="#000000" font-family="sans-serif" font-size="14" font-style="italic" lengthAdjust="spacing" textLength="82" x="1523.5" y="456.9552">&#171;Container&#187;</text><text fill="#000000" font-family="sans-serif" font-size="14" lengthAdjust="spacing" textLength="131" x="1499" y="473.4434">Notification Service</text></g><!--entity Observability--><g id="elem_Observability"><rect fill="#ADD8E6" height="69.4648" rx="2.5" ry="2.5" style="stroke:#00008B;stroke-width:0.5;" width="170" x="1058.5" y="993.27"/><text fill="#000000" font-family="sans-serif" font-size="14" font-style="italic" lengthAdjust="spacing" textLength="82" x="1102.5" y="1016.8052">&#171;Container&#187;</text><text fill="#000000" font-family="sans-serif" font-size="14" lengthAdjust="spacing" textLength="129" x="1068.5" y="1033.2934">Observability Stack</text><text fill="#000000" font-family="sans-serif" font-size="14" lengthAdjust="spacing" textLength="150" x="1068.5" y="1049.7817">(Metrics/Logs/Traces)</text></g><!--entity UCClients--><g id="elem_UCClients"><rect fill="#F0FFF0" height="69.4648" rx="2.5" ry="2.5" style="stroke:#006400;stroke-width:0.5;" width="177" x="2636" y="7"/><text fill="#000000" font-family="sans-serif" font-size="14" font-style="italic" lengthAdjust="spacing" textLength="119" x="2665" y="30.5352">&#171;ExternalSystem&#187;</text><text fill="#000000" font-family="sans-serif" font-size="14" lengthAdjust="spacing" textLength="71" x="2646" y="47.0234">UC Clients</text><text fill="#000000" font-family="sans-serif" font-size="14" lengthAdjust="spacing" textLength="157" x="2646" y="63.5117">(Web, Mobile, Desktop)</text></g><!--entity IdP--><g id="elem_IdP"><rect fill="#F0FFF0" height="52.9766" rx="2.5" ry="2.5" style="stroke:#006400;stroke-width:0.5;" width="168" x="41.5" y="516.39"/><text fill="#000000" font-family="sans-serif" font-size="14" font-style="italic" lengthAdjust="spacing" textLength="119" x="66" y="539.9252">&#171;ExternalSystem&#187;</text><text fill="#000000" font-family="sans-serif" font-size="14" lengthAdjust="spacing" textLength="148" x="51.5" y="556.4134">Identity Provider / IdP</text></g><!--entity CRM--><g id="elem_CRM"><rect fill="#F0FFF0" height="52.9766" rx="2.5" ry="2.5" style="stroke:#006400;stroke-width:0.5;" width="191" x="18" y="1001.52"/><text fill="#000000" font-family="sans-serif" font-size="14" font-style="italic" lengthAdjust="spacing" textLength="119" x="54" y="1025.0552">&#171;ExternalSystem&#187;</text><text fill="#000000" font-family="sans-serif" font-size="14" lengthAdjust="spacing" textLength="171" x="28" y="1041.5434">CRM / ERP / Service Desk</text></g><!--entity PSTN--><g id="elem_PSTN"><rect fill="#F0FFF0" height="52.9766" rx="2.5" ry="2.5" style="stroke:#006400;stroke-width:0.5;" width="203" x="7" y="765.32"/><text fill="#000000" font-family="sans-serif" font-size="14" font-style="italic" lengthAdjust="spacing" textLength="119" x="49" y="788.8552">&#171;ExternalSystem&#187;</text><text fill="#000000" font-family="sans-serif" font-size="14" lengthAdjust="spacing" textLength="183" x="17" y="805.3434">PSTN / &#1054;&#1087;&#1077;&#1088;&#1072;&#1090;&#1086;&#1088;&#1089;&#1082;&#1072;&#1103; &#1089;&#1077;&#1090;&#1100;</text></g><!--entity ESMSGW--><g id="elem_ESMSGW"><rect fill="#F0FFF0" height="52.9766" rx="2.5" ry="2.5" style="stroke:#006400;stroke-width:0.5;" width="153" x="1679" y="599.37"/><text fill="#000000" font-family="sans-serif" font-size="14" font-style="italic" lengthAdjust="spacing" textLength="119" x="1696" y="622.9052">&#171;ExternalSystem&#187;</text><text fill="#000000" font-family="sans-serif" font-size="14" lengthAdjust="spacing" textLength="133" x="1689" y="639.3934">Email/SMS Gateway</text></g><g id="elem_GMN50"><path d="M1678.5,219.29 L1678.5,227.95 L1323.07,231.95 L1678.5,235.95 L1678.5,244.6005 A0,0 0 0 0 1678.5,244.6005 L2654.5,244.6005 A0,0 0 0 0 2654.5,244.6005 L2654.5,229.29 L2644.5,219.29 L1678.5,219.29 A0,0 0 0 0 1678.5,219.29 " fill="#FEFFDD" style="stroke:#181818;stroke-width:0.5;"/><path d="M2644.5,219.29 L2644.5,229.29 L2654.5,229.29 L2644.5,219.29 " fill="#FEFFDD" style="stroke:#181818;stroke-width:0.5;"/><text fill="#000000" font-family="sans-serif" font-size="13" lengthAdjust="spacing" textLength="955" x="1684.5" y="236.8584">API Gateway &#1082;&#1086;&#1085;&#1094;&#1077;&#1085;&#1090;&#1088;&#1080;&#1088;&#1091;&#1077;&#1090; &#1074;&#1077;&#1089;&#1100;\n&#1074;&#1085;&#1077;&#1096;&#1085;&#1080;&#1081; API-&#1090;&#1088;&#1072;&#1092;&#1080;&#1082; &#1080; &#1086;&#1073;&#1077;&#1089;&#1087;&#1077;&#1095;&#1080;&#1074;&#1072;&#1077;&#1090;\n&#1072;&#1091;&#1090;&#1077;&#1085;&#1090;&#1080;&#1092;&#1080;&#1082;&#1072;&#1094;&#1080;&#1102;, &#1072;&#1074;&#1090;&#1086;&#1088;&#1080;&#1079;&#1072;&#1094;&#1080;&#1102;,\n&#1083;&#1080;&#1084;&#1077;&#1090;&#1080;&#1088;&#1086;&#1074;&#1072;&#1085;&#1080;&#1077; &#1080; &#1074;&#1077;&#1088;&#1089;&#1080;&#1086;&#1085;&#1080;&#1088;&#1086;&#1074;&#1072;&#1085;&#1080;&#1077; API.</text></g><g id="elem_GMN53"><path d="M697.5,1125.74 L697.5,1151.0505 A0,0 0 0 0 697.5,1151.0505 L1589.5,1151.0505 A0,0 0 0 0 1589.5,1151.0505 L1589.5,1135.74 L1579.5,1125.74 L1147.5,1125.74 L1143.5,1063 L1139.5,1125.74 L697.5,1125.74 A0,0 0 0 0 697.5,1125.74 " fill="#FEFFDD" style="stroke:#181818;stroke-width:0.5;"/><path d="M1579.5,1125.74 L1579.5,1135.74 L1589.5,1135.74 L1579.5,1125.74 " fill="#FEFFDD" style="stroke:#181818;stroke-width:0.5;"/><text fill="#000000" font-family="sans-serif" font-size="13" lengthAdjust="spacing" textLength="871" x="703.5" y="1143.3084">Observability Stack &#1088;&#1077;&#1072;&#1083;&#1080;&#1079;&#1091;&#1077;&#1090;\n&#1077;&#1076;&#1080;&#1085;&#1099;&#1081; &#1082;&#1086;&#1085;&#1090;&#1091;&#1088; &#1085;&#1072;&#1073;&#1083;&#1102;&#1076;&#1072;&#1077;&#1084;&#1086;&#1089;&#1090;&#1080;:\n&#1084;&#1077;&#1090;&#1088;&#1080;&#1082;&#1080;, &#1083;&#1086;&#1075;&#1080; &#1080; &#1090;&#1088;&#1072;&#1089;&#1089;&#1080;&#1088;&#1086;&#1074;&#1082;&#1080;\n&#1089; &#1087;&#1086;&#1076;&#1076;&#1077;&#1088;&#1078;&#1082;&#1086;&#1081; &#1082;&#1086;&#1088;&#1088;&#1077;&#1083;&#1103;&#1094;&#1080;&#1080; &#1079;&#1072;&#1087;&#1088;&#1086;&#1089;&#1086;&#1074;.</text></g><!--link UCClients to APIGW--><g id="link_UCClients_APIGW"><path d="M2635.78,47.87 C2452.66,59.24 2019.88,90.11 1660.5,146.46 C1538.63,165.57 1403.411,197.6553 1329.181,216.2053 " fill="none" id="UCClients-to-APIGW" style="stroke:#181818;stroke-width:1.0;"/><polygon fill="#181818" points="1323.36,217.66,1333.0613,219.3587,1328.2108,216.4478,1331.1217,211.5973,1323.36,217.66" style="stroke:#181818;stroke-width:1.0;"/><text fill="#000000" font-family="sans-serif" font-size="13" lengthAdjust="spacing" textLength="158" x="1952.4" y="120.0284">HTTPS (REST, WebSocket)</text><text fill="#000000" font-family="sans-serif" font-size="13" lengthAdjust="spacing" textLength="90" x="1986.4" y="135.3389">UI/API &#1074;&#1099;&#1079;&#1086;&#1074;&#1099;</text></g><!--link APIGW to IAM--><g id="link_APIGW_IAM"><path d="M1219.71,235.36 C1067.86,242.66 630.66,265.45 570.5,288.44 C548.58,296.82 549.55,310.07 528.5,320.44 C490.13,339.34 450.2907,351.1699 411.8007,359.9199 " fill="none" id="APIGW-to-IAM" style="stroke:#181818;stroke-width:1.0;"/><polygon fill="#181818" points="405.95,361.25,415.6128,363.1554,410.8256,360.1416,413.8394,355.3544,405.95,361.25" style="stroke:#181818;stroke-width:1.0;"/><text fill="#000000" font-family="sans-serif" font-size="13" lengthAdjust="spacing" textLength="77" x="631" y="302.0084">REST / gRPC</text><text fill="#000000" font-family="sans-serif" font-size="13" lengthAdjust="spacing" textLength="196" x="571.5" y="317.3189">&#1040;&#1091;&#1090;&#1077;&#1085;&#1090;&#1080;&#1092;&#1080;&#1082;&#1072;&#1094;&#1080;&#1103;, &#1072;&#1074;&#1090;&#1086;&#1088;&#1080;&#1079;&#1072;&#1094;&#1080;&#1103;</text></g><!--link IAM to IdP--><g id="link_IAM_IdP"><path d="M292.13,403.91 C255.05,434.61 198.3617,481.5538 161.3517,512.1938 " fill="none" id="IAM-to-IdP" style="stroke:#181818;stroke-width:1.0;"/><polygon fill="#181818" points="156.73,516.02,166.2133,513.3618,160.5814,512.8315,161.1117,507.1995,156.73,516.02" style="stroke:#181818;stroke-width:1.0;"/><text fill="#000000" font-family="sans-serif" font-size="13" lengthAdjust="spacing" textLength="82" x="269.8" y="457.4684">OIDC / SAML</text><text fill="#000000" font-family="sans-serif" font-size="13" lengthAdjust="spacing" textLength="112" x="254.8" y="472.7789">SSO &#1080; &#1092;&#1077;&#1076;&#1077;&#1088;&#1072;&#1094;&#1080;&#1103;</text></g><!--link APIGW to CallControl--><g id="link_APIGW_CallControl"><path d="M1219.58,232.44 C1163.63,234.35 1074.31,244.83 1012.5,288.44 C991.06,303.56 978.8122,324.6589 970.2422,344.5689 " fill="none" id="APIGW-to-CallControl" style="stroke:#181818;stroke-width:1.0;"/><polygon fill="#181818" points="967.87,350.08,975.1024,343.3948,969.8468,345.4874,967.7542,340.2318,967.87,350.08" style="stroke:#181818;stroke-width:1.0;"/><text fill="#000000" font-family="sans-serif" font-size="13" lengthAdjust="spacing" textLength="77" x="1085.5" y="302.0084">REST / gRPC</text><text fill="#000000" font-family="sans-serif" font-size="13" lengthAdjust="spacing" textLength="221" x="1013.5" y="317.3189">&#1048;&#1085;&#1080;&#1094;&#1080;&#1072;&#1094;&#1080;&#1103;/&#1091;&#1087;&#1088;&#1072;&#1074;&#1083;&#1077;&#1085;&#1080;&#1077; &#1074;&#1099;&#1079;&#1086;&#1074;&#1072;&#1084;&#1080;</text></g><!--link CallControl to SIPGW--><g id="link_CallControl_SIPGW"><path d="M881.24,386.52 C822.67,394.82 749.16,409.67 730.5,433.42 C715.95,451.93 718.48,466.15 730.5,486.39 C744.71,510.34 771.29,492.45 785.5,516.39 C797.52,536.64 798.24,549.57 785.5,569.37 C778.98,579.49 763.3314,588.1993 740.4014,597.7193 " fill="none" id="CallControl-to-SIPGW" style="stroke:#181818;stroke-width:1.0;"/><polygon fill="#181818" points="734.86,600.02,744.7059,600.2633,739.4778,598.1028,741.6383,592.8748,734.86,600.02" style="stroke:#181818;stroke-width:1.0;"/><text fill="#000000" font-family="sans-serif" font-size="13" lengthAdjust="spacing" textLength="119" x="770.5" y="457.4684">SIP (&#1089;&#1080;&#1075;&#1085;&#1072;&#1083;&#1080;&#1079;&#1072;&#1094;&#1080;&#1103;)</text><text fill="#000000" font-family="sans-serif" font-size="13" lengthAdjust="spacing" textLength="197" x="731.5" y="472.7789">&#1048;&#1089;&#1093;&#1086;&#1076;&#1103;&#1097;&#1080;&#1077;/&#1074;&#1093;&#1086;&#1076;&#1103;&#1097;&#1080;&#1077; &#1074;&#1099;&#1079;&#1086;&#1074;&#1099;</text></g><!--link CallControl to WebRTCGW--><g id="link_CallControl_WebRTCGW"><path d="M961.83,403.91 C965.76,434.61 971.4967,479.4288 975.4267,510.0688 " fill="none" id="CallControl-to-WebRTCGW" style="stroke:#181818;stroke-width:1.0;"/><polygon fill="#181818" points="976.19,516.02,979.0125,506.5842,975.5539,511.0606,971.0775,507.602,976.19,516.02" style="stroke:#181818;stroke-width:1.0;"/><text fill="#000000" font-family="sans-serif" font-size="13" lengthAdjust="spacing" textLength="132" x="980.61" y="457.4684">WebRTC (DTLS/SRTP)</text><text fill="#000000" font-family="sans-serif" font-size="13" lengthAdjust="spacing" textLength="147" x="973.11" y="472.7789">&#1057;&#1080;&#1075;&#1085;&#1072;&#1083;&#1080;&#1079;&#1072;&#1094;&#1080;&#1103; &#1080; &#1084;&#1077;&#1076;&#1080;&#1072;</text></g><!--link WebRTCGW to MediaRec--><g id="link_WebRTCGW_MediaRec"><path d="M965.43,569.59 C960.82,578.79 955.99,589.35 952.5,599.37 C942.92,626.87 937.3065,653.7467 933.4765,676.0267 " fill="none" id="WebRTCGW-to-MediaRec" style="stroke:#181818;stroke-width:1.0;"/><polygon fill="#181818" points="932.46,681.94,937.9269,673.7478,933.3071,677.0123,930.0426,672.3924,932.46,681.94" style="stroke:#181818;stroke-width:1.0;"/><text fill="#000000" font-family="sans-serif" font-size="13" lengthAdjust="spacing" textLength="60" x="996.5" y="623.4284">RTP/SRTP</text><text fill="#000000" font-family="sans-serif" font-size="13" lengthAdjust="spacing" textLength="146" x="953.5" y="638.7389">&#1052;&#1077;&#1076;&#1080;&#1072;&#1087;&#1086;&#1090;&#1086;&#1082;&#1080; &#1080; &#1079;&#1072;&#1087;&#1080;&#1089;&#1100;</text></g><!--link SIPGW to PSTN--><g id="link_SIPGW_PSTN"><path d="M592.07,651.22 C590.87,651.6 589.68,651.97 588.5,652.34 C455.48,694.11 306.0323,736.4185 208.9423,763.3085 " fill="none" id="SIPGW-to-PSTN" style="stroke:#181818;stroke-width:1.0;"/><polygon fill="#181818" points="203.16,764.91,212.9011,766.3627,207.9786,763.5754,210.7658,758.6529,203.16,764.91" style="stroke:#181818;stroke-width:1.0;"/><text fill="#000000" font-family="sans-serif" font-size="13" lengthAdjust="spacing" textLength="70" x="533.82" y="706.3984">SIP-&#1090;&#1088;&#1072;&#1085;&#1082;&#1080;</text><text fill="#000000" font-family="sans-serif" font-size="13" lengthAdjust="spacing" textLength="168" x="484.82" y="721.7089">&#1048;&#1085;&#1090;&#1077;&#1075;&#1088;&#1072;&#1094;&#1080;&#1103; &#1089; &#1086;&#1087;&#1077;&#1088;&#1072;&#1090;&#1086;&#1088;&#1086;&#1084;</text></g><!--link APIGW to Chat--><g id="link_APIGW_Chat"><path d="M1323.3,236.49 C1369.54,241.81 1437.37,255.12 1486.5,288.44 C1509.4,303.97 1524.1992,325.2578 1535.1292,345.0478 " fill="none" id="APIGW-to-Chat" style="stroke:#181818;stroke-width:1.0;"/><polygon fill="#181818" points="1538.03,350.3,1537.1803,340.4879,1535.6127,345.9232,1530.1774,344.3556,1538.03,350.3" style="stroke:#181818;stroke-width:1.0;"/><text fill="#000000" font-family="sans-serif" font-size="13" lengthAdjust="spacing" textLength="113" x="1521.91" y="302.0084">REST / WebSocket</text><text fill="#000000" font-family="sans-serif" font-size="13" lengthAdjust="spacing" textLength="119" x="1518.91" y="317.3189">&#1057;&#1086;&#1086;&#1073;&#1097;&#1077;&#1085;&#1080;&#1103; &#1080; &#1095;&#1072;&#1090;&#1099;</text></g><!--link APIGW to Presence--><g id="link_APIGW_Presence"><path d="M1265.67,258.7 C1261.3,276.38 1254.67,300.23 1246.5,320.44 C1240.84,334.45 1234.52,335.87 1230.5,350.44 C1214.43,408.71 1205.69,429.64 1226.5,486.39 C1230.5,497.3 1233.7331,503.0197 1241.3131,511.6597 " fill="none" id="APIGW-to-Presence" style="stroke:#181818;stroke-width:1.0;"/><polygon fill="#181818" points="1245.27,516.17,1242.3414,506.7666,1241.9726,512.4114,1236.3277,512.0425,1245.27,516.17" style="stroke:#181818;stroke-width:1.0;"/><text fill="#000000" font-family="sans-serif" font-size="13" lengthAdjust="spacing" textLength="86" x="1263.5" y="374.4984">REST / Events</text><text fill="#000000" font-family="sans-serif" font-size="13" lengthAdjust="spacing" textLength="150" x="1231.5" y="389.8089">&#1057;&#1090;&#1072;&#1090;&#1091;&#1089;&#1099; &#1087;&#1086;&#1083;&#1100;&#1079;&#1086;&#1074;&#1072;&#1090;&#1077;&#1083;&#1077;&#1081;</text></g><!--link Chat to Presence--><g id="link_Chat_Presence"><path d="M1454.41,393.8 C1365.65,408.69 1246.97,429.27 1243.5,433.42 C1223.83,456.96 1236.3622,487.3495 1251.4822,511.2495 " fill="none" id="Chat-to-Presence" style="stroke:#181818;stroke-width:1.0;"/><polygon fill="#181818" points="1254.69,516.32,1253.2587,506.5757,1252.0168,512.0946,1246.498,510.8528,1254.69,516.32" style="stroke:#181818;stroke-width:1.0;"/><text fill="#000000" font-family="sans-serif" font-size="13" lengthAdjust="spacing" textLength="41" x="1337" y="457.4684">Events</text><text fill="#000000" font-family="sans-serif" font-size="13" lengthAdjust="spacing" textLength="226" x="1244.5" y="472.7789">&#1054;&#1073;&#1085;&#1086;&#1074;&#1083;&#1077;&#1085;&#1080;&#1077; &#1089;&#1090;&#1072;&#1090;&#1091;&#1089;&#1072; &#1087;&#1086; &#1072;&#1082;&#1090;&#1080;&#1074;&#1085;&#1086;&#1089;&#1090;&#1080;</text></g><!--link Provisioning to IAM--><g id="link_Provisioning_IAM"><path d="M572.89,232.92 C473.68,234.75 311.39,244.58 273.5,288.44 C257.37,307.1 269.9397,327.505 288.2897,345.875 " fill="none" id="Provisioning-to-IAM" style="stroke:#181818;stroke-width:1.0;"/><polygon fill="#181818" points="292.53,350.12,288.9995,340.9257,288.9964,346.5825,283.3395,346.5795,292.53,350.12" style="stroke:#181818;stroke-width:1.0;"/><text fill="#000000" font-family="sans-serif" font-size="13" lengthAdjust="spacing" textLength="86" x="354" y="302.0084">REST / Events</text><text fill="#000000" font-family="sans-serif" font-size="13" lengthAdjust="spacing" textLength="245" x="274.5" y="317.3189">&#1057;&#1086;&#1079;&#1076;&#1072;&#1085;&#1080;&#1077;/&#1086;&#1073;&#1085;&#1086;&#1074;&#1083;&#1077;&#1085;&#1080;&#1077; &#1087;&#1086;&#1083;&#1100;&#1079;&#1086;&#1074;&#1072;&#1090;&#1077;&#1083;&#1077;&#1081;</text></g><!--link Provisioning to CallControl--><g id="link_Provisioning_CallControl"><path d="M719.97,258.8 C738.9,267.15 759.03,277.19 776.5,288.44 C794.5,300.03 794.19,309.34 812.5,320.44 C833.6,333.23 852.5248,341.8527 875.4048,350.3427 " fill="none" id="Provisioning-to-CallControl" style="stroke:#181818;stroke-width:1.0;"/><polygon fill="#181818" points="881.03,352.43,873.9837,345.5489,876.3423,350.6906,871.2006,353.0492,881.03,352.43" style="stroke:#181818;stroke-width:1.0;"/><text fill="#000000" font-family="sans-serif" font-size="13" lengthAdjust="spacing" textLength="86" x="849.5" y="302.0084">REST / Events</text><text fill="#000000" font-family="sans-serif" font-size="13" lengthAdjust="spacing" textLength="158" x="813.5" y="317.3189">&#1053;&#1086;&#1084;&#1077;&#1088;&#1072;, &#1084;&#1072;&#1088;&#1096;&#1088;&#1091;&#1090;&#1080;&#1079;&#1072;&#1094;&#1080;&#1103;</text></g><!--link Provisioning to Billing--><g id="link_Provisioning_Billing"><path d="M730.5,254.97 C745.95,262.98 760.22,273.82 769.5,288.44 C777.12,300.45 774.72,307.21 769.5,320.44 C725.79,431.29 630.21,405.54 586.5,516.39 C574.45,546.94 592.6941,764.984 599.5941,841.934 " fill="none" id="Provisioning-to-Billing" style="stroke:#181818;stroke-width:1.0;"/><polygon fill="#181818" points="600.13,847.91,603.3102,838.5887,599.6834,842.93,595.3422,839.3032,600.13,847.91" style="stroke:#181818;stroke-width:1.0;"/><text fill="#000000" font-family="sans-serif" font-size="13" lengthAdjust="spacing" textLength="86" x="639" y="540.4484">REST / Events</text><text fill="#000000" font-family="sans-serif" font-size="13" lengthAdjust="spacing" textLength="189" x="587.5" y="555.7589">&#1058;&#1072;&#1088;&#1080;&#1092;&#1099;, &#1073;&#1080;&#1083;&#1083;&#1080;&#1085;&#1075;-&#1087;&#1072;&#1088;&#1072;&#1084;&#1077;&#1090;&#1088;&#1099;</text></g><!--link CallControl to Billing--><g id="link_CallControl_Billing"><path d="M957.59,403.58 C955.67,426.9 949.99,461.38 933.5,486.39 C921.07,505.24 910.41,502.64 892.5,516.39 C845.88,552.2 829.37,556.17 789.5,599.37 C713.44,681.77 647.9454,792.1271 619.4554,842.9171 " fill="none" id="CallControl-to-Billing" style="stroke:#181818;stroke-width:1.0;"/><polygon fill="#181818" points="616.52,848.15,624.4117,842.2575,618.9661,843.7892,617.4344,838.3437,616.52,848.15" style="stroke:#181818;stroke-width:1.0;"/><text fill="#000000" font-family="sans-serif" font-size="13" lengthAdjust="spacing" textLength="80" x="820" y="623.4284">Events (CDR)</text><text fill="#000000" font-family="sans-serif" font-size="13" lengthAdjust="spacing" textLength="139" x="790.5" y="638.7389">&#1044;&#1077;&#1090;&#1072;&#1083;&#1080;&#1079;&#1072;&#1094;&#1080;&#1103; &#1074;&#1099;&#1079;&#1086;&#1074;&#1086;&#1074;</text></g><!--link MediaRec to Billing--><g id="link_MediaRec_Billing"><path d="M884.57,735.58 C871.85,744.14 858.45,754.33 847.5,765.32 C827.41,785.49 834.72,801.83 811.5,818.3 C773.6,845.17 729.4137,858.016 687.7737,865.156 " fill="none" id="MediaRec-to-Billing" style="stroke:#181818;stroke-width:1.0;"/><polygon fill="#181818" points="681.86,866.17,691.4066,868.5914,686.7881,865.325,690.0545,860.7065,681.86,866.17" style="stroke:#181818;stroke-width:1.0;"/><text fill="#000000" font-family="sans-serif" font-size="13" lengthAdjust="spacing" textLength="41" x="903.5" y="789.3784">Events</text><text fill="#000000" font-family="sans-serif" font-size="13" lengthAdjust="spacing" textLength="151" x="848.5" y="804.6889">&#1048;&#1085;&#1092;&#1086;&#1088;&#1084;&#1072;&#1094;&#1080;&#1103; &#1086; &#1079;&#1072;&#1087;&#1080;&#1089;&#1103;&#1093;</text></g><!--link Billing to CRM--><g id="link_Billing_CRM"><path d="M523.4,896.77 C486.53,906.79 442.15,919.22 402.5,931.27 C329.3,953.54 252.1678,979.2902 194.0078,999.1602 " fill="none" id="Billing-to-CRM" style="stroke:#181818;stroke-width:1.0;"/><polygon fill="#181818" points="188.33,1001.1,198.1399,1001.9755,193.0615,999.4835,195.5535,994.4051,188.33,1001.1" style="stroke:#181818;stroke-width:1.0;"/><text fill="#000000" font-family="sans-serif" font-size="13" lengthAdjust="spacing" textLength="86" x="442" y="944.8384">REST / Export</text><text fill="#000000" font-family="sans-serif" font-size="13" lengthAdjust="spacing" textLength="163" x="403.5" y="960.1489">&#1054;&#1090;&#1095;&#1105;&#1090;&#1085;&#1086;&#1089;&#1090;&#1100; &#1080; &#1080;&#1085;&#1090;&#1077;&#1075;&#1088;&#1072;&#1094;&#1080;&#1080;</text></g><!--link Notify to ESMSGW--><g id="link_Notify_ESMSGW"><path d="M1594.76,486.88 C1630.53,517.58 1685.1171,564.4422 1720.8271,595.0922 " fill="none" id="Notify-to-ESMSGW" style="stroke:#181818;stroke-width:1.0;"/><polygon fill="#181818" points="1725.38,599,1721.1558,590.103,1721.5859,595.7435,1715.9454,596.1736,1725.38,599" style="stroke:#181818;stroke-width:1.0;"/><text fill="#000000" font-family="sans-serif" font-size="13" lengthAdjust="spacing" textLength="88" x="1746.27" y="540.4484">SMTP / HTTPS</text><text fill="#000000" font-family="sans-serif" font-size="13" lengthAdjust="spacing" textLength="202" x="1689.27" y="555.7589">&#1059;&#1074;&#1077;&#1076;&#1086;&#1084;&#1083;&#1077;&#1085;&#1080;&#1103; (email/SMS/push)</text></g><!--link APIGW to Notify--><g id="link_APIGW_Notify"><path d="M1268.77,258.62 C1268.17,277.9 1270.7,303.75 1285.5,320.44 C1317.71,356.75 1349.56,324.37 1390.5,350.44 C1416.8,367.19 1411.35,384.98 1436.5,403.42 C1452.42,415.08 1465.6909,422.5272 1483.8609,430.5472 " fill="none" id="APIGW-to-Notify" style="stroke:#181818;stroke-width:1.0;"/><polygon fill="#181818" points="1489.35,432.97,1482.7316,425.6764,1484.7758,430.951,1479.5012,432.9952,1489.35,432.97" style="stroke:#181818;stroke-width:1.0;"/><text fill="#000000" font-family="sans-serif" font-size="13" lengthAdjust="spacing" textLength="86" x="1339" y="302.0084">REST / Events</text><text fill="#000000" font-family="sans-serif" font-size="13" lengthAdjust="spacing" textLength="191" x="1286.5" y="317.3189">&#1057;&#1080;&#1089;&#1090;&#1077;&#1084;&#1085;&#1099;&#1077; &#1080; &#1073;&#1080;&#1079;&#1085;&#1077;&#1089;-&#1089;&#1086;&#1073;&#1099;&#1090;&#1080;&#1103;</text></g><!--link UCClients to Chat--><g id="link_UCClients_Chat"><path d="M2727.28,76.8 C2729.15,125.16 2724.52,212.88 2672.5,258.44 C2595.98,325.46 1910.7345,360.8233 1652.8845,371.8633 " fill="none" id="UCClients-to-Chat" style="stroke:#181818;stroke-width:1.0;"/><polygon fill="#181818" points="1646.89,372.12,1656.0529,375.7314,1651.8854,371.9061,1655.7107,367.7387,1646.89,372.12" style="stroke:#181818;stroke-width:1.0;"/><text fill="#000000" font-family="sans-serif" font-size="13" lengthAdjust="spacing" textLength="68" x="2810.85" y="229.5184">WebSocket</text><text fill="#000000" font-family="sans-serif" font-size="13" lengthAdjust="spacing" textLength="240" x="2724.85" y="244.8289">&#1056;&#1077;&#1072;&#1083;&#1100;&#1085;&#1099;&#1081; &#1074;&#1088;&#1077;&#1084;&#1103; &#1086;&#1073;&#1084;&#1077;&#1085; &#1089;&#1086;&#1086;&#1073;&#1097;&#1077;&#1085;&#1080;&#1103;&#1084;&#1080;</text></g><!--link UCClients to Observability--><g id="link_UCClients_Observability"><path d="M2813.41,60.1 C2900.27,82.85 3019.5,132.08 3019.5,230.95 C3019.5,230.95 3019.5,230.95 3019.5,875.79 C3019.5,966.87 1601.9775,1013.8461 1234.9775,1024.4861 " fill="none" id="UCClients-to-Observability" style="stroke:#181818;stroke-width:1.0;"/><polygon fill="#181818" points="1228.98,1024.66,1238.0921,1028.3975,1233.9779,1024.5151,1237.8603,1020.4009,1228.98,1024.66" style="stroke:#181818;stroke-width:1.0;"/><text fill="#000000" font-family="sans-serif" font-size="13" lengthAdjust="spacing" textLength="147" x="3071.5" y="540.4484">Metrics / Logs (&#1082;&#1083;&#1080;&#1077;&#1085;&#1090;)</text><text fill="#000000" font-family="sans-serif" font-size="13" lengthAdjust="spacing" textLength="249" x="3020.5" y="555.7589">&#1050;&#1083;&#1080;&#1077;&#1085;&#1090;&#1089;&#1082;&#1072;&#1103; &#1090;&#1077;&#1083;&#1077;&#1084;&#1077;&#1090;&#1088;&#1080;&#1103; (&#1086;&#1087;&#1094;&#1080;&#1086;&#1085;&#1072;&#1083;&#1100;&#1085;&#1086;)</text></g><!--link APIGW to Observability--><g id="link_APIGW_Observability"><path d="M1260.8,258.77 C1257.07,268.07 1252.96,278.67 1249.5,288.44 C1244.53,302.49 1247.32,307.75 1239.5,320.44 C1229.44,336.76 1216.98,333.24 1208.5,350.44 C1165.33,438.05 1165.93,474.59 1189.5,569.37 C1199.58,609.88 1202.09,624.85 1233.5,652.34 C1262.39,677.63 1292.57,650.84 1314.5,682.34 C1327.95,701.67 1320.67,712.6 1314.5,735.32 C1286.66,837.86 1216.4327,936.5045 1175.4827,988.2645 " fill="none" id="APIGW-to-Observability" style="stroke:#181818;stroke-width:1.0;"/><polygon fill="#181818" points="1171.76,992.97,1180.4811,988.3936,1174.8623,989.0488,1174.2071,983.43,1171.76,992.97" style="stroke:#181818;stroke-width:1.0;"/><text fill="#000000" font-family="sans-serif" font-size="13" lengthAdjust="spacing" textLength="147" x="1234.5" y="630.9284">Metrics / Logs / Traces</text></g><!--link CallControl to Observability--><g id="link_CallControl_Observability"><path d="M1035.8,384.11 C1069.78,391 1107,405.05 1129.5,433.42 C1166.14,479.6 1163.86,904.66 1157.5,963.27 C1156.45,972.96 1155.8092,977.4701 1153.7192,986.9701 " fill="none" id="CallControl-to-Observability" style="stroke:#181818;stroke-width:1.0;"/><polygon fill="#181818" points="1152.43,992.83,1158.2703,984.8996,1153.5043,987.9468,1150.4572,983.1808,1152.43,992.83" style="stroke:#181818;stroke-width:1.0;"/><text fill="#000000" font-family="sans-serif" font-size="13" lengthAdjust="spacing" textLength="147" x="1161.47" y="713.8984">Metrics / Logs / Traces</text></g><!--link SIPGW to Observability--><g id="link_SIPGW_Observability"><path d="M663.16,652.81 C663.99,692.72 671.06,769.65 710.5,818.3 C799.31,927.85 953.7583,982.2286 1052.4283,1007.5486 " fill="none" id="SIPGW-to-Observability" style="stroke:#181818;stroke-width:1.0;"/><polygon fill="#181818" points="1058.24,1009.04,1050.5167,1002.9285,1053.3969,1007.7972,1048.5282,1010.6774,1058.24,1009.04" style="stroke:#181818;stroke-width:1.0;"/><text fill="#000000" font-family="sans-serif" font-size="13" lengthAdjust="spacing" textLength="91" x="711.5" y="796.8784">Metrics / Logs</text></g><!--link WebRTCGW to Observability--><g id="link_WebRTCGW_Observability"><path d="M1048.75,558.78 C1070.31,567.03 1091.75,579.76 1104.5,599.37 C1117.33,619.11 1109.28,629.29 1104.5,652.34 C1101.55,666.57 1096.93,668.87 1091.5,682.34 C1076.78,718.86 1067.5,726.58 1060.5,765.32 C1056.31,788.49 1048.12,798.27 1060.5,818.3 C1076.17,843.66 1103.24,823.99 1120.5,848.3 C1150.84,891.02 1151.8285,948.3616 1148.5385,987.0416 " fill="none" id="WebRTCGW-to-Observability" style="stroke:#181818;stroke-width:1.0;"/><polygon fill="#181818" points="1148.03,993.02,1152.7784,984.3914,1148.4538,988.038,1144.8071,983.7134,1148.03,993.02" style="stroke:#181818;stroke-width:1.0;"/><text fill="#000000" font-family="sans-serif" font-size="13" lengthAdjust="spacing" textLength="91" x="1061.5" y="796.8784">Metrics / Logs</text></g><!--link Chat to Observability--><g id="link_Chat_Observability"><path d="M1611.79,403.89 C1623.29,411.65 1633.79,421.39 1640.5,433.42 C1651.98,453.97 1646.59,463.65 1640.5,486.39 C1632.59,515.93 1389.59,944.44 1365.5,963.27 C1326.49,993.78 1279.3481,1008.5787 1234.8981,1016.8787 " fill="none" id="Chat-to-Observability" style="stroke:#181818;stroke-width:1.0;"/><polygon fill="#181818" points="1229,1017.98,1238.5813,1020.2601,1233.915,1017.0622,1237.1129,1012.396,1229,1017.98" style="stroke:#181818;stroke-width:1.0;"/><text fill="#000000" font-family="sans-serif" font-size="13" lengthAdjust="spacing" textLength="91" x="1534.98" y="713.8984">Metrics / Logs</text></g><!--link MediaRec to Observability--><g id="link_MediaRec_Observability"><path d="M976.17,735.67 C987.1,743.76 997.53,753.69 1004.5,765.32 C1035.84,817.67 996.94,846.35 1023.5,901.27 C1040.97,937.4 1068.1462,966 1094.5762,988.91 " fill="none" id="MediaRec-to-Observability" style="stroke:#181818;stroke-width:1.0;"/><polygon fill="#181818" points="1099.11,992.84,1094.9293,983.9225,1095.3318,989.565,1089.6893,989.9676,1099.11,992.84" style="stroke:#181818;stroke-width:1.0;"/><text fill="#000000" font-family="sans-serif" font-size="13" lengthAdjust="spacing" textLength="91" x="1024.5" y="879.8584">Metrics / Logs</text></g><!--link Billing to Observability--><g id="link_Billing_Observability"><path d="M598.74,901.7 C597.46,921.38 599.43,947.64 615.5,963.27 C646.6,993.54 910.7911,1013.356 1052.1211,1021.946 " fill="none" id="Billing-to-Observability" style="stroke:#181818;stroke-width:1.0;"/><polygon fill="#181818" points="1058.11,1022.31,1049.3692,1017.7714,1053.1192,1022.0067,1048.8839,1025.7566,1058.11,1022.31" style="stroke:#181818;stroke-width:1.0;"/><text fill="#000000" font-family="sans-serif" font-size="13" lengthAdjust="spacing" textLength="91" x="616.5" y="952.3384">Metrics / Logs</text></g><!--link Notify to Observability--><g id="link_Notify_Observability"><path d="M1505.59,486.77 C1455.11,513.39 1390.5,560.11 1390.5,624.86 C1390.5,624.86 1390.5,624.86 1390.5,875.79 C1390.5,953.6 1306.0446,991.0712 1234.6546,1009.7512 " fill="none" id="Notify-to-Observability" style="stroke:#181818;stroke-width:1.0;"/><polygon fill="#181818" points="1228.85,1011.27,1238.5694,1012.8615,1233.6871,1010.0043,1236.5443,1005.122,1228.85,1011.27" style="stroke:#181818;stroke-width:1.0;"/><text fill="#000000" font-family="sans-serif" font-size="13" lengthAdjust="spacing" textLength="91" x="1391.5" y="713.8984">Metrics / Logs</text></g><!--link Provisioning to Observability--><g id="link_Provisioning_Observability"><path d="M572.78,257.4 C558.15,265.2 544.39,275.34 534.5,288.44 C523.95,302.41 483.95,581.91 482.5,599.37 C480.55,622.83 481.37,628.83 482.5,652.34 C485.17,707.85 478.83,853.08 506.5,901.27 C529.96,942.14 548.57,946.24 592.5,963.27 C675.38,995.41 919.311,1013.9768 1052.231,1022.0368 " fill="none" id="Provisioning-to-Observability" style="stroke:#181818;stroke-width:1.0;"/><polygon fill="#181818" points="1058.22,1022.4,1049.4786,1017.8626,1053.2292,1022.0974,1048.9944,1025.8479,1058.22,1022.4" style="stroke:#181818;stroke-width:1.0;"/><text fill="#000000" font-family="sans-serif" font-size="13" lengthAdjust="spacing" textLength="91" x="483.5" y="630.9284">Metrics / Logs</text></g><!--SRC=[ZLTDJnjN5DtFhtZAfaQ2UjCLGf70HWG99vR7A1isW_rYHendqCoG14ML82Gb5IYqKXTLrQAc_GFcmyK9sFaBR_vHpxrlF9xn63j21kEvvzolS-zx_awKVX0bpmqjsvM-ADjMoxVQueNdYqtNVc7B9fwss_kktR12stC3KNMi48_RXX7iskwUHUQ-R8IMstAaU6C8iM8rTbk-j-ysIvxZ-KjB2V_ZnsB3Rks4Ayw-94FFRqf_Wb7PydVPviTlTxBwEfI-QpdcGH3ADaYUUAuyACjNuuvoXkHjpPVIXJjZvENHPYb9zf5OMahihK3WqHi3n2dhvUgwMBD2-Sew8EjqEW3WwThpB61zkIAAOhqftT0E3uGf_PTsGqx0md3CLybo7EwQxpbJW6GMMsNnvdfr62j2C5TA4y2m6O_ukTokrKjJijG6W6LnLLy6qct8AQ4EJRB0YWm2gsMxBKHPsh72QRdYyJYuQLi0rcG3xIUIXz5i2yDSuDvBEu3ifwFJPbc25Tjnul3BjIaCiLqM_DGBCO5wxgPWsUnWBF9dsm40rhRjiBP2JCkMMwZ8qBSRGN73QmN5kcyrP30tWJ43pWz5oR6XsG1ywFUyg7WmbFEYB8FTqDjZmjoCySp4m3HT8d-k8OQKHwBw40SUfT6b6etGQgrAAjO5uZ0UWiC-3Q-QzQT0gWlrLNMZGzM9tgf1T1WTgIzuVoxmfXkzZSuUeYDycc-rRTbEqQoOwH6P15o53Kr9KXAniF1OxmYnA9xKwrLJ56ghPdsUHihq6hiodDjoDzUBj6NKLNIgRjM0_XeQH73Q9uk2KCYfLQkMjbprItICdBggZz-zw9tgSMO_uVtvl50TC736-Fns-Bb1FCpNh8BlsNgvHDLThcnikQRvJAYU055NtSGbqw1K7AcjauldTzM7EI13O34wLb-9HrsfEmeKZxgf3F7WNlMCD2VvuEK4Tbfa1RIffwu1xO0YbSaSEOoEelSWkedEev-9kmZkp0VPSeux6cuq-8gtNw5Stp2BPgrU9VvFarrJbH0uLGcf6WaBKGvt3HMdNcKc4FqvD8OM1zGLTAh7DBVyMG-9d1awRs9XxN815Y1HAc2V4Bh6tFFhKNkWP076ZChn_tscRRHVatubikCS1_YvHBcuFpgxw8I8CW9Crdp2ilfIBmhr2Jx9_1XPd0fAKTr5PyCMSxZK_Sy6Hp56bh1Sg4i4CCX81OG9jUemDGdx2maUXZ1dYvvXP9PvRc16eSB1BLhHqGwAb7hEwvGCScucpaFYxY_gW-xBF4ccW_tp0QzZJc0qbJdQuT6If_o7I6ZSerDGNeBcZjNPLzSB2Bp3QhddrNQ81kOqFsBMbAA0mul4_XjXyb8V3IjUHYBlILInFD-n0Ez758EqpC-ZzyOGo0MifVlqUi_pIPKN2Fya-XK1nJsEpdXSUkFofzxhCvBPzEwbqQdKwTpWRGk-Vn4_ZI2ruovHUa4ETtfnRp_OcKl9FUQSfA0UQwuBfZvgq-MuBhbeVPJmQ05IfO4wvQryFduEn9EO7i6_GTPXmH7XPwhv8V5pxK1DgwOlc3OpgRmyn-YpLuD54LyAa05T2qG1QuGQp8S6TVsFqR-Zat6ezrX6kbQqOhZY0xqHALmrIDTiXk-Yq9UId2I_5JVQZzCHsOqympRPIJFiCigVOPlMzmpJb7PdMEPsn0nxm_L2ANpwHYQy5ybtbDGt6O5-evbegku_DHgxYPekQ5xeK894hbZN7tWvVYPyV2Rf6mVBdrGASpw3JdWrTuW5uCw3TvIF3znHFiu3Hg9azL58yLKXNiuz7TiXNmm6F0bP2qJulI7Tfg02n6NOziBGQrCTijTV8IRSfGMFNxm9TJqGaZx1umdLXQDpwL3mE5nY83xomK9Z4nzBYu0bCqG7E5A-0_9Q7_vn6OyeapW7FkJfFASZw2Q-Xlt7xhHNv4t1tM6FylQBLol1UK5SfLB_7m00]--></g></svg>