<?xml version="1.0" encoding="us-ascii" standalone="no"?><svg xmlns="http://www.w3.org/2000/svg" xmlns:xlink="http://www.w3.org/1999/xlink" contentStyleType="text/css" height="606px" preserveAspectRatio="none" style="width:1562px;height:606px;background:#FFFFFF;" version="1.1" viewBox="0 0 1562 606" width="1562px" zoomAndPan="magnify"><defs/><g><!--cluster UC--><g id="cluster_UC"><rect fill="#ADD8E6" height="267.37" rx="2.5" ry="2.5" style="stroke:#00008B;stroke-width:1.0;" width="330" x="498" y="152.99"/><text fill="#000000" font-family="sans-serif" font-size="14" font-style="italic" lengthAdjust="spacing" textLength="62" x="632" y="168.5252">&#171;System&#187;</text><text fill="#000000" font-family="sans-serif" font-size="14" font-weight="bold" lengthAdjust="spacing" textLength="88" x="619" y="185.0134">UC Platform</text></g><!--entity UCClients--><g id="elem_UCClients"><rect fill="#F1F1F1" height="52.9766" rx="2.5" ry="2.5" style="stroke:#181818;stroke-width:0.5;" width="177" x="521.5" y="211.99"/><text fill="#000000" font-family="sans-serif" font-size="14" lengthAdjust="spacing" textLength="71" x="531.5" y="235.5252">UC Clients</text><text fill="#000000" font-family="sans-serif" font-size="14" lengthAdjust="spacing" textLength="157" x="531.5" y="252.0134">(Web, Mobile, Desktop)</text></g><!--entity CorpUser--><g id="elem_CorpUser"><ellipse cx="610" cy="14" fill="#F1F1F1" rx="8" ry="8" style="stroke:#181818;stroke-width:0.5;"/><path d="M610,22 L610,49 M597,30 L623,30 M610,49 L597,64 M610,49 L623,64 " fill="none" style="stroke:#181818;stroke-width:0.5;"/><text fill="#000000" font-family="sans-serif" font-size="14" lengthAdjust="spacing" textLength="211" x="504.5" y="79.0352">&#1050;&#1086;&#1088;&#1087;&#1086;&#1088;&#1072;&#1090;&#1080;&#1074;&#1085;&#1099;&#1081; &#1087;&#1086;&#1083;&#1100;&#1079;&#1086;&#1074;&#1072;&#1090;&#1077;&#1083;&#1100;</text></g><!--entity Admin--><g id="elem_Admin"><ellipse cx="920" cy="208.73" fill="#F1F1F1" rx="8" ry="8" style="stroke:#181818;stroke-width:0.5;"/><path d="M920,216.73 L920,243.73 M907,224.73 L933,224.73 M920,243.73 L907,258.73 M920,243.73 L933,258.73 " fill="none" style="stroke:#181818;stroke-width:0.5;"/><text fill="#000000" font-family="sans-serif" font-size="14" lengthAdjust="spacing" textLength="136" x="852" y="273.7652">&#1040;&#1076;&#1084;&#1080;&#1085;&#1080;&#1089;&#1090;&#1088;&#1072;&#1090;&#1086;&#1088; UC</text></g><!--entity ExternalCaller--><g id="elem_ExternalCaller"><ellipse cx="69" cy="382.25" fill="#F1F1F1" rx="8" ry="8" style="stroke:#181818;stroke-width:0.5;"/><path d="M69,390.25 L69,417.25 M56,398.25 L82,398.25 M69,417.25 L56,432.25 M69,417.25 L82,432.25 " fill="none" style="stroke:#181818;stroke-width:0.5;"/><text fill="#000000" font-family="sans-serif" font-size="14" lengthAdjust="spacing" textLength="126" x="6" y="447.2852">&#1042;&#1085;&#1077;&#1096;&#1085;&#1080;&#1081; &#1072;&#1073;&#1086;&#1085;&#1077;&#1085;&#1090;</text></g><!--entity IdP--><g id="elem_IdP"><rect fill="#F0FFF0" height="52.9766" rx="2.5" ry="2.5" style="stroke:#006400;stroke-width:0.5;" width="168" x="1367" y="547.27"/><text fill="#000000" font-family="sans-serif" font-size="14" font-style="italic" lengthAdjust="spacing" textLength="119" x="1391.5" y="570.8052">&#171;ExternalSystem&#187;</text><text fill="#000000" font-family="sans-serif" font-size="14" lengthAdjust="spacing" textLength="148" x="1377" y="587.2934">Identity Provider / IdP</text></g><!--entity CRM--><g id="elem_CRM"><rect fill="#F0FFF0" height="52.9766" rx="2.5" ry="2.5" style="stroke:#006400;stroke-width:0.5;" width="139" x="576.5" y="547.27"/><text fill="#000000" font-family="sans-serif" font-size="14" font-style="italic" lengthAdjust="spacing" textLength="119" x="586.5" y="570.8052">&#171;ExternalSystem&#187;</text><text fill="#000000" font-family="sans-serif" font-size="14" lengthAdjust="spacing" textLength="71" x="610.5" y="587.2934">CRM / ERP</text></g><!--entity PSTN--><g id="elem_PSTN"><rect fill="#F0FFF0" height="52.9766" rx="2.5" ry="2.5" style="stroke:#006400;stroke-width:0.5;" width="203" x="188.5" y="547.27"/><text fill="#000000" font-family="sans-serif" font-size="14" font-style="italic" lengthAdjust="spacing" textLength="119" x="230.5" y="570.8052">&#171;ExternalSystem&#187;</text><text fill="#000000" font-family="sans-serif" font-size="14" lengthAdjust="spacing" textLength="183" x="198.5" y="587.2934">PSTN / &#1054;&#1087;&#1077;&#1088;&#1072;&#1090;&#1086;&#1088;&#1089;&#1082;&#1072;&#1103; &#1089;&#1077;&#1090;&#1100;</text></g><!--entity ESMSGW--><g id="elem_ESMSGW"><rect fill="#F0FFF0" height="52.9766" rx="2.5" ry="2.5" style="stroke:#006400;stroke-width:0.5;" width="153" x="914.5" y="547.27"/><text fill="#000000" font-family="sans-serif" font-size="14" font-style="italic" lengthAdjust="spacing" textLength="119" x="931.5" y="570.8052">&#171;ExternalSystem&#187;</text><text fill="#000000" font-family="sans-serif" font-size="14" lengthAdjust="spacing" textLength="133" x="924.5" y="587.2934">Email/SMS Gateway</text></g><!--entity Monitoring--><g id="elem_Monitoring"><rect fill="#F0FFF0" height="52.9766" rx="2.5" ry="2.5" style="stroke:#006400;stroke-width:0.5;" width="215" x="1117.5" y="547.27"/><text fill="#000000" font-family="sans-serif" font-size="14" font-style="italic" lengthAdjust="spacing" textLength="119" x="1165.5" y="570.8052">&#171;ExternalSystem&#187;</text><text fill="#000000" font-family="sans-serif" font-size="14" lengthAdjust="spacing" textLength="195" x="1127.5" y="587.2934">&#1057;&#1080;&#1089;&#1090;&#1077;&#1084;&#1099; &#1084;&#1086;&#1085;&#1080;&#1090;&#1086;&#1088;&#1080;&#1085;&#1075;&#1072; &#1080; &#1048;&#1041;</text></g><g id="elem_GMN22"><path d="M853,368.72 L853,455.2727 L1149,455.2727 L1149,378.72 L1139,368.72 L853,368.72 " fill="#FEFFDD" style="stroke:#181818;stroke-width:0.5;"/><path d="M1139,368.72 L1139,378.72 L1149,378.72 L1139,368.72 " fill="#FEFFDD" style="stroke:#181818;stroke-width:1.0;"/><text fill="#000000" font-family="sans-serif" font-size="13" lengthAdjust="spacing" textLength="268" x="859" y="386.2884">&#1043;&#1088;&#1072;&#1085;&#1080;&#1094;&#1072; &#1089;&#1080;&#1089;&#1090;&#1077;&#1084;&#1099; &#171;UC Platform&#187; &#1074;&#1082;&#1083;&#1102;&#1095;&#1072;&#1077;&#1090;</text><text fill="#000000" font-family="sans-serif" font-size="13" lengthAdjust="spacing" textLength="239" x="859" y="401.5989">&#1084;&#1080;&#1082;&#1088;&#1086;&#1089;&#1077;&#1088;&#1074;&#1080;&#1089;&#1099; &#1089;&#1080;&#1075;&#1085;&#1072;&#1083;&#1080;&#1079;&#1072;&#1094;&#1080;&#1080;, &#1084;&#1077;&#1076;&#1080;&#1072;,</text><text fill="#000000" font-family="sans-serif" font-size="13" lengthAdjust="spacing" textLength="245" x="859" y="416.9095">presence, &#1089;&#1086;&#1086;&#1073;&#1097;&#1077;&#1085;&#1080;&#1081;, &#1073;&#1080;&#1083;&#1083;&#1080;&#1085;&#1075;&#1072; &#1080; &#1090;.&#1076;.</text><text fill="#000000" font-family="sans-serif" font-size="13" lengthAdjust="spacing" textLength="275" x="859" y="432.22">&#1042;&#1085;&#1077;&#1096;&#1085;&#1080;&#1077; &#1089;&#1080;&#1089;&#1090;&#1077;&#1084;&#1099; &#1087;&#1086;&#1082;&#1072;&#1079;&#1072;&#1085;&#1099; &#1082;&#1072;&#1082; &#1086;&#1090;&#1076;&#1077;&#1083;&#1100;&#1085;&#1099;&#1077;</text><text fill="#000000" font-family="sans-serif" font-size="13" lengthAdjust="spacing" textLength="148" x="859" y="447.5305">&#1082;&#1086;&#1085;&#1090;&#1077;&#1082;&#1089;&#1090;&#1099; &#1080;&#1085;&#1090;&#1077;&#1075;&#1088;&#1072;&#1094;&#1080;&#1080;.</text></g><!--link CorpUser to UCClients--><g id="link_CorpUser_UCClients"><path d="M610,82.36 C610,120.49 610,172.44 610,205.66 " fill="none" id="CorpUser-to-UCClients" style="stroke:#181818;stroke-width:1.0;"/><polygon fill="#181818" points="610,211.66,614,202.66,610,206.66,606,202.66,610,211.66" style="stroke:#181818;stroke-width:1.0;"/><text fill="#000000" font-family="sans-serif" font-size="13" lengthAdjust="spacing" textLength="227" x="611" y="125.5584">&#1048;&#1089;&#1087;&#1086;&#1083;&#1100;&#1079;&#1086;&#1074;&#1072;&#1085;&#1080;&#1077; &#1075;&#1086;&#1083;&#1086;&#1089;&#1072;/&#1074;&#1080;&#1076;&#1077;&#1086;/&#1095;&#1072;&#1090;&#1072;</text></g><!--link Admin to UC--><g id="link_Admin_UC"><path d="M893.02,277.15 C875.58,302.38 853.05,336.72 836,368.72 C833.675,373.085 831.4206,377.8156 829.3389,382.4788 C829.0787,383.0616 828.8212,383.6435 828.5666,384.2234 C828.4392,384.5134 828.3127,384.8029 828.1868,385.0918 C828.1554,385.164 830.5159,379.7336 830.4846,379.8058 " fill="none" id="Admin-to-UC" style="stroke:#181818;stroke-width:1.0;"/><polygon fill="#181818" points="828.0926,385.3084,835.3489,378.6491,830.0859,380.7229,828.0121,375.4598,828.0926,385.3084" style="stroke:#181818;stroke-width:1.0;"/><text fill="#000000" font-family="sans-serif" font-size="13" lengthAdjust="spacing" textLength="305" x="873.84" y="327.7884">&#1040;&#1076;&#1084;&#1080;&#1085;&#1080;&#1089;&#1090;&#1088;&#1080;&#1088;&#1086;&#1074;&#1072;&#1085;&#1080;&#1077; &#1080; &#1091;&#1087;&#1088;&#1072;&#1074;&#1083;&#1077;&#1085;&#1080;&#1077; &#1087;&#1086;&#1083;&#1080;&#1090;&#1080;&#1082;&#1072;&#1084;&#1080;</text></g><!--link ExternalCaller to PSTN--><g id="link_ExternalCaller_PSTN"><path d="M56.94,450.69 C52.48,472.34 51.55,498.8 66,517.27 C81.62,537.23 130.5764,549.9955 182.1064,558.8355 " fill="none" id="ExternalCaller-to-PSTN" style="stroke:#181818;stroke-width:1.0;"/><polygon fill="#181818" points="188.02,559.85,179.8259,554.3859,183.092,559.0046,178.4733,562.2707,188.02,559.85" style="stroke:#181818;stroke-width:1.0;"/><text fill="#000000" font-family="sans-serif" font-size="13" lengthAdjust="spacing" textLength="179" x="67" y="506.3384">&#1047;&#1074;&#1086;&#1085;&#1082;&#1080; &#1074; &#1089;&#1090;&#1086;&#1088;&#1086;&#1085;&#1091; &#1082;&#1086;&#1084;&#1087;&#1072;&#1085;&#1080;&#1080;</text></g><!--link UCClients to UC--><g id="link_UCClients_UC"><path d="M585.34,265.32 C568.22,286.47 551.25,316.44 568,338.72 C602.21,384.22 805.3647,409.4493 811.8847,410.2493 " fill="none" id="UCClients-to-UC" style="stroke:#181818;stroke-width:1.0;"/><polygon fill="#181818" points="817.84,410.98,809.3941,405.9137,812.8772,410.3711,808.4198,413.8542,817.84,410.98" style="stroke:#181818;stroke-width:1.0;"/><text fill="#000000" font-family="sans-serif" font-size="13" lengthAdjust="spacing" textLength="224" x="595.5" y="320.2884">WebRTC / HTTPS (REST, WebSocket)</text><text fill="#000000" font-family="sans-serif" font-size="13" lengthAdjust="spacing" textLength="277" x="569" y="335.5989">&#1056;&#1077;&#1075;&#1080;&#1089;&#1090;&#1088;&#1072;&#1094;&#1080;&#1103;, &#1089;&#1080;&#1075;&#1085;&#1072;&#1083;&#1099; &#1074;&#1099;&#1079;&#1086;&#1074;&#1086;&#1074;, &#1089;&#1086;&#1086;&#1073;&#1097;&#1077;&#1085;&#1080;&#1103;</text></g><!--link UC to IdP--><g id="link_UC_IdP"><path d="M818.8012,420.3884 C818.8176,420.4961 818.8344,420.6047 818.8515,420.7141 C818.8857,420.9329 818.9213,421.1551 818.9582,421.3805 C819.1059,422.2821 819.2756,423.2353 819.4704,424.2291 C819.8601,426.2166 820.3503,428.3666 820.9663,430.5913 C823.43,439.49 827.905,449.585 836,455.27 C931.79,522.6 1254.95,437.86 1362,485.27 C1391.72,498.43 1413.498,521.4572 1429.478,542.1972 " fill="none" id="UC-to-IdP" style="stroke:#181818;stroke-width:1.0;"/><polygon fill="#181818" points="1433.14,546.95,1430.8155,537.3794,1430.0883,542.9893,1424.4784,542.2621,1433.14,546.95" style="stroke:#181818;stroke-width:1.0;"/><text fill="#000000" font-family="sans-serif" font-size="13" lengthAdjust="spacing" textLength="82" x="1439.52" y="498.8384">OIDC / SAML</text><text fill="#000000" font-family="sans-serif" font-size="13" lengthAdjust="spacing" textLength="147" x="1407.02" y="514.1489">&#1040;&#1091;&#1090;&#1077;&#1085;&#1090;&#1080;&#1092;&#1080;&#1082;&#1072;&#1094;&#1080;&#1103; &#1080; SSO</text></g><!--link UC to CRM--><g id="link_UC_CRM"><path d="M759.1851,420.3693 C758.9046,420.4282 758.6236,420.4876 758.3421,420.5475 C757.7791,420.6672 757.2142,420.7889 756.6474,420.9124 C755.5138,421.1595 754.3728,421.4143 753.2251,421.6769 C750.9297,422.2023 748.6077,422.7594 746.265,423.35 C708.7825,432.8 666.03,450.845 643,485.27 C631,503.21 631.8726,522.3279 636.2426,540.9979 " fill="none" id="UC-to-CRM" style="stroke:#181818;stroke-width:1.0;"/><polygon fill="#181818" points="637.61,546.84,639.4536,537.1652,636.4705,541.9716,631.6641,538.9885,637.61,546.84" style="stroke:#181818;stroke-width:1.0;"/><text fill="#000000" font-family="sans-serif" font-size="13" lengthAdjust="spacing" textLength="103" x="744" y="498.8384">REST / Webhook</text><text fill="#000000" font-family="sans-serif" font-size="13" lengthAdjust="spacing" textLength="303" x="644" y="514.1489">&#1048;&#1085;&#1090;&#1077;&#1075;&#1088;&#1072;&#1094;&#1080;&#1103; &#1089; &#1082;&#1072;&#1088;&#1090;&#1086;&#1095;&#1082;&#1086;&#1081; &#1082;&#1083;&#1080;&#1077;&#1085;&#1090;&#1072;, &#1083;&#1086;&#1075;&#1080;&#1088;&#1086;&#1074;&#1072;&#1085;&#1080;&#1077;</text></g><!--link UC to ESMSGW--><g id="link_UC_ESMSGW"><path d="M819.1089,420.3821 C819.1493,420.593 819.191,420.8073 819.2342,421.0247 C819.4066,421.8947 819.6012,422.8161 819.82,423.7793 C820.2577,425.7055 820.7928,427.7984 821.4437,429.9788 C824.0475,438.7 828.505,448.82 836,455.27 C876.36,490.01 911.35,450.88 952,485.27 C970.53,500.96 979.0648,521.4124 984.3048,541.0724 " fill="none" id="UC-to-ESMSGW" style="stroke:#181818;stroke-width:1.0;"/><polygon fill="#181818" points="985.85,546.87,987.3972,537.1434,984.5623,542.0387,979.6671,539.2038,985.85,546.87" style="stroke:#181818;stroke-width:1.0;"/><text fill="#000000" font-family="sans-serif" font-size="13" lengthAdjust="spacing" textLength="88" x="1027.76" y="498.8384">SMTP / HTTPS</text><text fill="#000000" font-family="sans-serif" font-size="13" lengthAdjust="spacing" textLength="192" x="975.76" y="514.1489">Email/SMS/Push &#1091;&#1074;&#1077;&#1076;&#1086;&#1084;&#1083;&#1077;&#1085;&#1080;&#1103;</text></g><!--link UC to Monitoring--><g id="link_UC_Monitoring"><path d="M818.8632,420.4928 C818.8719,420.5467 818.8806,420.6009 818.8894,420.6553 C818.9245,420.8729 818.961,421.0938 818.9989,421.318 C819.1503,422.2147 819.3238,423.1629 819.5223,424.1519 C819.9192,426.1299 820.4163,428.2709 821.0375,430.4888 C823.5225,439.36 827.995,449.46 836,455.27 C897.56,499.97 1113.3,443.69 1177,485.27 C1198.62,499.38 1209.4176,521.0229 1216.2676,541.3929 " fill="none" id="UC-to-Monitoring" style="stroke:#181818;stroke-width:1.0;"/><polygon fill="#181818" points="1218.18,547.08,1219.1027,537.2745,1216.5863,542.3408,1211.52,539.8244,1218.18,547.08" style="stroke:#181818;stroke-width:1.0;"/><text fill="#000000" font-family="sans-serif" font-size="13" lengthAdjust="spacing" textLength="147" x="1206.09" y="498.8384">Metrics / Logs / Traces</text><text fill="#000000" font-family="sans-serif" font-size="13" lengthAdjust="spacing" textLength="138" x="1210.59" y="514.1489">&#1053;&#1072;&#1073;&#1083;&#1102;&#1076;&#1072;&#1077;&#1084;&#1086;&#1089;&#1090;&#1100; &#1080; &#1048;&#1041;</text></g><!--link UC to PSTN--><g id="link_UC_PSTN"><path d="M706.7454,420.4263 C705.9212,420.4878 705.094,420.5496 704.2637,420.6118 C702.6032,420.7362 700.9307,420.8621 699.2468,420.9894 C685.775,422.0079 671.5665,423.1197 656.8464,424.3222 C627.4062,426.7274 595.9197,429.4959 564.1888,432.6088 C437.265,445.06 306.43,463.02 287,485.27 C272.51,501.87 273.8207,521.9489 279.0507,541.2489 " fill="none" id="UC-to-PSTN" style="stroke:#181818;stroke-width:1.0;"/><polygon fill="#181818" points="280.62,547.04,282.1268,537.3071,279.3122,542.2141,274.4053,539.3995,280.62,547.04" style="stroke:#181818;stroke-width:1.0;"/><text fill="#000000" font-family="sans-serif" font-size="13" lengthAdjust="spacing" textLength="136" x="288" y="498.8384">SIP-&#1090;&#1088;&#1072;&#1085;&#1082;&#1080; &#1095;&#1077;&#1088;&#1077;&#1079; SBC</text><text fill="#000000" font-family="sans-serif" font-size="13" lengthAdjust="spacing" textLength="125" x="293.5" y="514.1489">&#1048;&#1089;&#1093;&#1086;&#1076;&#1103;&#1097;&#1080;&#1077; &#1074;&#1099;&#1079;&#1086;&#1074;&#1099;</text></g><!--link PSTN to UC--><g id="link_PSTN_UC"><path d="M359.62,546.82 C382.01,537.99 406.77,527.7 429,517.27 C456.01,504.61 460.04,495.68 488,485.27 C557.26,459.495 638.285,441.585 702.715,430.0413 C718.8225,427.1553 733.8928,424.6673 747.4828,422.5537 C750.8803,422.0253 754.1853,421.5203 757.3908,421.0384 C758.1922,420.9179 758.9874,420.7988 759.7762,420.6812 C760.1707,420.6224 754.6286,421.4451 755.0198,421.3871 " fill="none" id="PSTN-to-UC" style="stroke:#181818;stroke-width:1.0;"/><polygon fill="#181818" points="760.9547,420.5059,751.4649,417.871,756.009,421.2402,752.6398,425.7843,760.9547,420.5059" style="stroke:#181818;stroke-width:1.0;"/><text fill="#000000" font-family="sans-serif" font-size="13" lengthAdjust="spacing" textLength="136" x="489" y="498.8384">SIP-&#1090;&#1088;&#1072;&#1085;&#1082;&#1080; &#1095;&#1077;&#1088;&#1077;&#1079; SBC</text><text fill="#000000" font-family="sans-serif" font-size="13" lengthAdjust="spacing" textLength="115" x="499.5" y="514.1489">&#1042;&#1093;&#1086;&#1076;&#1103;&#1097;&#1080;&#1077; &#1074;&#1099;&#1079;&#1086;&#1074;&#1099;</text></g><!--link UC to GMN22--><g id="link_UC_GMN22"><path d="M828.0934,412 C828.1375,412 828.1815,412 828.2256,412 C828.5779,412 828.9303,412 829.2827,412 C829.9874,412 830.6921,412 831.3968,412 C832.8063,412 834.2156,412 835.625,412 C841.2625,412 846.9,412 852.54,412 " fill="none" id="UC-GMN22" style="stroke:#181818;stroke-width:1.0;stroke-dasharray:7.0,7.0;"/></g><!--SRC=[ZLN1Rjj64BtpAmQwD05awv9J41Y8AS4nO3M2AICNNnXfBHEYbWP9Dp6A0hRSDYqSn6bwQ52WGNhkHLOic9OY6SWNxFvHtYmbYfBXjZ1aKhCpRsRVUxlwXkm7P0So5YzZAdjkAtGxj1U4j2EzFKyqiTRf74gluSPU82Eg-MwCvOvbHMrF7hYS7ef6xCgMB-XxYsZTRRHRON0ectRW1-6ZHyvH58lEsXfjUQtzUDq_59mLX4qHBcUKtR1j4dxu__2Lbx48fUjd84y2AOxAuiLobrk9t6qZ54AYdUKsOkoweFvK4tsiRip_dkwgHFNLM9-fQ-AW6kdNwWhFlbaSyFS2kH5e2Wzs8X5cE6_LfVgCwh5Az8dkJj60IZksgNZSx7WoIt-7n87-XTEvLKzTe0b2wDqrwRFfRTVtqSQQirBOiJDP2fHZ4rLOOj8MastV4pAETkMzP-9vaQh1SyyNHIgBg1q71_SBQU4qYxd9bMys4VJY8wg5mNSUoAKIRJPhtFSMlu31KhxQtguYlx9zPpuIylarf_uj2jG7S3-OKwXFr13lvuIN0RXzVHSSr-VnAXtNyqjErQ4DDnOltAEx2Yl8sNYMBrL_fq92ai_wZA3jn6Xh1Z8wVr8zKWcfz-gtks2hWVIWjoTRbZLp3AsihCtffeS0mBQMl6PyCI3qG1WTJrIlX7W2amtKfAHV6MfwbZ7L596XRhimmMS1CY5zgcwON4H7xBWqRYOm6qoOROQn5are-XY9qEaFL3CZGwQWJuQgYUarrgU4y0G8DzEsYMNDTvnD2pTkrste_QHUhpbqRxlYr8iSTO96MyJtTwNwYFa-vKxKptW_Bx8F4iJ7W1-nE7qSs9GvVCpo17yN-jTqU_eSxKrV-1EDdswMkQtpkBg57c_rgP5vp5lNFwRRJpinMuxpT5RDTdv8F2QgCUT-4BG1yDwKOj3vY1Y13ConeUMLuUEQGoDcsnJqYiJQclqjQ3HhbveI7PrglJQZQLTcfYxL3gDzLhCFn4j3-6XvmtC70gSguj1hH83Q2bhyg8TkG-1YK7-P6sYatm2dnvPdp_59cpbyXZULtzcihQIIJ2s0BVA17QWhSjPj9WNrFs6cItqE6Op3CfNqcMLmCYVyDzoxVmEpP10B2lddXe8zGE8ALBzFuH8eqZEEoHtdB__aBj4l8y2nDFeD7oo-OXY0pz6GbJ6tpZ4VFo2SBPWFRrUfvYefSWaBaK1Q01o48XAo8MxxKLqZzmBFaK78hXBTNLMNgzmx__CmM1xU75K-ebUyGGxmbo5Xqgwv8FWYuT-m0KCDpP7asg6H5Ed9ic5Lice9sIJcqVeA]--></g></svg>