<?xml version="1.0" encoding="us-ascii" standalone="no"?><svg xmlns="http://www.w3.org/2000/svg" xmlns:xlink="http://www.w3.org/1999/xlink" contentStyleType="text/css" height="660px" preserveAspectRatio="none" style="width:1569px;height:660px;background:#FFFFFF;" version="1.1" viewBox="0 0 1569 660" width="1569px" zoomAndPan="magnify"><defs/><g><line style="stroke:#181818;stroke-width:0.5;stroke-dasharray:5.0,5.0;" x1="87" x2="87" y1="36.4883" y2="427.5254"/><line style="stroke:#A80036;stroke-width:1.0;stroke-dasharray:1.0,4.0;" x1="87" x2="87" y1="427.5254" y2="468.4805"/><line style="stroke:#181818;stroke-width:0.5;stroke-dasharray:5.0,5.0;" x1="87" x2="87" y1="468.4805" y2="625.0332"/><line style="stroke:#181818;stroke-width:0.5;stroke-dasharray:5.0,5.0;" x1="295.5" x2="295.5" y1="36.4883" y2="427.5254"/><line style="stroke:#A80036;stroke-width:1.0;stroke-dasharray:1.0,4.0;" x1="295.5" x2="295.5" y1="427.5254" y2="468.4805"/><line style="stroke:#181818;stroke-width:0.5;stroke-dasharray:5.0,5.0;" x1="295.5" x2="295.5" y1="468.4805" y2="625.0332"/><line style="stroke:#181818;stroke-width:0.5;stroke-dasharray:5.0,5.0;" x1="464.5" x2="464.5" y1="36.4883" y2="427.5254"/><line style="stroke:#A80036;stroke-width:1.0;stroke-dasharray:1.0,4.0;" x1="464.5" x2="464.5" y1="427.5254" y2="468.4805"/><line style="stroke:#181818;stroke-width:0.5;stroke-dasharray:5.0,5.0;" x1="464.5" x2="464.5" y1="468.4805" y2="625.0332"/><line style="stroke:#181818;stroke-width:0.5;stroke-dasharray:5.0,5.0;" x1="654.5" x2="654.5" y1="36.4883" y2="427.5254"/><line style="stroke:#A80036;stroke-width:1.0;stroke-dasharray:1.0,4.0;" x1="654.5" x2="654.5" y1="427.5254" y2="468.4805"/><line style="stroke:#181818;stroke-width:0.5;stroke-dasharray:5.0,5.0;" x1="654.5" x2="654.5" y1="468.4805" y2="625.0332"/><line style="stroke:#181818;stroke-width:0.5;stroke-dasharray:5.0,5.0;" x1="884" x2="884" y1="36.4883" y2="427.5254"/><line style="stroke:#A80036;stroke-width:1.0;stroke-dasharray:1.0,4.0;" x1="884" x2="884" y1="427.5254" y2="468.4805"/><line style="stroke:#181818;stroke-width:0.5;stroke-dasharray:5.0,5.0;" x1="884" x2="884" y1="468.4805" y2="625.0332"/><line style="stroke:#181818;stroke-width:0.5;stroke-dasharray:5.0,5.0;" x1="1024" x2="1024" y1="36.4883" y2="427.5254"/><line style="stroke:#A80036;stroke-width:1.0;stroke-dasharray:1.0,4.0;" x1="1024" x2="1024" y1="427.5254" y2="468.4805"/><line style="stroke:#181818;stroke-width:0.5;stroke-dasharray:5.0,5.0;" x1="1024" x2="1024" y1="468.4805" y2="625.0332"/><line style="stroke:#181818;stroke-width:0.5;stroke-dasharray:5.0,5.0;" x1="1254" x2="1254" y1="36.4883" y2="427.5254"/><line style="stroke:#A80036;stroke-width:1.0;stroke-dasharray:1.0,4.0;" x1="1254" x2="1254" y1="427.5254" y2="468.4805"/><line style="stroke:#181818;stroke-width:0.5;stroke-dasharray:5.0,5.0;" x1="1254" x2="1254" y1="468.4805" y2="625.0332"/><line style="stroke:#181818;stroke-width:0.5;stroke-dasharray:5.0,5.0;" x1="1383" x2="1383" y1="36.4883" y2="427.5254"/><line style="stroke:#A80036;stroke-width:1.0;stroke-dasharray:1.0,4.0;" x1="1383" x2="1383" y1="427.5254" y2="468.4805"/><line style="stroke:#181818;stroke-width:0.5;stroke-dasharray:5.0,5.0;" x1="1383" x2="1383" y1="468.4805" y2="625.0332"/><line style="stroke:#181818;stroke-width:0.5;stroke-dasharray:5.0,5.0;" x1="1513" x2="1513" y1="36.4883" y2="427.5254"/><line style="stroke:#A80036;stroke-width:1.0;stroke-dasharray:1.0,4.0;" x1="1513" x2="1513" y1="427.5254" y2="468.4805"/><line style="stroke:#181818;stroke-width:0.5;stroke-dasharray:5.0,5.0;" x1="1513" x2="1513" y1="468.4805" y2="625.0332"/><rect fill="#E2E2F0" height="30.4883" rx="2.5" ry="2.5" style="stroke:#181818;stroke-width:0.5;" width="165" x="5" y="5"/><text fill="#000000" font-family="sans-serif" font-size="14" lengthAdjust="spacing" textLength="151" x="12" y="25.5352">PSTN / External Caller</text><rect fill="#E2E2F0" height="30.4883" rx="2.5" ry="2.5" style="stroke:#181818;stroke-width:0.5;" width="165" x="5" y="624.0332"/><text fill="#000000" font-family="sans-serif" font-size="14" lengthAdjust="spacing" textLength="151" x="12" y="644.5684">PSTN / External Caller</text><rect fill="#E2E2F0" height="30.4883" rx="2.5" ry="2.5" style="stroke:#181818;stroke-width:0.5;" width="106" x="242.5" y="5"/><text fill="#000000" font-family="sans-serif" font-size="14" lengthAdjust="spacing" textLength="92" x="249.5" y="25.5352">Operator SBC</text><rect fill="#E2E2F0" height="30.4883" rx="2.5" ry="2.5" style="stroke:#181818;stroke-width:0.5;" width="106" x="242.5" y="624.0332"/><text fill="#000000" font-family="sans-serif" font-size="14" lengthAdjust="spacing" textLength="92" x="249.5" y="644.5684">Operator SBC</text><rect fill="#E2E2F0" height="30.4883" rx="2.5" ry="2.5" style="stroke:#181818;stroke-width:0.5;" width="136" x="396.5" y="5"/><text fill="#000000" font-family="sans-serif" font-size="14" lengthAdjust="spacing" textLength="122" x="403.5" y="25.5352">SIP Gateway / SBC</text><rect fill="#E2E2F0" height="30.4883" rx="2.5" ry="2.5" style="stroke:#181818;stroke-width:0.5;" width="136" x="396.5" y="624.0332"/><text fill="#000000" font-family="sans-serif" font-size="14" lengthAdjust="spacing" textLength="122" x="403.5" y="644.5684">SIP Gateway / SBC</text><rect fill="#E2E2F0" height="30.4883" rx="2.5" ry="2.5" style="stroke:#181818;stroke-width:0.5;" width="148" x="580.5" y="5"/><text fill="#000000" font-family="sans-serif" font-size="14" lengthAdjust="spacing" textLength="134" x="587.5" y="25.5352">Call Control Service</text><rect fill="#E2E2F0" height="30.4883" rx="2.5" ry="2.5" style="stroke:#181818;stroke-width:0.5;" width="148" x="580.5" y="624.0332"/><text fill="#000000" font-family="sans-serif" font-size="14" lengthAdjust="spacing" textLength="134" x="587.5" y="644.5684">Call Control Service</text><rect fill="#E2E2F0" height="30.4883" rx="2.5" ry="2.5" style="stroke:#181818;stroke-width:0.5;" width="127" x="821" y="5"/><text fill="#000000" font-family="sans-serif" font-size="14" lengthAdjust="spacing" textLength="113" x="828" y="25.5352">Presence Service</text><rect fill="#E2E2F0" height="30.4883" rx="2.5" ry="2.5" style="stroke:#181818;stroke-width:0.5;" width="127" x="821" y="624.0332"/><text fill="#000000" font-family="sans-serif" font-size="14" lengthAdjust="spacing" textLength="113" x="828" y="644.5684">Presence Service</text><rect fill="#E2E2F0" height="30.4883" rx="2.5" ry="2.5" style="stroke:#181818;stroke-width:0.5;" width="133" x="958" y="5"/><text fill="#000000" font-family="sans-serif" font-size="14" lengthAdjust="spacing" textLength="119" x="965" y="25.5352">UC Client (Agent)</text><rect fill="#E2E2F0" height="30.4883" rx="2.5" ry="2.5" style="stroke:#181818;stroke-width:0.5;" width="133" x="958" y="624.0332"/><text fill="#000000" font-family="sans-serif" font-size="14" lengthAdjust="spacing" textLength="119" x="965" y="644.5684">UC Client (Agent)</text><rect fill="#E2E2F0" height="30.4883" rx="2.5" ry="2.5" style="stroke:#181818;stroke-width:0.5;" width="97" x="1206" y="5"/><text fill="#000000" font-family="sans-serif" font-size="14" lengthAdjust="spacing" textLength="83" x="1213" y="25.5352">API Gateway</text><rect fill="#E2E2F0" height="30.4883" rx="2.5" ry="2.5" style="stroke:#181818;stroke-width:0.5;" width="97" x="1206" y="624.0332"/><text fill="#000000" font-family="sans-serif" font-size="14" lengthAdjust="spacing" textLength="83" x="1213" y="644.5684">API Gateway</text><rect fill="#E2E2F0" height="30.4883" rx="2.5" ry="2.5" style="stroke:#181818;stroke-width:0.5;" width="140" x="1313" y="5"/><text fill="#000000" font-family="sans-serif" font-size="14" lengthAdjust="spacing" textLength="126" x="1320" y="25.5352">Media / Recording</text><rect fill="#E2E2F0" height="30.4883" rx="2.5" ry="2.5" style="stroke:#181818;stroke-width:0.5;" width="140" x="1313" y="624.0332"/><text fill="#000000" font-family="sans-serif" font-size="14" lengthAdjust="spacing" textLength="126" x="1320" y="644.5684">Media / Recording</text><rect fill="#E2E2F0" height="30.4883" rx="2.5" ry="2.5" style="stroke:#181818;stroke-width:0.5;" width="100" x="1463" y="5"/><text fill="#000000" font-family="sans-serif" font-size="14" lengthAdjust="spacing" textLength="86" x="1470" y="25.5352">Billing / CDR</text><rect fill="#E2E2F0" height="30.4883" rx="2.5" ry="2.5" style="stroke:#181818;stroke-width:0.5;" width="100" x="1463" y="624.0332"/><text fill="#000000" font-family="sans-serif" font-size="14" lengthAdjust="spacing" textLength="86" x="1470" y="644.5684">Billing / CDR</text><polygon fill="#181818" points="283.5,63.7988,293.5,67.7988,283.5,71.7988,287.5,67.7988" style="stroke:#181818;stroke-width:1.0;"/><line style="stroke:#181818;stroke-width:1.0;" x1="87.5" x2="289.5" y1="67.7988" y2="67.7988"/><text fill="#000000" font-family="sans-serif" font-size="13" lengthAdjust="spacing" textLength="184" x="94.5" y="63.0566">SIP INVITE (company number)</text><polygon fill="#181818" points="452.5,93.1094,462.5,97.1094,452.5,101.1094,456.5,97.1094" style="stroke:#181818;stroke-width:1.0;"/><line style="stroke:#181818;stroke-width:1.0;" x1="295.5" x2="458.5" y1="97.1094" y2="97.1094"/><text fill="#000000" font-family="sans-serif" font-size="13" lengthAdjust="spacing" textLength="145" x="302.5" y="92.3672">SIP INVITE (normalized)</text><polygon fill="#181818" points="642.5,122.4199,652.5,126.4199,642.5,130.4199,646.5,126.4199" style="stroke:#181818;stroke-width:1.0;"/><line style="stroke:#181818;stroke-width:1.0;" x1="464.5" x2="648.5" y1="126.4199" y2="126.4199"/><text fill="#000000" font-family="sans-serif" font-size="13" lengthAdjust="spacing" textLength="166" x="471.5" y="121.6777">NewIncomingCall(number)</text><polygon fill="#181818" points="872.5,151.7305,882.5,155.7305,872.5,159.7305,876.5,155.7305" style="stroke:#181818;stroke-width:1.0;"/><line style="stroke:#181818;stroke-width:1.0;" x1="654.5" x2="878.5" y1="155.7305" y2="155.7305"/><text fill="#000000" font-family="sans-serif" font-size="13" lengthAdjust="spacing" textLength="206" x="661.5" y="150.9883">Query available agents for queue</text><polygon fill="#181818" points="665.5,181.041,655.5,185.041,665.5,189.041,661.5,185.041" style="stroke:#181818;stroke-width:1.0;"/><line style="stroke:#181818;stroke-width:1.0;stroke-dasharray:2.0,2.0;" x1="659.5" x2="883.5" y1="185.041" y2="185.041"/><text fill="#000000" font-family="sans-serif" font-size="13" lengthAdjust="spacing" textLength="145" x="671.5" y="180.2988">List of available agents</text><polygon fill="#181818" points="1242.5,210.3516,1252.5,214.3516,1242.5,218.3516,1246.5,214.3516" style="stroke:#181818;stroke-width:1.0;"/><line style="stroke:#181818;stroke-width:1.0;" x1="654.5" x2="1248.5" y1="214.3516" y2="214.3516"/><text fill="#000000" font-family="sans-serif" font-size="13" lengthAdjust="spacing" textLength="210" x="661.5" y="209.6094">Notify agent via push/WebSocket</text><polygon fill="#181818" points="1035.5,239.6621,1025.5,243.6621,1035.5,247.6621,1031.5,243.6621" style="stroke:#181818;stroke-width:1.0;"/><line style="stroke:#181818;stroke-width:1.0;" x1="1029.5" x2="1253.5" y1="243.6621" y2="243.6621"/><text fill="#000000" font-family="sans-serif" font-size="13" lengthAdjust="spacing" textLength="206" x="1041.5" y="238.9199">Incoming call (queue, caller info)</text><polygon fill="#181818" points="1242.5,268.9727,1252.5,272.9727,1242.5,276.9727,1246.5,272.9727" style="stroke:#181818;stroke-width:1.0;"/><line style="stroke:#181818;stroke-width:1.0;" x1="1024.5" x2="1248.5" y1="272.9727" y2="272.9727"/><text fill="#000000" font-family="sans-serif" font-size="13" lengthAdjust="spacing" textLength="69" x="1031.5" y="268.2305">Accept call</text><polygon fill="#181818" points="665.5,298.2832,655.5,302.2832,665.5,306.2832,661.5,302.2832" style="stroke:#181818;stroke-width:1.0;"/><line style="stroke:#181818;stroke-width:1.0;" x1="659.5" x2="1253.5" y1="302.2832" y2="302.2832"/><text fill="#000000" font-family="sans-serif" font-size="13" lengthAdjust="spacing" textLength="162" x="671.5" y="297.541">acceptCall(agentId, callId)</text><polygon fill="#181818" points="475.5,327.5938,465.5,331.5938,475.5,335.5938,471.5,331.5938" style="stroke:#181818;stroke-width:1.0;"/><line style="stroke:#181818;stroke-width:1.0;" x1="469.5" x2="653.5" y1="331.5938" y2="331.5938"/><text fill="#000000" font-family="sans-serif" font-size="13" lengthAdjust="spacing" textLength="68" x="481.5" y="326.8516">SIP 200 OK</text><polygon fill="#181818" points="306.5,356.9043,296.5,360.9043,306.5,364.9043,302.5,360.9043" style="stroke:#181818;stroke-width:1.0;"/><line style="stroke:#181818;stroke-width:1.0;" x1="300.5" x2="463.5" y1="360.9043" y2="360.9043"/><text fill="#000000" font-family="sans-serif" font-size="13" lengthAdjust="spacing" textLength="68" x="312.5" y="356.1621">SIP 200 OK</text><polygon fill="#181818" points="98.5,386.2148,88.5,390.2148,98.5,394.2148,94.5,390.2148" style="stroke:#181818;stroke-width:1.0;"/><line style="stroke:#181818;stroke-width:1.0;" x1="92.5" x2="294.5" y1="390.2148" y2="390.2148"/><text fill="#000000" font-family="sans-serif" font-size="13" lengthAdjust="spacing" textLength="68" x="104.5" y="385.4727">SIP 200 OK</text><polygon fill="#181818" points="1371,415.5254,1381,419.5254,1371,423.5254,1375,419.5254" style="stroke:#181818;stroke-width:1.0;"/><line style="stroke:#181818;stroke-width:1.0;" x1="654.5" x2="1377" y1="419.5254" y2="419.5254"/><text fill="#000000" font-family="sans-serif" font-size="13" lengthAdjust="spacing" textLength="157" x="661.5" y="414.7832">Start recording (optional)</text><text fill="#000000" font-family="sans-serif" font-size="11" lengthAdjust="spacing" textLength="235" x="682.75" y="452.1602">&#1052;&#1077;&#1076;&#1080;&#1072;-&#1087;&#1091;&#1090;&#1100; &#1091;&#1089;&#1090;&#1072;&#1085;&#1072;&#1074;&#1083;&#1080;&#1074;&#1072;&#1077;&#1090;&#1089;&#1103; &#1095;&#1077;&#1088;&#1077;&#1079; SIP/RTP</text><polygon fill="#181818" points="283.5,485.791,293.5,489.791,283.5,493.791,287.5,489.791" style="stroke:#181818;stroke-width:1.0;"/><line style="stroke:#181818;stroke-width:1.0;" x1="87.5" x2="289.5" y1="489.791" y2="489.791"/><text fill="#000000" font-family="sans-serif" font-size="13" lengthAdjust="spacing" textLength="22" x="94.5" y="485.0488">BYE</text><polygon fill="#181818" points="452.5,515.1016,462.5,519.1016,452.5,523.1016,456.5,519.1016" style="stroke:#181818;stroke-width:1.0;"/><line style="stroke:#181818;stroke-width:1.0;" x1="295.5" x2="458.5" y1="519.1016" y2="519.1016"/><text fill="#000000" font-family="sans-serif" font-size="13" lengthAdjust="spacing" textLength="22" x="302.5" y="514.3594">BYE</text><polygon fill="#181818" points="642.5,544.4121,652.5,548.4121,642.5,552.4121,646.5,548.4121" style="stroke:#181818;stroke-width:1.0;"/><line style="stroke:#181818;stroke-width:1.0;" x1="464.5" x2="648.5" y1="548.4121" y2="548.4121"/><text fill="#000000" font-family="sans-serif" font-size="13" lengthAdjust="spacing" textLength="22" x="471.5" y="543.6699">BYE</text><polygon fill="#181818" points="1371,573.7227,1381,577.7227,1371,581.7227,1375,577.7227" style="stroke:#181818;stroke-width:1.0;"/><line style="stroke:#181818;stroke-width:1.0;" x1="654.5" x2="1377" y1="577.7227" y2="577.7227"/><text fill="#000000" font-family="sans-serif" font-size="13" lengthAdjust="spacing" textLength="92" x="661.5" y="572.9805">Stop recording</text><polygon fill="#181818" points="1501,603.0332,1511,607.0332,1501,611.0332,1505,607.0332" style="stroke:#181818;stroke-width:1.0;"/><line style="stroke:#181818;stroke-width:1.0;" x1="654.5" x2="1507" y1="607.0332" y2="607.0332"/><text fill="#000000" font-family="sans-serif" font-size="13" lengthAdjust="spacing" textLength="214" x="661.5" y="602.291">Event CallEnded(CDR data) (async)</text><!--SRC=[VPJ1RjD048RlVefHBzWIIIgEEI0b9gei80r9eEAuiJTbXUCrcqrAED4Y10X49SuyH1Kr2gW2Nc7tZPXTnt7iK0wMrpFVpEp-C-ixeBxfz-gtkjQN-fFweNw2MkhFQesc9UWFQgNVgfLQmw3jD_H7TQE_ghNZf4H85hAK918EUeDX5nhGUIsfI4WCFebZAWw0J8qj-of77ATK4Cc5oPfpk2n3Ww07HqJICxB0x3c9rgEJCcWgWCyJANWC0ohcBAIMDOwDlR9ZGQSq2Mc9perbzAaFVimeBjtMARuyozfbPY_ZhLwGRpe3Uq5rkuzfn0YUg4z3BYAMd5hGMj5KPjiiZf50sd_Gjzp6uZXRQQ5sVwCVD8qy47IV1SCEk26VO9O59BF9Y0hFsK28Mn4hTCB5XCJi3Oqy9_CZkACWubrw5YIO5UiRXvidtgKmQAjk4vxCg5W0cHCMar5CWHZTfZ36rh-QqHbrjcnjhzeZDfN0ntlHrN9MOhCxBjbuaK4mHudJsVH5uuIE1ZnyIQMJSIQWQ1w6vIU2q8oHQxTrrtwWj2mPSy_P3TWfs0f3cagB5idBPo0MiMBPVGLHbZg8zbJRxSczmqCuVbYqeTJUZRFePZ499Q1Q89ymGqaSCX3v08BBKyautbtFSUhrEgZlUEUlyMzmLLD_z3jzeRy0lixrXRfIl_1PgXlqBd6rGkUvlYpzAe9Uep_i0MQwRKpRppl_64TZlMNqZEj_v-5fSPmgc5-Y9dJcfeN6tKaY6hbugI0YadZWakaY2JtdBm00]--></g></svg>