<?xml version="1.0" encoding="us-ascii" standalone="no"?><svg xmlns="http://www.w3.org/2000/svg" xmlns:xlink="http://www.w3.org/1999/xlink" contentStyleType="text/css" height="826px" preserveAspectRatio="none" style="width:1672px;height:826px;background:#FFFFFF;" version="1.1" viewBox="0 0 1672 826" width="1672px" zoomAndPan="magnify"><defs/><g><line style="stroke:#181818;stroke-width:0.5;stroke-dasharray:5.0,5.0;" x1="23" x2="23" y1="81.4883" y2="547.7676"/><line style="stroke:#A80036;stroke-width:1.0;stroke-dasharray:1.0,4.0;" x1="23" x2="23" y1="547.7676" y2="588.7227"/><line style="stroke:#181818;stroke-width:0.5;stroke-dasharray:5.0,5.0;" x1="23" x2="23" y1="588.7227" y2="745.2754"/><line style="stroke:#181818;stroke-width:0.5;stroke-dasharray:5.0,5.0;" x1="197" x2="197" y1="81.4883" y2="547.7676"/><line style="stroke:#A80036;stroke-width:1.0;stroke-dasharray:1.0,4.0;" x1="197" x2="197" y1="547.7676" y2="588.7227"/><line style="stroke:#181818;stroke-width:0.5;stroke-dasharray:5.0,5.0;" x1="197" x2="197" y1="588.7227" y2="745.2754"/><line style="stroke:#181818;stroke-width:0.5;stroke-dasharray:5.0,5.0;" x1="429" x2="429" y1="81.4883" y2="547.7676"/><line style="stroke:#A80036;stroke-width:1.0;stroke-dasharray:1.0,4.0;" x1="429" x2="429" y1="547.7676" y2="588.7227"/><line style="stroke:#181818;stroke-width:0.5;stroke-dasharray:5.0,5.0;" x1="429" x2="429" y1="588.7227" y2="745.2754"/><line style="stroke:#181818;stroke-width:0.5;stroke-dasharray:5.0,5.0;" x1="584.5" x2="584.5" y1="81.4883" y2="547.7676"/><line style="stroke:#A80036;stroke-width:1.0;stroke-dasharray:1.0,4.0;" x1="584.5" x2="584.5" y1="547.7676" y2="588.7227"/><line style="stroke:#181818;stroke-width:0.5;stroke-dasharray:5.0,5.0;" x1="584.5" x2="584.5" y1="588.7227" y2="745.2754"/><line style="stroke:#181818;stroke-width:0.5;stroke-dasharray:5.0,5.0;" x1="714.5" x2="714.5" y1="81.4883" y2="547.7676"/><line style="stroke:#A80036;stroke-width:1.0;stroke-dasharray:1.0,4.0;" x1="714.5" x2="714.5" y1="547.7676" y2="588.7227"/><line style="stroke:#181818;stroke-width:0.5;stroke-dasharray:5.0,5.0;" x1="714.5" x2="714.5" y1="588.7227" y2="745.2754"/><line style="stroke:#181818;stroke-width:0.5;stroke-dasharray:5.0,5.0;" x1="885.5" x2="885.5" y1="81.4883" y2="547.7676"/><line style="stroke:#A80036;stroke-width:1.0;stroke-dasharray:1.0,4.0;" x1="885.5" x2="885.5" y1="547.7676" y2="588.7227"/><line style="stroke:#181818;stroke-width:0.5;stroke-dasharray:5.0,5.0;" x1="885.5" x2="885.5" y1="588.7227" y2="745.2754"/><line style="stroke:#181818;stroke-width:0.5;stroke-dasharray:5.0,5.0;" x1="1096.5" x2="1096.5" y1="81.4883" y2="547.7676"/><line style="stroke:#A80036;stroke-width:1.0;stroke-dasharray:1.0,4.0;" x1="1096.5" x2="1096.5" y1="547.7676" y2="588.7227"/><line style="stroke:#181818;stroke-width:0.5;stroke-dasharray:5.0,5.0;" x1="1096.5" x2="1096.5" y1="588.7227" y2="745.2754"/><line style="stroke:#181818;stroke-width:0.5;stroke-dasharray:5.0,5.0;" x1="1244.5" x2="1244.5" y1="81.4883" y2="547.7676"/><line style="stroke:#A80036;stroke-width:1.0;stroke-dasharray:1.0,4.0;" x1="1244.5" x2="1244.5" y1="547.7676" y2="588.7227"/><line style="stroke:#181818;stroke-width:0.5;stroke-dasharray:5.0,5.0;" x1="1244.5" x2="1244.5" y1="588.7227" y2="745.2754"/><line style="stroke:#181818;stroke-width:0.5;stroke-dasharray:5.0,5.0;" x1="1405.5" x2="1405.5" y1="81.4883" y2="547.7676"/><line style="stroke:#A80036;stroke-width:1.0;stroke-dasharray:1.0,4.0;" x1="1405.5" x2="1405.5" y1="547.7676" y2="588.7227"/><line style="stroke:#181818;stroke-width:0.5;stroke-dasharray:5.0,5.0;" x1="1405.5" x2="1405.5" y1="588.7227" y2="745.2754"/><line style="stroke:#181818;stroke-width:0.5;stroke-dasharray:5.0,5.0;" x1="1549.5" x2="1549.5" y1="81.4883" y2="547.7676"/><line style="stroke:#A80036;stroke-width:1.0;stroke-dasharray:1.0,4.0;" x1="1549.5" x2="1549.5" y1="547.7676" y2="588.7227"/><line style="stroke:#181818;stroke-width:0.5;stroke-dasharray:5.0,5.0;" x1="1549.5" x2="1549.5" y1="588.7227" y2="745.2754"/><line style="stroke:#181818;stroke-width:0.5;stroke-dasharray:5.0,5.0;" x1="1637.5" x2="1637.5" y1="81.4883" y2="547.7676"/><line style="stroke:#A80036;stroke-width:1.0;stroke-dasharray:1.0,4.0;" x1="1637.5" x2="1637.5" y1="547.7676" y2="588.7227"/><line style="stroke:#181818;stroke-width:0.5;stroke-dasharray:5.0,5.0;" x1="1637.5" x2="1637.5" y1="588.7227" y2="745.2754"/><text fill="#000000" font-family="sans-serif" font-size="14" lengthAdjust="spacing" textLength="31" x="5" y="78.5352">User</text><ellipse cx="23.5" cy="13.5" fill="#E2E2F0" rx="8" ry="8" style="stroke:#181818;stroke-width:0.5;"/><path d="M23.5,21.5 L23.5,48.5 M10.5,29.5 L36.5,29.5 M23.5,48.5 L10.5,63.5 M23.5,48.5 L36.5,63.5 " fill="none" style="stroke:#181818;stroke-width:0.5;"/><text fill="#000000" font-family="sans-serif" font-size="14" lengthAdjust="spacing" textLength="31" x="5" y="757.8105">User</text><ellipse cx="23.5" cy="769.2637" fill="#E2E2F0" rx="8" ry="8" style="stroke:#181818;stroke-width:0.5;"/><path d="M23.5,777.2637 L23.5,804.2637 M10.5,785.2637 L36.5,785.2637 M23.5,804.2637 L10.5,819.2637 M23.5,804.2637 L36.5,819.2637 " fill="none" style="stroke:#181818;stroke-width:0.5;"/><rect fill="#E2E2F0" height="30.4883" rx="2.5" ry="2.5" style="stroke:#181818;stroke-width:0.5;" width="111" x="142" y="50"/><text fill="#000000" font-family="sans-serif" font-size="14" lengthAdjust="spacing" textLength="97" x="149" y="70.5352">UC Web Client</text><rect fill="#E2E2F0" height="30.4883" rx="2.5" ry="2.5" style="stroke:#181818;stroke-width:0.5;" width="111" x="142" y="744.2754"/><text fill="#000000" font-family="sans-serif" font-size="14" lengthAdjust="spacing" textLength="97" x="149" y="764.8105">UC Web Client</text><rect fill="#E2E2F0" height="30.4883" rx="2.5" ry="2.5" style="stroke:#181818;stroke-width:0.5;" width="97" x="381" y="50"/><text fill="#000000" font-family="sans-serif" font-size="14" lengthAdjust="spacing" textLength="83" x="388" y="70.5352">API Gateway</text><rect fill="#E2E2F0" height="30.4883" rx="2.5" ry="2.5" style="stroke:#181818;stroke-width:0.5;" width="97" x="381" y="744.2754"/><text fill="#000000" font-family="sans-serif" font-size="14" lengthAdjust="spacing" textLength="83" x="388" y="764.8105">API Gateway</text><rect fill="#E2E2F0" height="30.4883" rx="2.5" ry="2.5" style="stroke:#181818;stroke-width:0.5;" width="92" x="538.5" y="50"/><text fill="#000000" font-family="sans-serif" font-size="14" lengthAdjust="spacing" textLength="78" x="545.5" y="70.5352">IAM Service</text><rect fill="#E2E2F0" height="30.4883" rx="2.5" ry="2.5" style="stroke:#181818;stroke-width:0.5;" width="92" x="538.5" y="744.2754"/><text fill="#000000" font-family="sans-serif" font-size="14" lengthAdjust="spacing" textLength="78" x="545.5" y="764.8105">IAM Service</text><rect fill="#E2E2F0" height="30.4883" rx="2.5" ry="2.5" style="stroke:#181818;stroke-width:0.5;" width="148" x="640.5" y="50"/><text fill="#000000" font-family="sans-serif" font-size="14" lengthAdjust="spacing" textLength="134" x="647.5" y="70.5352">Call Control Service</text><rect fill="#E2E2F0" height="30.4883" rx="2.5" ry="2.5" style="stroke:#181818;stroke-width:0.5;" width="148" x="640.5" y="744.2754"/><text fill="#000000" font-family="sans-serif" font-size="14" lengthAdjust="spacing" textLength="134" x="647.5" y="764.8105">Call Control Service</text><rect fill="#E2E2F0" height="30.4883" rx="2.5" ry="2.5" style="stroke:#181818;stroke-width:0.5;" width="132" x="819.5" y="50"/><text fill="#000000" font-family="sans-serif" font-size="14" lengthAdjust="spacing" textLength="118" x="826.5" y="70.5352">WebRTC Gateway</text><rect fill="#E2E2F0" height="30.4883" rx="2.5" ry="2.5" style="stroke:#181818;stroke-width:0.5;" width="132" x="819.5" y="744.2754"/><text fill="#000000" font-family="sans-serif" font-size="14" lengthAdjust="spacing" textLength="118" x="826.5" y="764.8105">WebRTC Gateway</text><rect fill="#E2E2F0" height="30.4883" rx="2.5" ry="2.5" style="stroke:#181818;stroke-width:0.5;" width="140" x="1026.5" y="50"/><text fill="#000000" font-family="sans-serif" font-size="14" lengthAdjust="spacing" textLength="126" x="1033.5" y="70.5352">Media / Recording</text><rect fill="#E2E2F0" height="30.4883" rx="2.5" ry="2.5" style="stroke:#181818;stroke-width:0.5;" width="140" x="1026.5" y="744.2754"/><text fill="#000000" font-family="sans-serif" font-size="14" lengthAdjust="spacing" textLength="126" x="1033.5" y="764.8105">Media / Recording</text><rect fill="#E2E2F0" height="30.4883" rx="2.5" ry="2.5" style="stroke:#181818;stroke-width:0.5;" width="136" x="1176.5" y="50"/><text fill="#000000" font-family="sans-serif" font-size="14" lengthAdjust="spacing" textLength="122" x="1183.5" y="70.5352">SIP Gateway / SBC</text><rect fill="#E2E2F0" height="30.4883" rx="2.5" ry="2.5" style="stroke:#181818;stroke-width:0.5;" width="136" x="1176.5" y="744.2754"/><text fill="#000000" font-family="sans-serif" font-size="14" lengthAdjust="spacing" textLength="122" x="1183.5" y="764.8105">SIP Gateway / SBC</text><rect fill="#E2E2F0" height="30.4883" rx="2.5" ry="2.5" style="stroke:#181818;stroke-width:0.5;" width="167" x="1322.5" y="50"/><text fill="#000000" font-family="sans-serif" font-size="14" lengthAdjust="spacing" textLength="153" x="1329.5" y="70.5352">PSTN / External Callee</text><rect fill="#E2E2F0" height="30.4883" rx="2.5" ry="2.5" style="stroke:#181818;stroke-width:0.5;" width="167" x="1322.5" y="744.2754"/><text fill="#000000" font-family="sans-serif" font-size="14" lengthAdjust="spacing" textLength="153" x="1329.5" y="764.8105">PSTN / External Callee</text><rect fill="#E2E2F0" height="30.4883" rx="2.5" ry="2.5" style="stroke:#181818;stroke-width:0.5;" width="100" x="1499.5" y="50"/><text fill="#000000" font-family="sans-serif" font-size="14" lengthAdjust="spacing" textLength="86" x="1506.5" y="70.5352">Billing / CDR</text><rect fill="#E2E2F0" height="30.4883" rx="2.5" ry="2.5" style="stroke:#181818;stroke-width:0.5;" width="100" x="1499.5" y="744.2754"/><text fill="#000000" font-family="sans-serif" font-size="14" lengthAdjust="spacing" textLength="86" x="1506.5" y="764.8105">Billing / CDR</text><rect fill="#E2E2F0" height="30.4883" rx="2.5" ry="2.5" style="stroke:#181818;stroke-width:0.5;" width="57" x="1609.5" y="50"/><text fill="#000000" font-family="sans-serif" font-size="14" lengthAdjust="spacing" textLength="43" x="1616.5" y="70.5352">Callde</text><rect fill="#E2E2F0" height="30.4883" rx="2.5" ry="2.5" style="stroke:#181818;stroke-width:0.5;" width="57" x="1609.5" y="744.2754"/><text fill="#000000" font-family="sans-serif" font-size="14" lengthAdjust="spacing" textLength="43" x="1616.5" y="764.8105">Callde</text><polygon fill="#181818" points="185.5,124.1094,195.5,128.1094,185.5,132.1094,189.5,128.1094" style="stroke:#181818;stroke-width:1.0;"/><line style="stroke:#181818;stroke-width:1.0;" x1="23.5" x2="191.5" y1="128.1094" y2="128.1094"/><text fill="#000000" font-family="sans-serif" font-size="13" lengthAdjust="spacing" textLength="149" x="30.5" y="108.0566">&#1053;&#1072;&#1078;&#1080;&#1084;&#1072;&#1077;&#1090; &#171;&#1055;&#1086;&#1079;&#1074;&#1086;&#1085;&#1080;&#1090;&#1100;&#187;</text><text fill="#000000" font-family="sans-serif" font-size="13" lengthAdjust="spacing" textLength="150" x="30.5" y="123.3672">(&#1091;&#1082;&#1072;&#1079;&#1072;&#1085; &#1085;&#1086;&#1084;&#1077;&#1088;/&#1082;&#1086;&#1085;&#1090;&#1072;&#1082;&#1090;)</text><polygon fill="#181818" points="417.5,153.4199,427.5,157.4199,417.5,161.4199,421.5,157.4199" style="stroke:#181818;stroke-width:1.0;"/><line style="stroke:#181818;stroke-width:1.0;" x1="197.5" x2="423.5" y1="157.4199" y2="157.4199"/><text fill="#000000" font-family="sans-serif" font-size="13" lengthAdjust="spacing" textLength="208" x="204.5" y="152.6777">HTTPS REST /calls (access token)</text><polygon fill="#181818" points="572.5,182.7305,582.5,186.7305,572.5,190.7305,576.5,186.7305" style="stroke:#181818;stroke-width:1.0;"/><line style="stroke:#181818;stroke-width:1.0;" x1="429.5" x2="578.5" y1="186.7305" y2="186.7305"/><text fill="#000000" font-family="sans-serif" font-size="13" lengthAdjust="spacing" textLength="131" x="436.5" y="181.9883">Validate token (sync)</text><polygon fill="#181818" points="440.5,212.041,430.5,216.041,440.5,220.041,436.5,216.041" style="stroke:#181818;stroke-width:1.0;"/><line style="stroke:#181818;stroke-width:1.0;stroke-dasharray:2.0,2.0;" x1="434.5" x2="583.5" y1="216.041" y2="216.041"/><text fill="#000000" font-family="sans-serif" font-size="13" lengthAdjust="spacing" textLength="109" x="446.5" y="211.2988">OK (user, scopes)</text><polygon fill="#181818" points="702.5,241.3516,712.5,245.3516,702.5,249.3516,706.5,245.3516" style="stroke:#181818;stroke-width:1.0;"/><line style="stroke:#181818;stroke-width:1.0;" x1="429.5" x2="708.5" y1="245.3516" y2="245.3516"/><text fill="#000000" font-family="sans-serif" font-size="13" lengthAdjust="spacing" textLength="176" x="436.5" y="240.6094">REST createCall(user, target)</text><polygon fill="#181818" points="873.5,285.9727,883.5,289.9727,873.5,293.9727,877.5,289.9727" style="stroke:#181818;stroke-width:1.0;"/><line style="stroke:#181818;stroke-width:1.0;" x1="714.5" x2="879.5" y1="289.9727" y2="289.9727"/><text fill="#000000" font-family="sans-serif" font-size="13" lengthAdjust="spacing" textLength="147" x="721.5" y="269.9199">Create WebRTC session</text><text fill="#000000" font-family="sans-serif" font-size="13" lengthAdjust="spacing" textLength="117" x="721.5" y="285.2305">(SDP offer/answer)</text><polygon fill="#181818" points="1084.5,330.5938,1094.5,334.5938,1084.5,338.5938,1088.5,334.5938" style="stroke:#181818;stroke-width:1.0;"/><line style="stroke:#181818;stroke-width:1.0;" x1="885.5" x2="1090.5" y1="334.5938" y2="334.5938"/><text fill="#000000" font-family="sans-serif" font-size="13" lengthAdjust="spacing" textLength="155" x="892.5" y="314.541">Reserve media resources</text><text fill="#000000" font-family="sans-serif" font-size="13" lengthAdjust="spacing" textLength="187" x="892.5" y="329.8516">(&#1074;&#1086;&#1079;&#1084;&#1086;&#1078;&#1085;&#1086;, &#1074;&#1082;&#1083;&#1102;&#1095;&#1080;&#1090;&#1100; &#1079;&#1072;&#1087;&#1080;&#1089;&#1100;)</text><polygon fill="#181818" points="1232.5,359.9043,1242.5,363.9043,1232.5,367.9043,1236.5,363.9043" style="stroke:#181818;stroke-width:1.0;"/><line style="stroke:#181818;stroke-width:1.0;" x1="714.5" x2="1238.5" y1="363.9043" y2="363.9043"/><text fill="#000000" font-family="sans-serif" font-size="13" lengthAdjust="spacing" textLength="159" x="721.5" y="359.1621">SIP INVITE (PSTN number)</text><polygon fill="#181818" points="1394,389.2148,1404,393.2148,1394,397.2148,1398,393.2148" style="stroke:#181818;stroke-width:1.0;"/><line style="stroke:#181818;stroke-width:1.0;" x1="1244.5" x2="1400" y1="393.2148" y2="393.2148"/><text fill="#000000" font-family="sans-serif" font-size="13" lengthAdjust="spacing" textLength="63" x="1251.5" y="388.4727">SIP INVITE</text><polygon fill="#181818" points="1255.5,418.5254,1245.5,422.5254,1255.5,426.5254,1251.5,422.5254" style="stroke:#181818;stroke-width:1.0;"/><line style="stroke:#181818;stroke-width:1.0;stroke-dasharray:2.0,2.0;" x1="1249.5" x2="1637" y1="422.5254" y2="422.5254"/><text fill="#000000" font-family="sans-serif" font-size="13" lengthAdjust="spacing" textLength="159" x="1261.5" y="417.7832">SIP 180 Ringing / 200 OK</text><polygon fill="#181818" points="725.5,447.8359,715.5,451.8359,725.5,455.8359,721.5,451.8359" style="stroke:#181818;stroke-width:1.0;"/><line style="stroke:#181818;stroke-width:1.0;stroke-dasharray:2.0,2.0;" x1="719.5" x2="1243.5" y1="451.8359" y2="451.8359"/><text fill="#000000" font-family="sans-serif" font-size="13" lengthAdjust="spacing" textLength="68" x="731.5" y="447.0938">SIP 200 OK</text><polygon fill="#181818" points="208.5,477.1465,198.5,481.1465,208.5,485.1465,204.5,481.1465" style="stroke:#181818;stroke-width:1.0;"/><line style="stroke:#181818;stroke-width:1.0;stroke-dasharray:2.0,2.0;" x1="202.5" x2="713.5" y1="481.1465" y2="481.1465"/><text fill="#000000" font-family="sans-serif" font-size="13" lengthAdjust="spacing" textLength="247" x="214.5" y="476.4043">Call established (via APIGW / signaling)</text><polygon fill="#181818" points="873.5,506.457,883.5,510.457,873.5,514.457,877.5,510.457" style="stroke:#181818;stroke-width:1.0;"/><line style="stroke:#181818;stroke-width:1.0;" x1="197.5" x2="879.5" y1="510.457" y2="510.457"/><text fill="#000000" font-family="sans-serif" font-size="13" lengthAdjust="spacing" textLength="186" x="204.5" y="505.7148">WebRTC connect (DTLS/SRTP)</text><polygon fill="#181818" points="1084.5,535.7676,1094.5,539.7676,1084.5,543.7676,1088.5,539.7676" style="stroke:#181818;stroke-width:1.0;"/><line style="stroke:#181818;stroke-width:1.0;" x1="885.5" x2="1090.5" y1="539.7676" y2="539.7676"/><text fill="#000000" font-family="sans-serif" font-size="13" lengthAdjust="spacing" textLength="102" x="892.5" y="535.0254">RTP/SRTP media</text><text fill="#000000" font-family="sans-serif" font-size="11" lengthAdjust="spacing" textLength="160" x="750.75" y="572.4023">&#1055;&#1086;&#1089;&#1083;&#1077; &#1079;&#1072;&#1074;&#1077;&#1088;&#1096;&#1077;&#1085;&#1080;&#1103; &#1088;&#1072;&#1079;&#1075;&#1086;&#1074;&#1086;&#1088;&#1072;</text><polygon fill="#181818" points="1255.5,606.0332,1245.5,610.0332,1255.5,614.0332,1251.5,610.0332" style="stroke:#181818;stroke-width:1.0;"/><line style="stroke:#181818;stroke-width:1.0;" x1="1249.5" x2="1637" y1="610.0332" y2="610.0332"/><text fill="#000000" font-family="sans-serif" font-size="13" lengthAdjust="spacing" textLength="22" x="1261.5" y="605.291">BYE</text><polygon fill="#181818" points="725.5,635.3438,715.5,639.3438,725.5,643.3438,721.5,639.3438" style="stroke:#181818;stroke-width:1.0;"/><line style="stroke:#181818;stroke-width:1.0;" x1="719.5" x2="1243.5" y1="639.3438" y2="639.3438"/><text fill="#000000" font-family="sans-serif" font-size="13" lengthAdjust="spacing" textLength="22" x="731.5" y="634.6016">BYE</text><polygon fill="#181818" points="873.5,664.6543,883.5,668.6543,873.5,672.6543,877.5,668.6543" style="stroke:#181818;stroke-width:1.0;"/><line style="stroke:#181818;stroke-width:1.0;" x1="714.5" x2="879.5" y1="668.6543" y2="668.6543"/><text fill="#000000" font-family="sans-serif" font-size="13" lengthAdjust="spacing" textLength="115" x="721.5" y="663.9121">Terminate session</text><polygon fill="#181818" points="1084.5,693.9648,1094.5,697.9648,1084.5,701.9648,1088.5,697.9648" style="stroke:#181818;stroke-width:1.0;"/><line style="stroke:#181818;stroke-width:1.0;" x1="885.5" x2="1090.5" y1="697.9648" y2="697.9648"/><text fill="#000000" font-family="sans-serif" font-size="13" lengthAdjust="spacing" textLength="92" x="892.5" y="693.2227">Stop recording</text><polygon fill="#181818" points="1537.5,723.2754,1547.5,727.2754,1537.5,731.2754,1541.5,727.2754" style="stroke:#181818;stroke-width:1.0;"/><line style="stroke:#181818;stroke-width:1.0;" x1="714.5" x2="1543.5" y1="727.2754" y2="727.2754"/><text fill="#000000" font-family="sans-serif" font-size="13" lengthAdjust="spacing" textLength="214" x="721.5" y="722.5332">Event CallEnded(CDR data) (async)</text><!--SRC=[TLHDJzHG5DttLzomiPC0WwuC2nEcJ72Yu6HQ82PkIkU2ZULrqfP1TZ36g978retn1xWnu3Z8o9Zm2zxxHvxtse4Mmg9ftxtdVhnpp-q3ab_LaNel9_ANEb6VvBdyG_8Cnx6Sg2EyJ_70TAe-ov4-aht9MntFeJgvhNRDilmWYnDQJpaXFpLlg-SdMHY4FLzaDBFk42B8YK8MsOp6v9zLr5AxHIj-nll-WS7WlB9PXRIMLidbf1y6R20uLm6E7qNan29BugY2r8x2Neqehb8kd9jkrrxbRkZZoXqEugGRYXs3DLQOgbZGCiseIMeu1WlhxQHjrri3elasuqJuaMcJRpfchi8ROHIXCYASvOv15HRBCkpFFIcOfKMIt-HF-HlJ_8ltK0teweVyZl6Dp3mlvRaQgEEhyIjXgtVo0fWHdak2PuAGeJgimmgW6i1-eGOrgqYD8cOqgF7KyzekTPgkH_K0_QPa-q70QKfP_8P5pSg1YD2JMwGDFmgxu2LtavqUYA1cQTzSAUkBPsJluJgpb0PnZzDIcj8O0JI5WuIHKJkAeCnFTZX3koKiGgTJHPnZGWeBfUWtZ0M8S9VR56zlSrBtHRhFISsw3aA2wQXrOKQbFjEkqKJ2QRoNuDf8OSWTWS09k0ULizWRy3XMNzI7d78oHF_3uKWTt-dIQ0GLj89QQnijhqcs4OdOsztI7UM0WWhc2jGawx8XivpeuUC5wa0bkNGUBIo0uccYEwJgW09IwQsiBRDcd6R-LXIchxbBTXyyv5EgKnhkGCieLfPCYVw2zo0MWeECx6NlkLjtErxxVhwzjW7aX5lM_FmyQJ7ZzpIMmvpHKwrPzL4EZRPFI1qQJP_bFp1z8eHTKtJ3KEDbiyhg3HVQTR-CF4vsGw6LL4ZellRTBEv19SL_utR6wL8lKhEloTBkfkXoryQI4zR5hs6jybNv3m00]--></g></svg>