<?xml version="1.0" encoding="us-ascii" standalone="no"?><svg xmlns="http://www.w3.org/2000/svg" xmlns:xlink="http://www.w3.org/1999/xlink" contentStyleType="text/css" height="678px" preserveAspectRatio="none" style="width:991px;height:678px;background:#FFFFFF;" version="1.1" viewBox="0 0 991 678" width="991px" zoomAndPan="magnify"><defs/><g><line style="stroke:#181818;stroke-width:0.5;stroke-dasharray:5.0,5.0;" x1="23" x2="23" y1="81.4883" y2="429.2148"/><line style="stroke:#A80036;stroke-width:1.0;stroke-dasharray:1.0,4.0;" x1="23" x2="23" y1="429.2148" y2="470.1699"/><line style="stroke:#181818;stroke-width:0.5;stroke-dasharray:5.0,5.0;" x1="23" x2="23" y1="470.1699" y2="597.4121"/><line style="stroke:#181818;stroke-width:0.5;stroke-dasharray:5.0,5.0;" x1="207" x2="207" y1="81.4883" y2="429.2148"/><line style="stroke:#A80036;stroke-width:1.0;stroke-dasharray:1.0,4.0;" x1="207" x2="207" y1="429.2148" y2="470.1699"/><line style="stroke:#181818;stroke-width:0.5;stroke-dasharray:5.0,5.0;" x1="207" x2="207" y1="470.1699" y2="597.4121"/><line style="stroke:#181818;stroke-width:0.5;stroke-dasharray:5.0,5.0;" x1="414" x2="414" y1="81.4883" y2="429.2148"/><line style="stroke:#A80036;stroke-width:1.0;stroke-dasharray:1.0,4.0;" x1="414" x2="414" y1="429.2148" y2="470.1699"/><line style="stroke:#181818;stroke-width:0.5;stroke-dasharray:5.0,5.0;" x1="414" x2="414" y1="470.1699" y2="597.4121"/><line style="stroke:#181818;stroke-width:0.5;stroke-dasharray:5.0,5.0;" x1="610.5" x2="610.5" y1="81.4883" y2="429.2148"/><line style="stroke:#A80036;stroke-width:1.0;stroke-dasharray:1.0,4.0;" x1="610.5" x2="610.5" y1="429.2148" y2="470.1699"/><line style="stroke:#181818;stroke-width:0.5;stroke-dasharray:5.0,5.0;" x1="610.5" x2="610.5" y1="470.1699" y2="597.4121"/><line style="stroke:#181818;stroke-width:0.5;stroke-dasharray:5.0,5.0;" x1="904.5" x2="904.5" y1="81.4883" y2="429.2148"/><line style="stroke:#A80036;stroke-width:1.0;stroke-dasharray:1.0,4.0;" x1="904.5" x2="904.5" y1="429.2148" y2="470.1699"/><line style="stroke:#181818;stroke-width:0.5;stroke-dasharray:5.0,5.0;" x1="904.5" x2="904.5" y1="470.1699" y2="597.4121"/><text fill="#000000" font-family="sans-serif" font-size="14" lengthAdjust="spacing" textLength="31" x="5" y="78.5352">User</text><ellipse cx="23.5" cy="13.5" fill="#E2E2F0" rx="8" ry="8" style="stroke:#181818;stroke-width:0.5;"/><path d="M23.5,21.5 L23.5,48.5 M10.5,29.5 L36.5,29.5 M23.5,48.5 L10.5,63.5 M23.5,48.5 L36.5,63.5 " fill="none" style="stroke:#181818;stroke-width:0.5;"/><text fill="#000000" font-family="sans-serif" font-size="14" lengthAdjust="spacing" textLength="31" x="5" y="609.9473">User</text><ellipse cx="23.5" cy="621.4004" fill="#E2E2F0" rx="8" ry="8" style="stroke:#181818;stroke-width:0.5;"/><path d="M23.5,629.4004 L23.5,656.4004 M10.5,637.4004 L36.5,637.4004 M23.5,656.4004 L10.5,671.4004 M23.5,656.4004 L36.5,671.4004 " fill="none" style="stroke:#181818;stroke-width:0.5;"/><rect fill="#E2E2F0" height="30.4883" rx="2.5" ry="2.5" style="stroke:#181818;stroke-width:0.5;" width="111" x="152" y="50"/><text fill="#000000" font-family="sans-serif" font-size="14" lengthAdjust="spacing" textLength="97" x="159" y="70.5352">UC Web Client</text><rect fill="#E2E2F0" height="30.4883" rx="2.5" ry="2.5" style="stroke:#181818;stroke-width:0.5;" width="111" x="152" y="596.4121"/><text fill="#000000" font-family="sans-serif" font-size="14" lengthAdjust="spacing" textLength="97" x="159" y="616.9473">UC Web Client</text><rect fill="#E2E2F0" height="30.4883" rx="2.5" ry="2.5" style="stroke:#181818;stroke-width:0.5;" width="97" x="366" y="50"/><text fill="#000000" font-family="sans-serif" font-size="14" lengthAdjust="spacing" textLength="83" x="373" y="70.5352">API Gateway</text><rect fill="#E2E2F0" height="30.4883" rx="2.5" ry="2.5" style="stroke:#181818;stroke-width:0.5;" width="97" x="366" y="596.4121"/><text fill="#000000" font-family="sans-serif" font-size="14" lengthAdjust="spacing" textLength="83" x="373" y="616.9473">API Gateway</text><rect fill="#E2E2F0" height="30.4883" rx="2.5" ry="2.5" style="stroke:#181818;stroke-width:0.5;" width="92" x="564.5" y="50"/><text fill="#000000" font-family="sans-serif" font-size="14" lengthAdjust="spacing" textLength="78" x="571.5" y="70.5352">IAM Service</text><rect fill="#E2E2F0" height="30.4883" rx="2.5" ry="2.5" style="stroke:#181818;stroke-width:0.5;" width="92" x="564.5" y="596.4121"/><text fill="#000000" font-family="sans-serif" font-size="14" lengthAdjust="spacing" textLength="78" x="571.5" y="616.9473">IAM Service</text><rect fill="#E2E2F0" height="30.4883" rx="2.5" ry="2.5" style="stroke:#181818;stroke-width:0.5;" width="162" x="823.5" y="50"/><text fill="#000000" font-family="sans-serif" font-size="14" lengthAdjust="spacing" textLength="148" x="830.5" y="70.5352">Identity Provider / IdP</text><rect fill="#E2E2F0" height="30.4883" rx="2.5" ry="2.5" style="stroke:#181818;stroke-width:0.5;" width="162" x="823.5" y="596.4121"/><text fill="#000000" font-family="sans-serif" font-size="14" lengthAdjust="spacing" textLength="148" x="830.5" y="616.9473">Identity Provider / IdP</text><polygon fill="#181818" points="195.5,108.7988,205.5,112.7988,195.5,116.7988,199.5,112.7988" style="stroke:#181818;stroke-width:1.0;"/><line style="stroke:#181818;stroke-width:1.0;" x1="23.5" x2="201.5" y1="112.7988" y2="112.7988"/><text fill="#000000" font-family="sans-serif" font-size="13" lengthAdjust="spacing" textLength="160" x="30.5" y="108.0566">&#1054;&#1090;&#1082;&#1088;&#1099;&#1074;&#1072;&#1077;&#1090; UC Web Client</text><polygon fill="#181818" points="402.5,138.1094,412.5,142.1094,402.5,146.1094,406.5,142.1094" style="stroke:#181818;stroke-width:1.0;"/><line style="stroke:#181818;stroke-width:1.0;" x1="207.5" x2="408.5" y1="142.1094" y2="142.1094"/><text fill="#000000" font-family="sans-serif" font-size="13" lengthAdjust="spacing" textLength="178" x="214.5" y="137.3672">GET /login (redirect request)</text><polygon fill="#181818" points="598.5,167.4199,608.5,171.4199,598.5,175.4199,602.5,171.4199" style="stroke:#181818;stroke-width:1.0;"/><line style="stroke:#181818;stroke-width:1.0;" x1="414.5" x2="604.5" y1="171.4199" y2="171.4199"/><text fill="#000000" font-family="sans-serif" font-size="13" lengthAdjust="spacing" textLength="97" x="421.5" y="166.6777">Start OIDC flow</text><polygon fill="#181818" points="892.5,196.7305,902.5,200.7305,892.5,204.7305,896.5,200.7305" style="stroke:#181818;stroke-width:1.0;"/><line style="stroke:#181818;stroke-width:1.0;" x1="610.5" x2="898.5" y1="200.7305" y2="200.7305"/><text fill="#000000" font-family="sans-serif" font-size="13" lengthAdjust="spacing" textLength="192" x="617.5" y="195.9883">Redirect user to IdP /authorize</text><polygon fill="#181818" points="34.5,226.041,24.5,230.041,34.5,234.041,30.5,230.041" style="stroke:#181818;stroke-width:1.0;"/><line style="stroke:#181818;stroke-width:1.0;" x1="28.5" x2="903.5" y1="230.041" y2="230.041"/><text fill="#000000" font-family="sans-serif" font-size="13" lengthAdjust="spacing" textLength="134" x="40.5" y="225.2988">&#1051;&#1086;&#1075;&#1080;&#1085;/&#1087;&#1072;&#1088;&#1086;&#1083;&#1100; / MFA</text><polygon fill="#181818" points="892.5,255.3516,902.5,259.3516,892.5,263.3516,896.5,259.3516" style="stroke:#181818;stroke-width:1.0;"/><line style="stroke:#181818;stroke-width:1.0;stroke-dasharray:2.0,2.0;" x1="23.5" x2="898.5" y1="259.3516" y2="259.3516"/><text fill="#000000" font-family="sans-serif" font-size="13" lengthAdjust="spacing" textLength="138" x="30.5" y="254.6094">Credentials / Consent</text><polygon fill="#181818" points="621.5,284.6621,611.5,288.6621,621.5,292.6621,617.5,288.6621" style="stroke:#181818;stroke-width:1.0;"/><line style="stroke:#181818;stroke-width:1.0;stroke-dasharray:2.0,2.0;" x1="615.5" x2="903.5" y1="288.6621" y2="288.6621"/><text fill="#000000" font-family="sans-serif" font-size="13" lengthAdjust="spacing" textLength="122" x="627.5" y="283.9199">Authorization Code</text><polygon fill="#181818" points="892.5,313.9727,902.5,317.9727,892.5,321.9727,896.5,317.9727" style="stroke:#181818;stroke-width:1.0;"/><line style="stroke:#181818;stroke-width:1.0;" x1="610.5" x2="898.5" y1="317.9727" y2="317.9727"/><text fill="#000000" font-family="sans-serif" font-size="13" lengthAdjust="spacing" textLength="196" x="617.5" y="313.2305">Token request (code exchange)</text><polygon fill="#181818" points="621.5,343.2832,611.5,347.2832,621.5,351.2832,617.5,347.2832" style="stroke:#181818;stroke-width:1.0;"/><line style="stroke:#181818;stroke-width:1.0;stroke-dasharray:2.0,2.0;" x1="615.5" x2="903.5" y1="347.2832" y2="347.2832"/><text fill="#000000" font-family="sans-serif" font-size="13" lengthAdjust="spacing" textLength="270" x="627.5" y="342.541">ID Token + Access Token + Refresh Token</text><polygon fill="#181818" points="425.5,372.5938,415.5,376.5938,425.5,380.5938,421.5,376.5938" style="stroke:#181818;stroke-width:1.0;"/><line style="stroke:#181818;stroke-width:1.0;stroke-dasharray:2.0,2.0;" x1="419.5" x2="609.5" y1="376.5938" y2="376.5938"/><text fill="#000000" font-family="sans-serif" font-size="13" lengthAdjust="spacing" textLength="172" x="431.5" y="371.8516">Validated token + user info</text><polygon fill="#181818" points="218.5,417.2148,208.5,421.2148,218.5,425.2148,214.5,421.2148" style="stroke:#181818;stroke-width:1.0;"/><line style="stroke:#181818;stroke-width:1.0;stroke-dasharray:2.0,2.0;" x1="212.5" x2="413.5" y1="421.2148" y2="421.2148"/><text fill="#000000" font-family="sans-serif" font-size="13" lengthAdjust="spacing" textLength="129" x="224.5" y="401.1621">Set session / tokens</text><text fill="#000000" font-family="sans-serif" font-size="13" lengthAdjust="spacing" textLength="139" x="224.5" y="416.4727">(SPA storage / cookie)</text><text fill="#000000" font-family="sans-serif" font-size="11" lengthAdjust="spacing" textLength="117" x="405.5" y="453.8496">&#1044;&#1072;&#1083;&#1100;&#1085;&#1077;&#1081;&#1096;&#1080;&#1077; &#1079;&#1072;&#1087;&#1088;&#1086;&#1089;&#1099;</text><polygon fill="#181818" points="402.5,487.4805,412.5,491.4805,402.5,495.4805,406.5,491.4805" style="stroke:#181818;stroke-width:1.0;"/><line style="stroke:#181818;stroke-width:1.0;" x1="207.5" x2="408.5" y1="491.4805" y2="491.4805"/><text fill="#000000" font-family="sans-serif" font-size="13" lengthAdjust="spacing" textLength="183" x="214.5" y="486.7383">HTTPS /api/... (access token)</text><polygon fill="#181818" points="598.5,516.791,608.5,520.791,598.5,524.791,602.5,520.791" style="stroke:#181818;stroke-width:1.0;"/><line style="stroke:#181818;stroke-width:1.0;" x1="414.5" x2="604.5" y1="520.791" y2="520.791"/><text fill="#000000" font-family="sans-serif" font-size="13" lengthAdjust="spacing" textLength="160" x="421.5" y="516.0488">Introspect/validate token</text><polygon fill="#181818" points="425.5,546.1016,415.5,550.1016,425.5,554.1016,421.5,550.1016" style="stroke:#181818;stroke-width:1.0;"/><line style="stroke:#181818;stroke-width:1.0;stroke-dasharray:2.0,2.0;" x1="419.5" x2="609.5" y1="550.1016" y2="550.1016"/><text fill="#000000" font-family="sans-serif" font-size="13" lengthAdjust="spacing" textLength="123" x="431.5" y="545.3594">OK / scopes / roles</text><polygon fill="#181818" points="218.5,575.4121,208.5,579.4121,218.5,583.4121,214.5,579.4121" style="stroke:#181818;stroke-width:1.0;"/><line style="stroke:#181818;stroke-width:1.0;stroke-dasharray:2.0,2.0;" x1="212.5" x2="413.5" y1="579.4121" y2="579.4121"/><text fill="#000000" font-family="sans-serif" font-size="13" lengthAdjust="spacing" textLength="182" x="224.5" y="574.6699">Protected resource / success</text><!--SRC=[RLF1RXCn4BtxAqQza0gHlVU0j4eXh53LLPFI2nVZdIHML-jWEodbL5e4I4M20pSalY42HPHMeRzW_n5ZxwPAGY_P7VlDx7lpNXw0- -el_BcRkmNzNldtxifTkvd_GEzVmDswl-x6VtQ_wVcJZWFm9bnSBUyk_CVGJ6rpu4AWCM3LCLQCSM6LXaE36hY9JpRcsaeXnxooi7NOWIDy1PrIOcMt0gP-NKUbUGPTRl64dqOCrTsZTKYMxa4FzLGAZ12gDm05ZPNs57Ajfh8WGWbaHLw3YvonIFBHuuO0x83xGLAl_Pc_3BBTt9_36btM8Aad4gAMxfC-9AKQoWfQ6WkfKLZG-7g2ncwp6aNmG7O7UfRumNwssu51gKvOE0sNHKwN1ylkIQ1bLJnE-CIEb9PlaOMIm94qKVrEFloY_IyIicJcpshBIEBUqxHHTZUwGyp2BdXf2D1HbGbYui0xRcdp8MwbgWXJu3gzVh1tgGnQWW20RyI8LqFStfYLxJRmXv3MuLYM1pZGQ4PrNNzWPPalU2aBShsemqJuk0jP3THobQjszT22eUc1S5Atc9TLgvUdO2Y4V8XqB9GwbiIGjTjjSD_8rf3i1QNtZ_yKyqindxdRi47_pby2uUxn-Lc_d_V8Zh5Cmg3MQkZ_ypchh5PcJ6OcqqPIy_VOLBp_d2WQeSOOdD6gH7EVKagmfMcq6DgUccWHb9b9vC3-0G00]--></g></svg>