<?plantuml 1.2026.0?><svg xmlns="http://www.w3.org/2000/svg" xmlns:xlink="http://www.w3.org/1999/xlink" contentStyleType="text/css" data-diagram-type="DESCRIPTION" height="699px" preserveAspectRatio="none" style="width:1656px;height:699px;background:#FFFFFF;" version="1.1" viewBox="0 0 1656 699" width="1656px" zoomAndPan="magnify"><title>Use Case &#1076;&#1080;&#1072;&#1075;&#1088;&#1072;&#1084;&#1084;&#1072;: &#1050;&#1086;&#1088;&#1087;&#1086;&#1088;&#1072;&#1090;&#1080;&#1074;&#1085;&#1099;&#1081; &#1087;&#1086;&#1083;&#1100;&#1079;&#1086;&#1074;&#1072;&#1090;&#1077;&#1083;&#1100;</title><defs/><g><g class="title" data-source-line="3"><text fill="#000000" font-family="Verdana" font-size="22" font-weight="bold" lengthAdjust="spacing" textLength="659.4844" x="493.9402" y="37.1182">Use Case &#1076;&#1080;&#1072;&#1075;&#1088;&#1072;&#1084;&#1084;&#1072;: &#1050;&#1086;&#1088;&#1087;&#1086;&#1088;&#1072;&#1090;&#1080;&#1074;&#1085;&#1099;&#1081; &#1087;&#1086;&#1083;&#1100;&#1079;&#1086;&#1074;&#1072;&#1090;&#1077;&#1083;&#1100;</text></g><!--cluster ????????? ??????????????? ????????????--><g class="cluster" data-qualified-name="......... ............... ............" data-source-line="7" id="ent0003"><rect fill="#FFFFFF" height="441" rx="7.5" ry="7.5" style="stroke:#000000;stroke-width:1;" width="1041.93" x="250.76" y="193.5373"/><text fill="#000000" font-family="Arial" font-size="14" font-weight="bold" lengthAdjust="spacing" textLength="326.1357" x="608.6571" y="208.6691">&#1055;&#1083;&#1072;&#1090;&#1092;&#1086;&#1088;&#1084;&#1072; &#1059;&#1085;&#1080;&#1092;&#1080;&#1094;&#1080;&#1088;&#1086;&#1074;&#1072;&#1085;&#1085;&#1099;&#1093; &#1050;&#1086;&#1084;&#1084;&#1091;&#1085;&#1080;&#1082;&#1072;&#1094;&#1080;&#1081;</text></g><!--entity UC_Auth--><g class="entity" data-qualified-name="......... ............... .............UC_Auth" data-source-line="8" id="ent0004"><ellipse cx="1126.0927" cy="361.5378" fill="#B9DAF2" rx="150.6027" ry="32.5205" style="stroke:#000000;stroke-width:1;"/><text fill="#000000" font-family="Arial" font-size="14" lengthAdjust="spacing" textLength="284.0195" x="984.0829" y="366.0872">&#1040;&#1091;&#1090;&#1077;&#1085;&#1090;&#1080;&#1092;&#1080;&#1082;&#1072;&#1094;&#1080;&#1103; &#1080; &#1087;&#1086;&#1083;&#1091;&#1095;&#1077;&#1085;&#1080;&#1077; &#1090;&#1086;&#1082;&#1077;&#1085;&#1072; (SSO)</text></g><!--entity UC_OutgoingCall--><g class="entity" data-qualified-name="......... ............... .............UC_OutgoingCall" data-source-line="9" id="ent0005"><ellipse cx="760.0779" cy="595.5409" fill="#B9DAF2" rx="105.4179" ry="23.4836" style="stroke:#000000;stroke-width:1;"/><text fill="#000000" font-family="Arial" font-size="14" lengthAdjust="spacing" textLength="188.3574" x="665.8991" y="600.0902">&#1048;&#1089;&#1093;&#1086;&#1076;&#1103;&#1097;&#1080;&#1081; &#1075;&#1086;&#1083;&#1086;&#1089;&#1086;&#1074;&#1086;&#1081; &#1074;&#1099;&#1079;&#1086;&#1074;</text></g><!--entity UC_IncomingCall--><g class="entity" data-qualified-name="......... ............... .............UC_IncomingCall" data-source-line="10" id="ent0006"><ellipse cx="760.0791" cy="438.5331" fill="#B9DAF2" rx="71.1791" ry="16.6358" style="stroke:#000000;stroke-width:1;"/><text fill="#000000" font-family="Arial" font-size="14" lengthAdjust="spacing" textLength="110.0654" x="705.0464" y="443.0824">&#1042;&#1093;&#1086;&#1076;&#1103;&#1097;&#1080;&#1081; &#1074;&#1099;&#1079;&#1086;&#1074;</text></g><!--entity UC_Conference--><g class="entity" data-qualified-name="......... ............... .............UC_Conference" data-source-line="11" id="ent0007"><ellipse cx="405.7244" cy="341.5362" fill="#B9DAF2" rx="78.8444" ry="18.1689" style="stroke:#000000;stroke-width:1;"/><text fill="#000000" font-family="Arial" font-size="14" lengthAdjust="spacing" textLength="128.5703" x="341.4392" y="346.0855">&#1042;&#1080;&#1076;&#1077;&#1086;&#1082;&#1086;&#1085;&#1092;&#1077;&#1088;&#1077;&#1085;&#1094;&#1080;&#1103;</text></g><!--entity UC_Chat--><g class="entity" data-qualified-name="......... ............... .............UC_Chat" data-source-line="12" id="ent0008"><ellipse cx="760.0836" cy="283.534" fill="#B9DAF2" rx="79.1836" ry="18.2367" style="stroke:#000000;stroke-width:1;"/><text fill="#000000" font-family="Arial" font-size="14" lengthAdjust="spacing" textLength="129.3701" x="695.3986" y="288.0833">&#1063;&#1072;&#1090; &#1089; &#1089;&#1086;&#1090;&#1088;&#1091;&#1076;&#1085;&#1080;&#1082;&#1072;&#1084;&#1080;</text></g><!--entity UC_MultiDevice--><g class="entity" data-qualified-name="......... ............... .............UC_MultiDevice" data-source-line="13" id="ent0009"><ellipse cx="405.7159" cy="258.5385" fill="#B9DAF2" rx="138.9559" ry="30.1912" style="stroke:#000000;stroke-width:1;"/><text fill="#000000" font-family="Arial" font-size="14" lengthAdjust="spacing" textLength="259.7246" x="275.8536" y="263.0878">&#1059;&#1087;&#1088;&#1072;&#1074;&#1083;&#1077;&#1085;&#1080;&#1077; &#1085;&#1077;&#1089;&#1082;&#1086;&#1083;&#1100;&#1082;&#1080;&#1084;&#1080; &#1091;&#1089;&#1090;&#1088;&#1086;&#1081;&#1089;&#1090;&#1074;&#1072;&#1084;&#1080;</text></g><!--entity UC_MessageHistory--><g class="entity" data-qualified-name="......... ............... .............UC_MessageHistory" data-source-line="14" id="ent0010"><ellipse cx="405.716" cy="419.5365" fill="#B9DAF2" rx="109.746" ry="24.3492" style="stroke:#000000;stroke-width:1;"/><text fill="#000000" font-family="Arial" font-size="14" lengthAdjust="spacing" textLength="197.7363" x="306.8478" y="424.0858">&#1055;&#1088;&#1086;&#1089;&#1084;&#1086;&#1090;&#1088; &#1080;&#1089;&#1090;&#1086;&#1088;&#1080;&#1080; &#1089;&#1086;&#1086;&#1073;&#1097;&#1077;&#1085;&#1080;&#1081;</text></g><!--entity UC_Contacts--><g class="entity" data-qualified-name="......... ............... .............UC_Contacts" data-source-line="15" id="ent0011"><ellipse cx="405.724" cy="499.5361" fill="#B9DAF2" rx="90.894" ry="20.5788" style="stroke:#000000;stroke-width:1;"/><text fill="#000000" font-family="Arial" font-size="14" lengthAdjust="spacing" textLength="156.2764" x="327.5859" y="504.0854">&#1059;&#1087;&#1088;&#1072;&#1074;&#1083;&#1077;&#1085;&#1080;&#1077; &#1082;&#1086;&#1085;&#1090;&#1072;&#1082;&#1090;&#1072;&#1084;&#1080;</text></g><!--entity UC_Presence--><g class="entity" data-qualified-name="......... ............... .............UC_Presence" data-source-line="16" id="ent0012"><ellipse cx="1126.0916" cy="261.5356" fill="#B9DAF2" rx="104.5416" ry="23.3083" style="stroke:#000000;stroke-width:1;"/><text fill="#000000" font-family="Arial" font-size="14" lengthAdjust="spacing" textLength="186.4502" x="1032.8665" y="266.085">&#1055;&#1088;&#1086;&#1089;&#1084;&#1086;&#1090;&#1088; &#1089;&#1090;&#1072;&#1090;&#1091;&#1089;&#1086;&#1074; presence</text></g><!--entity UC_Recordings--><g class="entity" data-qualified-name="......... ............... .............UC_Recordings" data-source-line="17" id="ent0013"><ellipse cx="760.0764" cy="513.5406" fill="#B9DAF2" rx="106.1664" ry="23.6333" style="stroke:#000000;stroke-width:1;"/><text fill="#000000" font-family="Arial" font-size="14" lengthAdjust="spacing" textLength="189.9844" x="665.0842" y="518.0899">&#1044;&#1086;&#1089;&#1090;&#1091;&#1087; &#1082; &#1079;&#1072;&#1087;&#1080;&#1089;&#1103;&#1084; &#1088;&#1072;&#1079;&#1075;&#1086;&#1074;&#1086;&#1088;&#1086;&#1074;</text></g><!--entity UC_CRMIntegration--><g class="entity" data-qualified-name="......... ............... .............UC_CRMIntegration" data-source-line="18" id="ent0014"><ellipse cx="760.0787" cy="361.5391" fill="#B9DAF2" rx="113.2087" ry="25.0417" style="stroke:#000000;stroke-width:1;"/><text fill="#000000" font-family="Arial" font-size="14" lengthAdjust="spacing" textLength="205.1943" x="657.4816" y="366.0884">&#1048;&#1085;&#1090;&#1077;&#1075;&#1088;&#1072;&#1094;&#1080;&#1103; &#1089; CRM (click-to-call)</text></g><!--entity User--><g class="entity" data-qualified-name="User" data-source-line="5" id="ent0002"><ellipse cx="108.8804" cy="469.9873" fill="#FDF5E6" rx="8" ry="8" style="stroke:#000000;stroke-width:1;"/><path d="M108.8804,477.9873 L108.8804,504.9873 M95.8804,485.9873 L121.8804,485.9873 M108.8804,504.9873 L95.8804,519.9873 M108.8804,504.9873 L121.8804,519.9873" fill="none" style="stroke:#000000;stroke-width:1;"/><text fill="#000000" font-family="Arial" font-size="14" lengthAdjust="spacing" textLength="195.7607" x="11" y="535.1191">&#1050;&#1086;&#1088;&#1087;&#1086;&#1088;&#1072;&#1090;&#1080;&#1074;&#1085;&#1099;&#1081; &#1087;&#1086;&#1083;&#1100;&#1079;&#1086;&#1074;&#1072;&#1090;&#1077;&#1083;&#1100;</text></g><g class="entity" data-qualified-name="GMN35" data-source-line="47" id="ent0036"><path d="M1336.69,340.7373 L1336.69,357.5373 L1277.19,361.5373 L1336.69,365.5373 L1336.69,382.3359 A0,0 0 0 0 1336.69,382.3359 L1649.3648,382.3359 A0,0 0 0 0 1649.3648,382.3359 L1649.3648,350.7373 L1639.3648,340.7373 L1336.69,340.7373 A0,0 0 0 0 1336.69,340.7373" fill="#FFFFE0" style="stroke:#000000;stroke-width:1;"/><path d="M1639.3648,340.7373 L1639.3648,350.7373 L1649.3648,350.7373 L1639.3648,340.7373" fill="#FFFFE0" style="stroke:#000000;stroke-width:1;"/><text fill="#000000" font-family="Verdana" font-size="13" lengthAdjust="spacing" textLength="291.6748" x="1342.69" y="358.8071">&#1040;&#1091;&#1090;&#1077;&#1085;&#1090;&#1080;&#1092;&#1080;&#1082;&#1072;&#1094;&#1080;&#1103; &#1095;&#1077;&#1088;&#1077;&#1079; &#1082;&#1086;&#1088;&#1087;&#1086;&#1088;&#1072;&#1090;&#1080;&#1074;&#1085;&#1099;&#1081; IdP</text><text fill="#000000" font-family="Verdana" font-size="13" lengthAdjust="spacing" textLength="151.6074" x="1342.69" y="374.6064">(OIDC/SAML 2.0, SSO)</text></g><g class="entity" data-qualified-name="GMN38" data-source-line="52" id="ent0039"><path d="M1003.76,650.7373 L1003.76,692.3359 L1248.4133,692.3359 L1248.4133,660.7373 L1238.4133,650.7373 L1003.76,650.7373" fill="#FFFFE0" style="stroke:#000000;stroke-width:1;"/><path d="M1238.4133,650.7373 L1238.4133,660.7373 L1248.4133,660.7373 L1238.4133,650.7373" fill="#FFFFE0" style="stroke:#000000;stroke-width:1;"/><text fill="#000000" font-family="Verdana" font-size="13" lengthAdjust="spacing" textLength="223.6533" x="1009.76" y="668.8071">&#1048;&#1089;&#1093;&#1086;&#1076;&#1103;&#1097;&#1080;&#1081; &#1074;&#1099;&#1079;&#1086;&#1074; &#1095;&#1077;&#1088;&#1077;&#1079; WebRTC</text><text fill="#000000" font-family="Verdana" font-size="13" lengthAdjust="spacing" textLength="213.6113" x="1009.76" y="684.6064">&#1089; &#1084;&#1072;&#1088;&#1096;&#1088;&#1091;&#1090;&#1080;&#1079;&#1072;&#1094;&#1080;&#1077;&#1081; &#1085;&#1072; SIP/PSTN</text></g><g class="entity" data-qualified-name="GMN41" data-source-line="57" id="ent0042"><path d="M604.67,135.7373 L604.67,177.3359 L915.4849,177.3359 L915.4849,145.7373 L905.4849,135.7373 L604.67,135.7373" fill="#FFFFE0" style="stroke:#000000;stroke-width:1;"/><path d="M905.4849,135.7373 L905.4849,145.7373 L915.4849,145.7373 L905.4849,135.7373" fill="#FFFFE0" style="stroke:#000000;stroke-width:1;"/><text fill="#000000" font-family="Verdana" font-size="13" lengthAdjust="spacing" textLength="289.8149" x="610.67" y="153.8071">&#1057;&#1086;&#1079;&#1076;&#1072;&#1085;&#1080;&#1077; &#1080; &#1091;&#1095;&#1072;&#1089;&#1090;&#1080;&#1077; &#1074; &#1074;&#1080;&#1076;&#1077;&#1086;&#1082;&#1086;&#1085;&#1092;&#1077;&#1088;&#1077;&#1085;&#1094;&#1080;&#1103;&#1093;</text><text fill="#000000" font-family="Verdana" font-size="13" lengthAdjust="spacing" textLength="192.4355" x="610.67" y="169.6064">&#1089; &#1087;&#1086;&#1076;&#1076;&#1077;&#1088;&#1078;&#1082;&#1086;&#1081; &#1095;&#1072;&#1090;&#1072; &#1080; &#1079;&#1072;&#1087;&#1080;&#1089;&#1080;</text></g><g class="entity" data-qualified-name="GMN44" data-source-line="62" id="ent0045"><path d="M609.46,58.7373 L609.46,100.3359 L910.7027,100.3359 L910.7027,68.7373 L900.7027,58.7373 L609.46,58.7373" fill="#FFFFE0" style="stroke:#000000;stroke-width:1;"/><path d="M900.7027,58.7373 L900.7027,68.7373 L910.7027,68.7373 L900.7027,58.7373" fill="#FFFFE0" style="stroke:#000000;stroke-width:1;"/><text fill="#000000" font-family="Verdana" font-size="13" lengthAdjust="spacing" textLength="225.4878" x="615.46" y="76.8071">&#1057;&#1080;&#1085;&#1093;&#1088;&#1086;&#1085;&#1080;&#1079;&#1072;&#1094;&#1080;&#1103; &#1089;&#1086;&#1089;&#1090;&#1086;&#1103;&#1085;&#1080;&#1103; &#1084;&#1077;&#1078;&#1076;&#1091;</text><text fill="#000000" font-family="Verdana" font-size="13" lengthAdjust="spacing" textLength="280.2427" x="615.46" y="92.6064">&#1085;&#1077;&#1089;&#1082;&#1086;&#1083;&#1100;&#1082;&#1080;&#1084;&#1080; &#1091;&#1089;&#1090;&#1088;&#1086;&#1081;&#1089;&#1090;&#1074;&#1072;&#1084;&#1080; &#1087;&#1086;&#1083;&#1100;&#1079;&#1086;&#1074;&#1072;&#1090;&#1077;&#1083;&#1103;</text></g><!--link User to UC_Auth--><g class="link" data-entity-1="ent0002" data-entity-2="ent0004" data-link-type="dependency" data-source-line="22" id="lnk15"><path d="M206.9,476.3873 C436.4,476.3873 989.37,476.3873 989.37,476.3873 C989.37,476.3873 989.37,411.5873 989.37,381.1673" fill="none" id="User-to-UC_Auth" style="stroke:#000000;stroke-width:1;"/><polygon fill="#000000" points="989.37,375.1673,985.37,384.1673,989.37,380.1673,993.37,384.1673,989.37,375.1673" style="stroke:#000000;stroke-width:1;"/></g><!--link User to UC_OutgoingCall--><g class="link" data-entity-1="ent0002" data-entity-2="ent0005" data-link-type="dependency" data-source-line="23" id="lnk16"><path d="M109.37,538.5873 C109.37,565.1673 109.37,595.5373 109.37,595.5373 C109.37,595.5373 464.17,595.5373 648.45,595.5373" fill="none" id="User-to-UC_OutgoingCall" style="stroke:#000000;stroke-width:1;"/><polygon fill="#000000" points="654.45,595.5373,645.45,591.5373,649.45,595.5373,645.45,599.5373,654.45,595.5373" style="stroke:#000000;stroke-width:1;"/></g><!--link User to UC_IncomingCall--><g class="link" data-entity-1="ent0002" data-entity-2="ent0006" data-link-type="dependency" data-source-line="24" id="lnk17"><path d="M207.12,471.2573 C389.12,471.2573 760.37,471.2573 760.37,471.2573 C760.37,471.2573 760.37,469.5773 760.37,461.6673" fill="none" id="User-to-UC_IncomingCall" style="stroke:#000000;stroke-width:1;"/><polygon fill="#000000" points="760.37,455.6673,756.37,464.6673,760.37,460.6673,764.37,464.6673,760.37,455.6673" style="stroke:#000000;stroke-width:1;"/></g><!--link User to UC_Conference--><g class="link" data-entity-1="ent0002" data-entity-2="ent0007" data-link-type="dependency" data-source-line="25" id="lnk18"><path d="M141.37,460.8873 C141.37,414.1073 141.37,341.5373 141.37,341.5373 C141.37,341.5373 242.54,341.5373 320.4,341.5373" fill="none" id="User-to-UC_Conference" style="stroke:#000000;stroke-width:1;"/><polygon fill="#000000" points="326.4,341.5373,317.4,337.5373,321.4,341.5373,317.4,345.5373,326.4,341.5373" style="stroke:#000000;stroke-width:1;"/></g><!--link User to UC_Chat--><g class="link" data-entity-1="ent0002" data-entity-2="ent0008" data-link-type="dependency" data-source-line="26" id="lnk19"><path d="M76.37,460.4973 C76.37,400.3773 76.37,291.9873 76.37,291.9873 C76.37,291.9873 508.26,291.9873 683.17,291.9873" fill="none" id="User-to-UC_Chat" style="stroke:#000000;stroke-width:1;"/><polygon fill="#000000" points="689.17,291.9873,680.17,287.9873,684.17,291.9873,680.17,295.9873,689.17,291.9873" style="stroke:#000000;stroke-width:1;"/></g><!--link User to UC_MultiDevice--><g class="link" data-entity-1="ent0002" data-entity-2="ent0009" data-link-type="dependency" data-source-line="27" id="lnk20"><path d="M207.22,463.5573 C245.95,463.5573 281.37,463.5573 281.37,463.5573 C281.37,463.5573 281.37,324.2773 281.37,278.3073" fill="none" id="User-to-UC_MultiDevice" style="stroke:#000000;stroke-width:1;"/><polygon fill="#000000" points="281.37,272.3073,277.37,281.3073,281.37,277.3073,285.37,281.3073,281.37,272.3073" style="stroke:#000000;stroke-width:1;"/></g><!--link User to UC_MessageHistory--><g class="link" data-entity-1="ent0002" data-entity-2="ent0010" data-link-type="dependency" data-source-line="28" id="lnk21"><path d="M207.12,466.1273 C256.25,466.1273 305.37,466.1273 305.37,466.1273 C305.37,466.1273 305.37,449.0873 305.37,435.4173" fill="none" id="User-to-UC_MessageHistory" style="stroke:#000000;stroke-width:1;"/><polygon fill="#000000" points="305.37,429.4173,301.37,438.4173,305.37,434.4173,309.37,438.4173,305.37,429.4173" style="stroke:#000000;stroke-width:1;"/></g><!--link User to UC_Contacts--><g class="link" data-entity-1="ent0002" data-entity-2="ent0011" data-link-type="dependency" data-source-line="29" id="lnk22"><path d="M206.9,499.5373 C241.52,499.5373 274.29,499.5373 308.33,499.5373" fill="none" id="User-to-UC_Contacts" style="stroke:#000000;stroke-width:1;"/><polygon fill="#000000" points="314.33,499.5373,305.33,495.5373,309.33,499.5373,305.33,503.5373,314.33,499.5373" style="stroke:#000000;stroke-width:1;"/></g><!--link User to UC_Presence--><g class="link" data-entity-1="ent0002" data-entity-2="ent0012" data-link-type="dependency" data-source-line="30" id="lnk23"><path d="M206.88,473.8273 C427.77,473.8273 945.37,473.8273 945.37,473.8273 C945.37,473.8273 945.37,278.3273 945.37,278.3273 C945.37,278.3273 995.96,278.3273 1045.8,278.3273" fill="none" id="User-to-UC_Presence" style="stroke:#000000;stroke-width:1;"/><polygon fill="#000000" points="1051.8,278.3273,1042.8,274.3273,1046.8,278.3273,1042.8,282.3273,1051.8,278.3273" style="stroke:#000000;stroke-width:1;"/></g><!--link User to UC_Recordings--><g class="link" data-entity-1="ent0002" data-entity-2="ent0013" data-link-type="dependency" data-source-line="31" id="lnk24"><path d="M207.08,528.6473 C335.17,528.6473 551.04,528.6473 671.12,528.6473" fill="none" id="User-to-UC_Recordings" style="stroke:#000000;stroke-width:1;"/><polygon fill="#000000" points="677.12,528.6473,668.12,524.6473,672.12,528.6473,668.12,532.6473,677.12,528.6473" style="stroke:#000000;stroke-width:1;"/></g><!--link User to UC_CRMIntegration--><g class="link" data-entity-1="ent0002" data-entity-2="ent0014" data-link-type="dependency" data-source-line="32" id="lnk25"><path d="M207.25,468.6873 C363.37,468.6873 650.37,468.6873 650.37,468.6873 C650.37,468.6873 650.37,397.6973 650.37,374.2373" fill="none" id="User-to-UC_CRMIntegration" style="stroke:#000000;stroke-width:1;"/><polygon fill="#000000" points="650.37,368.2373,646.37,377.2373,650.37,373.2373,654.37,377.2373,650.37,368.2373" style="stroke:#000000;stroke-width:1;"/></g><!--link UC_OutgoingCall to UC_Auth--><g class="link" data-entity-1="ent0005" data-entity-2="ent0004" data-link-type="dependency" data-source-line="35" id="lnk26"><path d="M865.78,595.5373 C928.7,595.5373 996.37,595.5373 996.37,595.5373 C996.37,595.5373 996.37,438.0173 996.37,384.3673" fill="none" id="UC_OutgoingCall-to-UC_Auth" style="stroke:#000000;stroke-width:1;stroke-dasharray:7,7;"/><polygon fill="#000000" points="996.37,378.3673,992.37,387.3673,996.37,383.3673,1000.37,387.3673,996.37,378.3673" style="stroke:#000000;stroke-width:1;"/><text fill="#000000" font-family="Verdana" font-size="13" lengthAdjust="spacing" textLength="62.9624" x="933.37" y="566.3171">&#171;include&#187;</text></g><!--link UC_IncomingCall to UC_Auth--><g class="link" data-entity-1="ent0006" data-entity-2="ent0004" data-link-type="dependency" data-source-line="36" id="lnk27"><path d="M831.64,438.5373 C896.62,438.5373 982.37,438.5373 982.37,438.5373 C982.37,438.5373 982.37,398.4773 982.37,377.6073" fill="none" id="UC_IncomingCall-to-UC_Auth" style="stroke:#000000;stroke-width:1;stroke-dasharray:7,7;"/><polygon fill="#000000" points="982.37,371.6073,978.37,380.6073,982.37,376.6073,986.37,380.6073,982.37,371.6073" style="stroke:#000000;stroke-width:1;"/><text fill="#000000" font-family="Verdana" font-size="13" lengthAdjust="spacing" textLength="62.9624" x="877.47" y="452.6071">&#171;include&#187;</text></g><!--link UC_Conference to UC_Auth--><g class="link" data-entity-1="ent0007" data-entity-2="ent0004" data-link-type="dependency" data-source-line="37" id="lnk28"><path d="M478.09,334.0073 C612.6,334.0073 894.35,334.0073 1036.75,334.0073" fill="none" id="UC_Conference-to-UC_Auth" style="stroke:#000000;stroke-width:1;stroke-dasharray:7,7;"/><polygon fill="#000000" points="1042.75,334.0073,1033.75,330.0073,1037.75,334.0073,1033.75,338.0073,1042.75,334.0073" style="stroke:#000000;stroke-width:1;"/><text fill="#000000" font-family="Verdana" font-size="13" lengthAdjust="spacing" textLength="62.9624" x="697.42" y="331.0771">&#171;include&#187;</text></g><!--link UC_Chat to UC_Auth--><g class="link" data-entity-1="ent0008" data-entity-2="ent0004" data-link-type="dependency" data-source-line="38" id="lnk29"><path d="M828.04,293.3073 C898.48,293.3073 998.37,293.3073 998.37,293.3073 C998.37,293.3073 998.37,317.7573 998.37,337.9673" fill="none" id="UC_Chat-to-UC_Auth" style="stroke:#000000;stroke-width:1;stroke-dasharray:7,7;"/><polygon fill="#000000" points="998.37,343.9673,1002.37,334.9673,998.37,338.9673,994.37,334.9673,998.37,343.9673" style="stroke:#000000;stroke-width:1;"/><text fill="#000000" font-family="Verdana" font-size="13" lengthAdjust="spacing" textLength="62.9624" x="875.53" y="307.3771">&#171;include&#187;</text></g><!--link UC_Recordings to UC_Auth--><g class="link" data-entity-1="ent0013" data-entity-2="ent0004" data-link-type="dependency" data-source-line="39" id="lnk30"><path d="M848.37,500.3473 C848.37,468.5673 848.37,390.3173 848.37,390.3173 C848.37,390.3173 963.76,390.3173 1046.03,390.3173" fill="none" id="UC_Recordings-to-UC_Auth" style="stroke:#000000;stroke-width:1;stroke-dasharray:7,7;"/><polygon fill="#000000" points="1052.03,390.3173,1043.03,386.3173,1047.03,390.3173,1043.03,394.3173,1052.03,390.3173" style="stroke:#000000;stroke-width:1;"/><text fill="#000000" font-family="Verdana" font-size="13" lengthAdjust="spacing" textLength="62.9624" x="832.18" y="404.3871">&#171;include&#187;</text></g><!--link UC_CRMIntegration to UC_Auth--><g class="link" data-entity-1="ent0014" data-entity-2="ent0004" data-link-type="dependency" data-source-line="40" id="lnk31"><path d="M873.38,361.5373 C905.61,361.5373 935.23,361.5373 969.3,361.5373" fill="none" id="UC_CRMIntegration-to-UC_Auth" style="stroke:#000000;stroke-width:1;stroke-dasharray:7,7;"/><polygon fill="#000000" points="975.3,361.5373,966.3,357.5373,970.3,361.5373,966.3,365.5373,975.3,361.5373" style="stroke:#000000;stroke-width:1;"/><text fill="#000000" font-family="Verdana" font-size="13" lengthAdjust="spacing" textLength="62.9624" x="861.34" y="375.6071">&#171;include&#187;</text></g><!--link UC_Conference to UC_Chat--><g class="link" data-entity-1="ent0007" data-entity-2="ent0008" data-link-type="dependency" data-source-line="42" id="lnk32"><path d="M405.37,322.9773 C405.37,310.0973 405.37,295.2473 405.37,295.2473 C405.37,295.2473 590.67,295.2473 692.29,295.2473" fill="none" id="UC_Conference-to-UC_Chat" style="stroke:#000000;stroke-width:1;stroke-dasharray:7,7;"/><polygon fill="#000000" points="698.29,295.2473,689.29,291.2473,693.29,295.2473,689.29,299.2473,698.29,295.2473" style="stroke:#000000;stroke-width:1;"/><text fill="#000000" font-family="Verdana" font-size="13" lengthAdjust="spacing" textLength="62.9624" x="474.97" y="309.3171">&#171;include&#187;</text></g><!--link UC_Chat to UC_Presence--><g class="link" data-entity-1="ent0008" data-entity-2="ent0012" data-link-type="dependency" data-source-line="43" id="lnk33"><path d="M822.17,271.8173 C879.58,271.8173 959.73,271.8173 1025.67,271.8173" fill="none" id="UC_Chat-to-UC_Presence" style="stroke:#000000;stroke-width:1;stroke-dasharray:7,7;"/><polygon fill="#000000" points="1031.67,271.8173,1022.67,267.8173,1026.67,271.8173,1022.67,275.8173,1031.67,271.8173" style="stroke:#000000;stroke-width:1;"/><text fill="#000000" font-family="Verdana" font-size="13" lengthAdjust="spacing" textLength="62.9624" x="863.92" y="285.8871">&#171;include&#187;</text></g><!--link UC_MessageHistory to UC_Chat--><g class="link" data-entity-1="ent0010" data-entity-2="ent0008" data-link-type="dependency" data-source-line="44" id="lnk34"><path d="M500.37,407.0373 C500.37,376.1173 500.37,298.5173 500.37,298.5173 C500.37,298.5173 631.47,298.5173 706.44,298.5173" fill="none" id="UC_MessageHistory-to-UC_Chat" style="stroke:#000000;stroke-width:1;stroke-dasharray:7,7;"/><polygon fill="#000000" points="712.44,298.5173,703.44,294.5173,707.44,298.5173,703.44,302.5173,712.44,298.5173" style="stroke:#000000;stroke-width:1;"/><text fill="#000000" font-family="Verdana" font-size="13" lengthAdjust="spacing" textLength="61.3882" x="553.14" y="312.5871">&#171;extend&#187;</text></g><!--link UC_OutgoingCall to GMN38--><g class="link" data-entity-1="ent0005" data-entity-2="ent0039" data-link-type="association" data-source-line="52" id="lnk40"><path d="M760.37,619.1673 C760.37,641.4773 760.37,671.5373 760.37,671.5373 C760.37,671.5373 897.05,671.5373 1003.29,671.5373" fill="none" id="UC_OutgoingCall-GMN38" style="stroke:#000000;stroke-width:1;stroke-dasharray:7,7;"/></g><!--link UC_Conference to GMN41--><g class="link" data-entity-1="ent0007" data-entity-2="ent0042" data-link-type="association" data-source-line="57" id="lnk43"><path d="M472.51,331.5073 C537.14,331.5073 625.37,331.5073 625.37,331.5073 C625.37,331.5073 625.37,224.1773 625.37,177.6473" fill="none" id="UC_Conference-GMN41" style="stroke:#000000;stroke-width:1;stroke-dasharray:7,7;"/></g><!--link UC_MultiDevice to GMN44--><g class="link" data-entity-1="ent0009" data-entity-2="ent0045" data-link-type="association" data-source-line="62" id="lnk46"><path d="M405.37,228.1773 C405.37,177.1073 405.37,79.5373 405.37,79.5373 C405.37,79.5373 512.59,79.5373 609.14,79.5373" fill="none" id="UC_MultiDevice-GMN44" style="stroke:#000000;stroke-width:1;stroke-dasharray:7,7;"/></g><?plantuml-src dLPTJnD157tVNt7jYvW861y98J7bmIOYX69yDEjsB1lBBkbEZSIO00K_eWd6c6Xyq1WUVAsbfSj7or-O-KUUEzijEmMMQ9fksJltdZdtt3jtkE47NgrH4UH6aP3HTCLtgtLtBPgEv4PDF6buK-kDjPhZI5_M13sA11LTF5H7nQgb3lGcdgVuj6P8VLS3l9-PPqjlmwEj-lg3EY8sgXFzKVNmspQBNNvt7DUJOPqA_n5R06KcL7USkl2a6rH1iA1-gXFsqJi62iH8xQk-Yc68zHjyDnCOs82lTmrjJa4tsKqT8nfkwgX0hnoYHYGyJhYWFkccsRhFx1WjTTLxfEAKPbE_PH-iTWcE0pZnQuicokN5MmddufDx3RbgWN_JMteNtXszfz_pxgGE60z9R1c-0pQr8OXH8SLPRCXgw0VLebkhMNYVnz4kX9O2BroxD1G17P1cwWDakwEwq8ppDhccySKmU2Rg8l245VsRnIUzHSmRPTY4h9rKMCWSZ-9NNMb5xgipqqrjP9qgY9ykW8w77N0C8o08AcynDgl2VvbwPh0N6ZNfpuiN_XYvdnm2lDE46ifcehbHOePbgGVg3pHB21oD04KKkLLntu_GhHlNqqwKsuRvs3opUOU1HDD7kSGCBUxYPb9-Mg-BYBLEKPQ6xnRA5yRW87K62eHwjz2LdEEUEYN3icVQgcrIpZJ3il32UWNTODFwPfBe9iTysEeeRN5vWIQyckyzdvJXf8S66ZKsbag151WXqWy3vxNZt2Jr0qdqpRPyehkiSnkKUYfs-FpIvEJSw51a3LPtPnUitiqkP9hICdElPGtP1h7iTft7e9EwPOsZCcID6J4j05iQ5kQhwHiKoFIrAHvhOcTEKrCZUMY6PcU74tjkpXcJ8j_pN9jh_21MliTvWjSWMHdd-5vEpn39fPVAVz7BBkG5HF5IYg32EmUX55JtgwkImcUPqPmxxdd6cvdOCqVzYekhL5a2qCHYQRuuNRwty83kJjsvJNmDEDYSUETBzXyRwPVT3ADPdYNoM3nTNYaY0WUKhprCtdSyVGsbtl1Iwt8utqRbqjBqKddbOHuJQyAhNzYmXr7UIcUS6SDl0MowbYrjucxEkppqxf0WNvOTziJgeV4z8WEspHTsd9bTE10v7Er93v8njjermwr_dhSPMyFpDS3awIUNzYc87KBO9eV-sqrprNybU-Ta_m80?></g></svg>