<?plantuml 1.2026.0?><svg xmlns="http://www.w3.org/2000/svg" xmlns:xlink="http://www.w3.org/1999/xlink" contentStyleType="text/css" data-diagram-type="DESCRIPTION" height="1169px" preserveAspectRatio="none" style="width:1790px;height:1169px;background:#FFFFFF;" version="1.1" viewBox="0 0 1790 1169" width="1790px" zoomAndPan="magnify"><title>Use Case &#1076;&#1080;&#1072;&#1075;&#1088;&#1072;&#1084;&#1084;&#1072;: &#1050;&#1086;&#1088;&#1087;&#1086;&#1088;&#1072;&#1090;&#1080;&#1074;&#1085;&#1099;&#1081; &#1087;&#1086;&#1083;&#1100;&#1079;&#1086;&#1074;&#1072;&#1090;&#1077;&#1083;&#1100;</title><defs/><g><g class="title" data-source-line="3"><text fill="#000000" font-family="Verdana" font-size="22" font-weight="bold" lengthAdjust="spacing" textLength="659.4844" x="560.9402" y="37.1182">Use Case &#1076;&#1080;&#1072;&#1075;&#1088;&#1072;&#1084;&#1084;&#1072;: &#1050;&#1086;&#1088;&#1087;&#1086;&#1088;&#1072;&#1090;&#1080;&#1074;&#1085;&#1099;&#1081; &#1087;&#1086;&#1083;&#1100;&#1079;&#1086;&#1074;&#1072;&#1090;&#1077;&#1083;&#1100;</text></g><!--cluster ????????? ??????????????? ????????????--><g class="cluster" data-qualified-name="......... ............... ............" data-source-line="7" id="ent0003"><rect fill="#FFFFFF" height="492" rx="7.5" ry="7.5" style="stroke:#000000;stroke-width:1;" width="1169.93" x="253.76" y="193.5373"/><text fill="#000000" font-family="Arial" font-size="14" font-weight="bold" lengthAdjust="spacing" textLength="326.1357" x="675.6571" y="208.6691">&#1055;&#1083;&#1072;&#1090;&#1092;&#1086;&#1088;&#1084;&#1072; &#1059;&#1085;&#1080;&#1092;&#1080;&#1094;&#1080;&#1088;&#1086;&#1074;&#1072;&#1085;&#1085;&#1099;&#1093; &#1050;&#1086;&#1084;&#1084;&#1091;&#1085;&#1080;&#1082;&#1072;&#1094;&#1080;&#1081;</text></g><!--entity UC_Auth--><g class="entity" data-qualified-name="......... ............... .............UC_Auth" data-source-line="8" id="ent0004"><ellipse cx="1257.0927" cy="463.5378" fill="#B9DAF2" rx="150.6027" ry="32.5205" style="stroke:#000000;stroke-width:1;"/><text fill="#000000" font-family="Arial" font-size="14" lengthAdjust="spacing" textLength="284.0195" x="1115.0829" y="468.0872">&#1040;&#1091;&#1090;&#1077;&#1085;&#1090;&#1080;&#1092;&#1080;&#1082;&#1072;&#1094;&#1080;&#1103; &#1080; &#1087;&#1086;&#1083;&#1091;&#1095;&#1077;&#1085;&#1080;&#1077; &#1090;&#1086;&#1082;&#1077;&#1085;&#1072; (SSO)</text></g><!--entity UC_OutgoingCall--><g class="entity" data-qualified-name="......... ............... .............UC_OutgoingCall" data-source-line="9" id="ent0005"><ellipse cx="827.0779" cy="338.5409" fill="#B9DAF2" rx="105.4179" ry="23.4836" style="stroke:#000000;stroke-width:1;"/><text fill="#000000" font-family="Arial" font-size="14" lengthAdjust="spacing" textLength="188.3574" x="732.8991" y="343.0902">&#1048;&#1089;&#1093;&#1086;&#1076;&#1103;&#1097;&#1080;&#1081; &#1075;&#1086;&#1083;&#1086;&#1089;&#1086;&#1074;&#1086;&#1081; &#1074;&#1099;&#1079;&#1086;&#1074;</text></g><!--entity UC_IncomingCall--><g class="entity" data-qualified-name="......... ............... .............UC_IncomingCall" data-source-line="10" id="ent0006"><ellipse cx="827.0791" cy="485.5331" fill="#B9DAF2" rx="71.1791" ry="16.6358" style="stroke:#000000;stroke-width:1;"/><text fill="#000000" font-family="Arial" font-size="14" lengthAdjust="spacing" textLength="110.0654" x="772.0464" y="490.0824">&#1042;&#1093;&#1086;&#1076;&#1103;&#1097;&#1080;&#1081; &#1074;&#1099;&#1079;&#1086;&#1074;</text></g><!--entity UC_Conference--><g class="entity" data-qualified-name="......... ............... .............UC_Conference" data-source-line="11" id="ent0007"><ellipse cx="408.7244" cy="341.5362" fill="#B9DAF2" rx="78.8444" ry="18.1689" style="stroke:#000000;stroke-width:1;"/><text fill="#000000" font-family="Arial" font-size="14" lengthAdjust="spacing" textLength="128.5703" x="344.4392" y="346.0855">&#1042;&#1080;&#1076;&#1077;&#1086;&#1082;&#1086;&#1085;&#1092;&#1077;&#1088;&#1077;&#1085;&#1094;&#1080;&#1103;</text></g><!--entity UC_Chat--><g class="entity" data-qualified-name="......... ............... .............UC_Chat" data-source-line="12" id="ent0008"><ellipse cx="827.0836" cy="415.534" fill="#B9DAF2" rx="79.1836" ry="18.2367" style="stroke:#000000;stroke-width:1;"/><text fill="#000000" font-family="Arial" font-size="14" lengthAdjust="spacing" textLength="129.3701" x="762.3986" y="420.0833">&#1063;&#1072;&#1090; &#1089; &#1089;&#1086;&#1090;&#1088;&#1091;&#1076;&#1085;&#1080;&#1082;&#1072;&#1084;&#1080;</text></g><!--entity UC_MultiDevice--><g class="entity" data-qualified-name="......... ............... .............UC_MultiDevice" data-source-line="13" id="ent0009"><ellipse cx="408.7159" cy="258.5385" fill="#B9DAF2" rx="138.9559" ry="30.1912" style="stroke:#000000;stroke-width:1;"/><text fill="#000000" font-family="Arial" font-size="14" lengthAdjust="spacing" textLength="259.7246" x="278.8536" y="263.0878">&#1059;&#1087;&#1088;&#1072;&#1074;&#1083;&#1077;&#1085;&#1080;&#1077; &#1085;&#1077;&#1089;&#1082;&#1086;&#1083;&#1100;&#1082;&#1080;&#1084;&#1080; &#1091;&#1089;&#1090;&#1088;&#1086;&#1081;&#1089;&#1090;&#1074;&#1072;&#1084;&#1080;</text></g><!--entity UC_MessageHistory--><g class="entity" data-qualified-name="......... ............... .............UC_MessageHistory" data-source-line="14" id="ent0010"><ellipse cx="408.716" cy="419.5365" fill="#B9DAF2" rx="109.746" ry="24.3492" style="stroke:#000000;stroke-width:1;"/><text fill="#000000" font-family="Arial" font-size="14" lengthAdjust="spacing" textLength="197.7363" x="309.8478" y="424.0858">&#1055;&#1088;&#1086;&#1089;&#1084;&#1086;&#1090;&#1088; &#1080;&#1089;&#1090;&#1086;&#1088;&#1080;&#1080; &#1089;&#1086;&#1086;&#1073;&#1097;&#1077;&#1085;&#1080;&#1081;</text></g><!--entity UC_Contacts--><g class="entity" data-qualified-name="......... ............... .............UC_Contacts" data-source-line="15" id="ent0011"><ellipse cx="408.724" cy="499.5361" fill="#B9DAF2" rx="90.894" ry="20.5788" style="stroke:#000000;stroke-width:1;"/><text fill="#000000" font-family="Arial" font-size="14" lengthAdjust="spacing" textLength="156.2764" x="330.5859" y="504.0854">&#1059;&#1087;&#1088;&#1072;&#1074;&#1083;&#1077;&#1085;&#1080;&#1077; &#1082;&#1086;&#1085;&#1090;&#1072;&#1082;&#1090;&#1072;&#1084;&#1080;</text></g><!--entity UC_Presence--><g class="entity" data-qualified-name="......... ............... .............UC_Presence" data-source-line="16" id="ent0012"><ellipse cx="1257.0916" cy="600.5356" fill="#B9DAF2" rx="104.5416" ry="23.3083" style="stroke:#000000;stroke-width:1;"/><text fill="#000000" font-family="Arial" font-size="14" lengthAdjust="spacing" textLength="186.4502" x="1163.8665" y="605.085">&#1055;&#1088;&#1086;&#1089;&#1084;&#1086;&#1090;&#1088; &#1089;&#1090;&#1072;&#1090;&#1091;&#1089;&#1086;&#1074; presence</text></g><!--entity UC_Recordings--><g class="entity" data-qualified-name="......... ............... .............UC_Recordings" data-source-line="17" id="ent0013"><ellipse cx="827.0764" cy="560.5406" fill="#B9DAF2" rx="106.1664" ry="23.6333" style="stroke:#000000;stroke-width:1;"/><text fill="#000000" font-family="Arial" font-size="14" lengthAdjust="spacing" textLength="189.9844" x="732.0842" y="565.0899">&#1044;&#1086;&#1089;&#1090;&#1091;&#1087; &#1082; &#1079;&#1072;&#1087;&#1080;&#1089;&#1103;&#1084; &#1088;&#1072;&#1079;&#1075;&#1086;&#1074;&#1086;&#1088;&#1086;&#1074;</text></g><!--entity UC_CRMIntegration--><g class="entity" data-qualified-name="......... ............... .............UC_CRMIntegration" data-source-line="18" id="ent0014"><ellipse cx="827.0787" cy="644.5391" fill="#B9DAF2" rx="113.2087" ry="25.0417" style="stroke:#000000;stroke-width:1;"/><text fill="#000000" font-family="Arial" font-size="14" lengthAdjust="spacing" textLength="205.1943" x="724.4816" y="649.0884">&#1048;&#1085;&#1090;&#1077;&#1075;&#1088;&#1072;&#1094;&#1080;&#1103; &#1089; CRM (click-to-call)</text></g><!--entity User--><g class="entity" data-qualified-name="User" data-source-line="5" id="ent0002"><ellipse cx="108.8804" cy="614.9873" fill="#FDF5E6" rx="8" ry="8" style="stroke:#000000;stroke-width:1;"/><path d="M108.8804,622.9873 L108.8804,649.9873 M95.8804,630.9873 L121.8804,630.9873 M108.8804,649.9873 L95.8804,664.9873 M108.8804,649.9873 L121.8804,664.9873" fill="none" style="stroke:#000000;stroke-width:1;"/><text fill="#000000" font-family="Arial" font-size="14" lengthAdjust="spacing" textLength="195.7607" x="11" y="680.1191">&#1050;&#1086;&#1088;&#1087;&#1086;&#1088;&#1072;&#1090;&#1080;&#1074;&#1085;&#1099;&#1081; &#1087;&#1086;&#1083;&#1100;&#1079;&#1086;&#1074;&#1072;&#1090;&#1077;&#1083;&#1100;</text></g><g class="entity" data-qualified-name="GMN35" data-source-line="47" id="ent0036"><path d="M1470.69,442.7373 L1470.69,459.5373 L1408.01,463.5373 L1470.69,467.5373 L1470.69,484.3359 A0,0 0 0 0 1470.69,484.3359 L1783.3648,484.3359 A0,0 0 0 0 1783.3648,484.3359 L1783.3648,452.7373 L1773.3648,442.7373 L1470.69,442.7373 A0,0 0 0 0 1470.69,442.7373" fill="#FFFFE0" style="stroke:#000000;stroke-width:1;"/><path d="M1773.3648,442.7373 L1773.3648,452.7373 L1783.3648,452.7373 L1773.3648,442.7373" fill="#FFFFE0" style="stroke:#000000;stroke-width:1;"/><text fill="#000000" font-family="Verdana" font-size="13" lengthAdjust="spacing" textLength="291.6748" x="1476.69" y="460.8071">&#1040;&#1091;&#1090;&#1077;&#1085;&#1090;&#1080;&#1092;&#1080;&#1082;&#1072;&#1094;&#1080;&#1103; &#1095;&#1077;&#1088;&#1077;&#1079; &#1082;&#1086;&#1088;&#1087;&#1086;&#1088;&#1072;&#1090;&#1080;&#1074;&#1085;&#1099;&#1081; IdP</text><text fill="#000000" font-family="Verdana" font-size="13" lengthAdjust="spacing" textLength="151.6074" x="1476.69" y="476.6064">(OIDC/SAML 2.0, SSO)</text></g><g class="entity" data-qualified-name="GMN38" data-source-line="52" id="ent0039"><path d="M1134.76,135.7373 L1134.76,177.3359 L1379.4133,177.3359 L1379.4133,145.7373 L1369.4133,135.7373 L1134.76,135.7373" fill="#FFFFE0" style="stroke:#000000;stroke-width:1;"/><path d="M1369.4133,135.7373 L1369.4133,145.7373 L1379.4133,145.7373 L1369.4133,135.7373" fill="#FFFFE0" style="stroke:#000000;stroke-width:1;"/><text fill="#000000" font-family="Verdana" font-size="13" lengthAdjust="spacing" textLength="223.6533" x="1140.76" y="153.8071">&#1048;&#1089;&#1093;&#1086;&#1076;&#1103;&#1097;&#1080;&#1081; &#1074;&#1099;&#1079;&#1086;&#1074; &#1095;&#1077;&#1088;&#1077;&#1079; WebRTC</text><text fill="#000000" font-family="Verdana" font-size="13" lengthAdjust="spacing" textLength="213.6113" x="1140.76" y="169.6064">&#1089; &#1084;&#1072;&#1088;&#1096;&#1088;&#1091;&#1090;&#1080;&#1079;&#1072;&#1094;&#1080;&#1077;&#1081; &#1085;&#1072; SIP/PSTN</text></g><g class="entity" data-qualified-name="GMN41" data-source-line="57" id="ent0042"><path d="M671.67,135.7373 L671.67,177.3359 L982.4849,177.3359 L982.4849,145.7373 L972.4849,135.7373 L671.67,135.7373" fill="#FFFFE0" style="stroke:#000000;stroke-width:1;"/><path d="M972.4849,135.7373 L972.4849,145.7373 L982.4849,145.7373 L972.4849,135.7373" fill="#FFFFE0" style="stroke:#000000;stroke-width:1;"/><text fill="#000000" font-family="Verdana" font-size="13" lengthAdjust="spacing" textLength="289.8149" x="677.67" y="153.8071">&#1057;&#1086;&#1079;&#1076;&#1072;&#1085;&#1080;&#1077; &#1080; &#1091;&#1095;&#1072;&#1089;&#1090;&#1080;&#1077; &#1074; &#1074;&#1080;&#1076;&#1077;&#1086;&#1082;&#1086;&#1085;&#1092;&#1077;&#1088;&#1077;&#1085;&#1094;&#1080;&#1103;&#1093;</text><text fill="#000000" font-family="Verdana" font-size="13" lengthAdjust="spacing" textLength="192.4355" x="677.67" y="169.6064">&#1089; &#1087;&#1086;&#1076;&#1076;&#1077;&#1088;&#1078;&#1082;&#1086;&#1081; &#1095;&#1072;&#1090;&#1072; &#1080; &#1079;&#1072;&#1087;&#1080;&#1089;&#1080;</text></g><g class="entity" data-qualified-name="GMN44" data-source-line="62" id="ent0045"><path d="M676.46,58.7373 L676.46,100.3359 L977.7027,100.3359 L977.7027,68.7373 L967.7027,58.7373 L676.46,58.7373" fill="#FFFFE0" style="stroke:#000000;stroke-width:1;"/><path d="M967.7027,58.7373 L967.7027,68.7373 L977.7027,68.7373 L967.7027,58.7373" fill="#FFFFE0" style="stroke:#000000;stroke-width:1;"/><text fill="#000000" font-family="Verdana" font-size="13" lengthAdjust="spacing" textLength="225.4878" x="682.46" y="76.8071">&#1057;&#1080;&#1085;&#1093;&#1088;&#1086;&#1085;&#1080;&#1079;&#1072;&#1094;&#1080;&#1103; &#1089;&#1086;&#1089;&#1090;&#1086;&#1103;&#1085;&#1080;&#1103; &#1084;&#1077;&#1078;&#1076;&#1091;</text><text fill="#000000" font-family="Verdana" font-size="13" lengthAdjust="spacing" textLength="280.2427" x="682.46" y="92.6064">&#1085;&#1077;&#1089;&#1082;&#1086;&#1083;&#1100;&#1082;&#1080;&#1084;&#1080; &#1091;&#1089;&#1090;&#1088;&#1086;&#1081;&#1089;&#1090;&#1074;&#1072;&#1084;&#1080; &#1087;&#1086;&#1083;&#1100;&#1079;&#1086;&#1074;&#1072;&#1090;&#1077;&#1083;&#1103;</text></g><!--link User to UC_Auth--><g class="link" data-entity-1="ent0002" data-entity-2="ent0004" data-link-type="dependency" data-source-line="22" id="lnk15"><path d="M119.74,683.4373 C135.84,737.7273 173.47,834.1873 245.76,875.5373 C362.24,942.1573 415.29,897.4573 547.67,875.5373 C721.47,846.7673 969.87,768.3073 1076.49,650.5373 C1105.07,618.9673 1080.4,593.1973 1106.49,559.5373 C1128.32,531.3673 1155.6478,511.9599 1184.8378,495.9699" fill="none" id="User-to-UC_Auth" style="stroke:#000000;stroke-width:1;"/><polygon fill="#000000" points="1190.1,493.0873,1180.285,493.903,1185.7148,495.4895,1184.1284,500.9193,1190.1,493.0873" style="stroke:#000000;stroke-width:1;"/></g><!--link User to UC_OutgoingCall--><g class="link" data-entity-1="ent0002" data-entity-2="ent0005" data-link-type="dependency" data-source-line="23" id="lnk16"><path d="M207.07,638.1973 C300.52,628.2673 442.68,602.7973 547.67,537.5373 C602.87,503.2373 602.96,477.7373 641.67,425.5373 C656.21,405.9373 651.9,393.8473 671.67,379.5373 C690.55,365.8873 707.8664,358.3375 730.4064,352.2675" fill="none" id="User-to-UC_OutgoingCall" style="stroke:#000000;stroke-width:1;"/><polygon fill="#000000" points="736.2,350.7073,726.4695,349.1852,731.372,352.0075,728.5497,356.91,736.2,350.7073" style="stroke:#000000;stroke-width:1;"/></g><!--link User to UC_IncomingCall--><g class="link" data-entity-1="ent0002" data-entity-2="ent0006" data-link-type="dependency" data-source-line="24" id="lnk17"><path d="M207.09,664.9173 C322.8,683.2773 516.11,694.6373 641.67,599.5373 C671.94,576.6173 642.98,544.4173 671.67,519.5373 C694.69,499.5773 720.8321,491.326 749.7921,487.486" fill="none" id="User-to-UC_IncomingCall" style="stroke:#000000;stroke-width:1;"/><polygon fill="#000000" points="755.74,486.6973,746.2923,483.915,750.7834,487.3545,747.3439,491.8456,755.74,486.6973" style="stroke:#000000;stroke-width:1;"/></g><!--link User to UC_Conference--><g class="link" data-entity-1="ent0002" data-entity-2="ent0007" data-link-type="dependency" data-source-line="25" id="lnk18"><path d="M118.5,605.5273 C133.63,546.6273 170.74,435.6873 245.76,377.5373 C269.89,358.8373 295.8829,350.3798 324.9929,345.7998" fill="none" id="User-to-UC_Conference" style="stroke:#000000;stroke-width:1;"/><polygon fill="#000000" points="330.92,344.8673,321.4077,342.3147,325.9808,345.6444,322.6511,350.2175,330.92,344.8673" style="stroke:#000000;stroke-width:1;"/></g><!--link User to UC_Chat--><g class="link" data-entity-1="ent0002" data-entity-2="ent0008" data-link-type="dependency" data-source-line="26" id="lnk19"><path d="M207.19,666.0173 C325.27,685.8973 523.22,698.3973 641.67,592.5373 C689.44,549.8473 626.81,497.2773 671.67,451.5373 C691.52,431.2973 714.4778,422.4806 741.8978,418.0206" fill="none" id="User-to-UC_Chat" style="stroke:#000000;stroke-width:1;"/><polygon fill="#000000" points="747.82,417.0573,738.2946,414.5541,742.8849,417.86,739.5789,422.4503,747.82,417.0573" style="stroke:#000000;stroke-width:1;"/></g><!--link User to UC_MultiDevice--><g class="link" data-entity-1="ent0002" data-entity-2="ent0009" data-link-type="dependency" data-source-line="27" id="lnk20"><path d="M114.39,605.5173 C124.62,535.1473 156.12,386.7373 245.76,305.5373 C259.97,292.6673 271.8994,285.4069 290.1294,278.5969" fill="none" id="User-to-UC_MultiDevice" style="stroke:#000000;stroke-width:1;"/><polygon fill="#000000" points="295.75,276.4973,285.9193,275.8997,291.0661,278.247,288.7188,283.3939,295.75,276.4973" style="stroke:#000000;stroke-width:1;"/></g><!--link User to UC_MessageHistory--><g class="link" data-entity-1="ent0002" data-entity-2="ent0010" data-link-type="dependency" data-source-line="28" id="lnk21"><path d="M128.46,605.8173 C150.57,563.8973 191.45,498.1373 245.76,461.5373 C266.12,447.8273 284.8754,440.1062 308.6454,433.8862" fill="none" id="User-to-UC_MessageHistory" style="stroke:#000000;stroke-width:1;"/><polygon fill="#000000" points="314.45,432.3673,304.7306,430.776,309.6129,433.6331,306.7558,438.5154,314.45,432.3673" style="stroke:#000000;stroke-width:1;"/></g><!--link User to UC_Contacts--><g class="link" data-entity-1="ent0002" data-entity-2="ent0011" data-link-type="dependency" data-source-line="29" id="lnk22"><path d="M152.33,605.5373 C175.77,585.7673 206.25,562.7773 236.76,547.5373 C268.48,531.6973 300.3647,521.8035 332.2947,514.1635" fill="none" id="User-to-UC_Contacts" style="stroke:#000000;stroke-width:1;"/><polygon fill="#000000" points="338.13,512.7673,328.4463,510.9715,333.2673,513.9308,330.3079,518.7518,338.13,512.7673" style="stroke:#000000;stroke-width:1;"/></g><!--link User to UC_Presence--><g class="link" data-entity-1="ent0002" data-entity-2="ent0012" data-link-type="dependency" data-source-line="30" id="lnk23"><path d="M112.54,683.4473 C119.57,752.0273 145.02,892.9573 236.76,954.5373 C546.64,1162.5373 758.44,1149.8173 1076.49,954.5373 C1199.53,878.9973 1240.4711,695.9336 1251.6411,629.7736" fill="none" id="User-to-UC_Presence" style="stroke:#000000;stroke-width:1;"/><polygon fill="#000000" points="1252.64,623.8573,1247.1975,632.0658,1251.8076,628.7875,1255.0859,633.3976,1252.64,623.8573" style="stroke:#000000;stroke-width:1;"/></g><!--link User to UC_Recordings--><g class="link" data-entity-1="ent0002" data-entity-2="ent0013" data-link-type="dependency" data-source-line="31" id="lnk24"><path d="M147.02,683.5073 C170.43,705.1473 202.62,729.9873 236.76,741.5373 C367.65,785.8373 415.03,780.2673 547.67,741.5373 C595.25,727.6473 610.48,720.0573 641.67,681.5373 C665.57,652.0273 643.52,627.0273 671.67,601.5373 C688.12,586.6473 703.6019,578.7092 725.0419,572.5692" fill="none" id="User-to-UC_Recordings" style="stroke:#000000;stroke-width:1;"/><polygon fill="#000000" points="730.81,570.9173,721.0566,569.5497,726.0032,572.2939,723.2591,577.2405,730.81,570.9173" style="stroke:#000000;stroke-width:1;"/></g><!--link User to UC_CRMIntegration--><g class="link" data-entity-1="ent0002" data-entity-2="ent0014" data-link-type="dependency" data-source-line="32" id="lnk25"><path d="M126.29,683.3173 C145.9,724.0173 182.94,785.7373 236.76,812.5373 C397.86,892.7473 473.85,877.5273 641.67,812.5373 C716.39,783.6073 775.8394,713.5718 805.0594,674.2818" fill="none" id="User-to-UC_CRMIntegration" style="stroke:#000000;stroke-width:1;"/><polygon fill="#000000" points="808.64,669.4673,800.0595,674.302,805.6562,673.4794,806.4788,679.0761,808.64,669.4673" style="stroke:#000000;stroke-width:1;"/></g><!--link UC_OutgoingCall to UC_Auth--><g class="link" data-entity-1="ent0005" data-entity-2="ent0004" data-link-type="dependency" data-source-line="35" id="lnk26"><path d="M897.41,356.3473 C924.07,363.3473 954.76,371.6073 982.49,379.5373 C1045.9,397.6873 1111.395,417.8016 1165.275,434.7016" fill="none" id="UC_OutgoingCall-to-UC_Auth" style="stroke:#000000;stroke-width:1;stroke-dasharray:7,7;"/><polygon fill="#000000" points="1171,436.4973,1163.6097,429.9871,1166.2292,435.0009,1161.2154,437.6204,1171,436.4973" style="stroke:#000000;stroke-width:1;"/><text fill="#000000" font-family="Verdana" font-size="13" lengthAdjust="spacing" textLength="62.9624" x="1013.49" y="387.4671">&#171;include&#187;</text></g><!--link UC_IncomingCall to UC_Auth--><g class="link" data-entity-1="ent0006" data-entity-2="ent0004" data-link-type="dependency" data-source-line="36" id="lnk27"><path d="M896.85,482.0073 C954.27,479.0573 1032.1179,475.0559 1104.3579,471.3359" fill="none" id="UC_IncomingCall-to-UC_Auth" style="stroke:#000000;stroke-width:1;stroke-dasharray:7,7;"/><polygon fill="#000000" points="1110.35,471.0273,1101.1562,467.4954,1105.3566,471.2844,1101.5676,475.4849,1110.35,471.0273" style="stroke:#000000;stroke-width:1;"/><text fill="#000000" font-family="Verdana" font-size="13" lengthAdjust="spacing" textLength="62.9624" x="1013.49" y="470.2971">&#171;include&#187;</text></g><!--link UC_Conference to UC_Auth--><g class="link" data-entity-1="ent0007" data-entity-2="ent0004" data-link-type="dependency" data-source-line="37" id="lnk28"><path d="M467.37,329.0173 C520.22,318.2173 600.79,303.4473 671.67,297.5373 C809.33,286.0573 849.45,260.3373 982.49,297.5373 C1075.86,323.6473 1164.398,387.5203 1214.288,427.9403" fill="none" id="UC_Conference-to-UC_Auth" style="stroke:#000000;stroke-width:1;stroke-dasharray:7,7;"/><polygon fill="#000000" points="1218.95,431.7173,1214.4751,422.9438,1215.065,428.5698,1209.439,429.1597,1218.95,431.7173" style="stroke:#000000;stroke-width:1;"/><text fill="#000000" font-family="Verdana" font-size="13" lengthAdjust="spacing" textLength="62.9624" x="796.08" y="275.2171">&#171;include&#187;</text></g><!--link UC_Chat to UC_Auth--><g class="link" data-entity-1="ent0008" data-entity-2="ent0004" data-link-type="dependency" data-source-line="38" id="lnk29"><path d="M898.76,423.4673 C959.42,430.2673 1042.5673,439.599 1116.6173,447.899" fill="none" id="UC_Chat-to-UC_Auth" style="stroke:#000000;stroke-width:1;stroke-dasharray:7,7;"/><polygon fill="#000000" points="1122.58,448.5673,1114.0816,443.5897,1117.6111,448.0104,1113.1905,451.5399,1122.58,448.5673" style="stroke:#000000;stroke-width:1;"/><text fill="#000000" font-family="Verdana" font-size="13" lengthAdjust="spacing" textLength="62.9624" x="1013.49" y="433.7371">&#171;include&#187;</text></g><!--link UC_Recordings to UC_Auth--><g class="link" data-entity-1="ent0013" data-entity-2="ent0004" data-link-type="dependency" data-source-line="39" id="lnk30"><path d="M894.2,579.2573 C945.16,590.5073 1016.76,599.3673 1076.49,580.5373 C1092.01,575.6473 1092.97,568.6073 1106.49,559.5373 C1139.55,537.3673 1172.2113,516.378 1201.5113,497.818" fill="none" id="UC_Recordings-to-UC_Auth" style="stroke:#000000;stroke-width:1;stroke-dasharray:7,7;"/><polygon fill="#000000" points="1206.58,494.6073,1196.8365,496.0443,1202.3561,497.2829,1201.1175,502.8025,1206.58,494.6073" style="stroke:#000000;stroke-width:1;"/><text fill="#000000" font-family="Verdana" font-size="13" lengthAdjust="spacing" textLength="62.9624" x="1013.49" y="577.6071">&#171;include&#187;</text></g><!--link UC_CRMIntegration to UC_Auth--><g class="link" data-entity-1="ent0014" data-entity-2="ent0004" data-link-type="dependency" data-source-line="40" id="lnk31"><path d="M933.57,653.4073 C980.89,652.3373 1035.21,643.6373 1076.49,615.5373 C1099.83,599.6573 1087.32,580.2773 1106.49,559.5373 C1131.41,532.5673 1160.2603,512.8684 1189.6003,496.3684" fill="none" id="UC_CRMIntegration-to-UC_Auth" style="stroke:#000000;stroke-width:1;stroke-dasharray:7,7;"/><polygon fill="#000000" points="1194.83,493.4273,1185.0247,494.3524,1190.4719,495.8782,1188.9461,501.3254,1194.83,493.4273" style="stroke:#000000;stroke-width:1;"/><text fill="#000000" font-family="Verdana" font-size="13" lengthAdjust="spacing" textLength="62.9624" x="1013.49" y="612.6071">&#171;include&#187;</text></g><!--link UC_Conference to UC_Chat--><g class="link" data-entity-1="ent0007" data-entity-2="ent0008" data-link-type="dependency" data-source-line="42" id="lnk32"><path d="M472.05,352.6173 C550.54,366.5673 678.7226,389.3471 757.4126,403.3371" fill="none" id="UC_Conference-to-UC_Chat" style="stroke:#000000;stroke-width:1;stroke-dasharray:7,7;"/><polygon fill="#000000" points="763.32,404.3873,755.1591,398.8737,758.3972,403.5121,753.7588,406.7502,763.32,404.3873" style="stroke:#000000;stroke-width:1;"/><text fill="#000000" font-family="Verdana" font-size="13" lengthAdjust="spacing" textLength="62.9624" x="578.67" y="368.9771">&#171;include&#187;</text></g><!--link UC_Chat to UC_Presence--><g class="link" data-entity-1="ent0008" data-entity-2="ent0012" data-link-type="dependency" data-source-line="43" id="lnk33"><path d="M902.98,420.9673 C930.01,425.8773 959.5,434.9473 982.49,451.5373 C1003.19,466.4873 993.05,483.9873 1012.49,500.5373 C1061.82,542.5573 1125.4432,567.0506 1177.5532,582.0206" fill="none" id="UC_Chat-to-UC_Presence" style="stroke:#000000;stroke-width:1;stroke-dasharray:7,7;"/><polygon fill="#000000" points="1183.32,583.6773,1175.7743,577.3478,1178.5144,582.2968,1173.5654,585.0368,1183.32,583.6773" style="stroke:#000000;stroke-width:1;"/><text fill="#000000" font-family="Verdana" font-size="13" lengthAdjust="spacing" textLength="62.9624" x="1013.49" y="497.6071">&#171;include&#187;</text></g><!--link UC_MessageHistory to UC_Chat--><g class="link" data-entity-1="ent0010" data-entity-2="ent0008" data-link-type="dependency" data-source-line="44" id="lnk34"><path d="M518.84,418.4873 C590.64,417.7973 676.9403,416.9749 741.5603,416.3549" fill="none" id="UC_MessageHistory-to-UC_Chat" style="stroke:#000000;stroke-width:1;stroke-dasharray:7,7;"/><polygon fill="#000000" points="747.56,416.2973,738.522,412.3838,742.5602,416.3453,738.5988,420.3835,747.56,416.2973" style="stroke:#000000;stroke-width:1;"/><text fill="#000000" font-family="Verdana" font-size="13" lengthAdjust="spacing" textLength="61.3882" x="579.17" y="414.4871">&#171;extend&#187;</text></g><!--link UC_OutgoingCall to GMN38--><g class="link" data-entity-1="ent0005" data-entity-2="ent0039" data-link-type="association" data-source-line="52" id="lnk40"><path d="M895.9,320.3773 C923.34,312.0573 954.97,301.2073 982.49,288.5373 C1041.2,261.5073 1048.4,240.8873 1106.49,212.5373 C1133.53,199.3473 1164.52,187.2773 1191.26,177.7473" fill="none" id="UC_OutgoingCall-GMN38" style="stroke:#000000;stroke-width:1;stroke-dasharray:7,7;"/></g><!--link UC_Conference to GMN41--><g class="link" data-entity-1="ent0007" data-entity-2="ent0042" data-link-type="association" data-source-line="57" id="lnk43"><path d="M483.6,335.5173 C506.23,330.5473 529.83,321.7873 547.67,306.5373 C573.4,284.5473 552.65,259.3273 577.67,236.5373 C609.08,207.9373 650.79,189.5573 691.06,177.7473" fill="none" id="UC_Conference-GMN41" style="stroke:#000000;stroke-width:1;stroke-dasharray:7,7;"/></g><!--link UC_MultiDevice to GMN44--><g class="link" data-entity-1="ent0009" data-entity-2="ent0045" data-link-type="association" data-source-line="62" id="lnk46"><path d="M439.74,228.8373 C471.36,199.3073 523.94,154.9773 577.67,130.5373 C608.33,116.5973 642.85,106.4373 676.18,99.0373" fill="none" id="UC_MultiDevice-GMN44" style="stroke:#000000;stroke-width:1;stroke-dasharray:7,7;"/></g><?plantuml-src dLPTJnD157tVNt7jYvW861y98J7bmIOYX69yDEjsB1lBBkbEZSIO00K_eWd6c6Xyq1WUVAsbfSj7or-O-KUUEzijEmMMQ9fksJltdZdtt3jtkE47NgrH4UH6aP3HTCLtgtLtBPgEv4PDF6buK-kDjPhZI5_M13sA11LTF5H7nQgb3lGcdgVuj6P8VLS3l9-PPqjlmwEj-lg3EY8sgXFzKVNmspQBNNvt7DUJOPqA_n5R06KcL7USkl2a6rH1iA1-gXFsqJi62iH8xQk-Yc68zHjyDnCOs82lTmrjJa4tsKqT8nfkwgX0hnoYHYGyJhYWFkccsRhFx1WjTTLxfEAKPbE_PH-iTWcE0pZnQuicokN5MmddufDx3RbgWN_JMteNtXszfz_pxgGE60z9R1c-0pQr8OXH8SLPRCXgw0VLebkhMNYVnz4kX9O2BroxD1G17P1cwWDakwEwq8ppDhccySKmU2Rg8l245VsRnIUzHSmRPTY4h9rKMCWSZ-9NNMb5xgipqqrjP9qgY9ykW8w77N0C8o08AcynDgl2VvbwPh0N6ZNfpuiN_XYvdnm2lDE46ifcehbHOePbgGVg3pHB21oD04KKkLLntu_GhHlNqqwKsuRvs3opUOU1HDD7kSGCBUxYPb9-Mg-BYBLEKPQ6xnRA5yRW87K62eHwjz2LdEEUEYN3icVQgcrIpZJ3il32UWNTODFwPfBe9iTysEeeRN5vWIQyckyzdvJXf8S66ZKsbag151WXqWy3vxNZt2Jr0qdqpRPyehkiSnkKUYfs-FpIvEJSw51a3LPtPnUitiqkP9hICdElPGtP1h7iTft7e9EwPOsZCcID6J4j05iQ5kQhwHiKoFIrAHvhOcTEKrCZUMY6PcU74tjkpXcJ8j_pN9jh_21MliTvWjSWMHdd-5vEpn39fPVAVz7BBkG5HF5IYg32EmUX55JtgwkImcUPqPmxxdd6cvdOCqVzYekhL5a2qCHYQRuuNRwty83kJjsvJNmDEDYSUETBzXyRwPVT3ADPdYNoM3nTNYaY0WUKhprCtdSyVGsbtl1Iwt8utqRbqjBqKddbOHuJQyAhNzYmXr7UIcUS6SDl0MowbYrjucxEkppqxf0WNvOTziJgeV4z8WEspHTsd9bTE10v7Er93v8njjermwr_dhSPMyFpDS3awIUNzYc87KBO9eV-sqrprNybU-Ta_m80?></g></svg>