<?plantuml 1.2026.1?><svg xmlns="http://www.w3.org/2000/svg" xmlns:xlink="http://www.w3.org/1999/xlink" contentStyleType="text/css" data-diagram-type="DESCRIPTION" height="971px" preserveAspectRatio="none" style="width:1160px;height:971px;background:#FFFFFF;" version="1.1" viewBox="0 0 1160 971" width="1160px" zoomAndPan="magnify"><title>Use Case &#1076;&#1080;&#1072;&#1075;&#1088;&#1072;&#1084;&#1084;&#1072;: &#1040;&#1076;&#1084;&#1080;&#1085;&#1080;&#1089;&#1090;&#1088;&#1072;&#1090;&#1086;&#1088; UC</title><defs/><g><g class="title" data-source-line="3"><text fill="#000000" font-family="Verdana" font-size="22" font-weight="bold" lengthAdjust="spacing" textLength="510.5977" x="320.2755" y="37.1182">Use Case &#1076;&#1080;&#1072;&#1075;&#1088;&#1072;&#1084;&#1084;&#1072;: &#1040;&#1076;&#1084;&#1080;&#1085;&#1080;&#1089;&#1090;&#1088;&#1072;&#1090;&#1086;&#1088; UC</text></g><!--cluster ????????? ??????????????? ????????????--><g class="cluster" data-qualified-name="......... ............... ............" data-source-line="7" id="ent0003"><rect fill="#FFFFFF" height="663" rx="7.5" ry="7.5" style="stroke:#000000;stroke-width:1;" width="630.43" x="180.58" y="59.7373"/><text fill="#000000" font-family="Arial" font-size="14" font-weight="bold" lengthAdjust="spacing" textLength="326.1357" x="332.7271" y="74.8691">&#1055;&#1083;&#1072;&#1090;&#1092;&#1086;&#1088;&#1084;&#1072; &#1059;&#1085;&#1080;&#1092;&#1080;&#1094;&#1080;&#1088;&#1086;&#1074;&#1072;&#1085;&#1085;&#1099;&#1093; &#1050;&#1086;&#1084;&#1084;&#1091;&#1085;&#1080;&#1082;&#1072;&#1094;&#1080;&#1081;</text></g><!--entity UC_ManageUsers--><g class="entity" data-qualified-name="......... ............... .............UC_ManageUsers" data-source-line="8" id="ent0004"><ellipse cx="314.4806" cy="518.7414" fill="#B9DAF2" rx="106.3206" ry="23.6641" style="stroke:#000000;stroke-width:1;"/><text fill="#000000" font-family="Arial" font-size="14" lengthAdjust="spacing" textLength="190.3193" x="219.3209" y="523.2907">&#1059;&#1087;&#1088;&#1072;&#1074;&#1083;&#1077;&#1085;&#1080;&#1077; &#1087;&#1086;&#1083;&#1100;&#1079;&#1086;&#1074;&#1072;&#1090;&#1077;&#1083;&#1103;&#1084;&#1080;</text></g><!--entity UC_ManageNumbers--><g class="entity" data-qualified-name="......... ............... .............UC_ManageNumbers" data-source-line="9" id="ent0005"><ellipse cx="314.476" cy="439.7385" fill="#B9DAF2" rx="87.506" ry="19.9012" style="stroke:#000000;stroke-width:1;"/><text fill="#000000" font-family="Arial" font-size="14" lengthAdjust="spacing" textLength="148.6133" x="240.1694" y="444.2878">&#1059;&#1087;&#1088;&#1072;&#1074;&#1083;&#1077;&#1085;&#1080;&#1077; &#1085;&#1086;&#1084;&#1077;&#1088;&#1072;&#1084;&#1080;</text></g><!--entity UC_ManagePolicies--><g class="entity" data-qualified-name="......... ............... .............UC_ManagePolicies" data-source-line="10" id="ent0006"><ellipse cx="314.4776" cy="358.7368" fill="#B9DAF2" rx="117.8976" ry="25.9795" style="stroke:#000000;stroke-width:1;"/><text fill="#000000" font-family="Arial" font-size="14" lengthAdjust="spacing" textLength="215.2363" x="206.8594" y="363.2861">&#1059;&#1087;&#1088;&#1072;&#1074;&#1083;&#1077;&#1085;&#1080;&#1077; &#1087;&#1086;&#1083;&#1080;&#1090;&#1080;&#1082;&#1072;&#1084;&#1080; &#1076;&#1086;&#1089;&#1090;&#1091;&#1087;&#1072;</text></g><!--entity UC_ManageRouting--><g class="entity" data-qualified-name="......... ............... .............UC_ManageRouting" data-source-line="11" id="ent0007"><ellipse cx="314.4794" cy="601.7392" fill="#B9DAF2" rx="107.9094" ry="23.9819" style="stroke:#000000;stroke-width:1;"/><text fill="#000000" font-family="Arial" font-size="14" lengthAdjust="spacing" textLength="193.7646" x="217.597" y="606.2885">&#1059;&#1087;&#1088;&#1072;&#1074;&#1083;&#1077;&#1085;&#1080;&#1077; &#1084;&#1072;&#1088;&#1096;&#1088;&#1091;&#1090;&#1080;&#1079;&#1072;&#1094;&#1080;&#1077;&#1081;</text></g><!--entity UC_ManageQueues--><g class="entity" data-qualified-name="......... ............... .............UC_ManageQueues" data-source-line="12" id="ent0008"><ellipse cx="314.4836" cy="192.736" fill="#B9DAF2" rx="116.6436" ry="25.7287" style="stroke:#000000;stroke-width:1;"/><text fill="#000000" font-family="Arial" font-size="14" lengthAdjust="spacing" textLength="212.5566" x="208.2053" y="197.2853">&#1059;&#1087;&#1088;&#1072;&#1074;&#1083;&#1077;&#1085;&#1080;&#1077; &#1086;&#1095;&#1077;&#1088;&#1077;&#1076;&#1103;&#1084;&#1080; &#1074;&#1099;&#1079;&#1086;&#1074;&#1086;&#1074;</text></g><!--entity UC_ConfigureSystem--><g class="entity" data-qualified-name="......... ............... .............UC_ConfigureSystem" data-source-line="13" id="ent0009"><ellipse cx="664.6235" cy="399.738" fill="#B9DAF2" rx="89.7535" ry="20.3507" style="stroke:#000000;stroke-width:1;"/><text fill="#000000" font-family="Arial" font-size="14" lengthAdjust="spacing" textLength="153.7061" x="587.7705" y="404.2873">&#1050;&#1086;&#1085;&#1092;&#1080;&#1075;&#1091;&#1088;&#1072;&#1094;&#1080;&#1103; &#1089;&#1080;&#1089;&#1090;&#1077;&#1084;&#1099;</text></g><!--entity UC_ManageIntegrations--><g class="entity" data-qualified-name="......... ............... .............UC_ManageIntegrations" data-source-line="14" id="ent0010"><ellipse cx="314.4804" cy="275.7354" fill="#B9DAF2" rx="98.8404" ry="22.1681" style="stroke:#000000;stroke-width:1;"/><text fill="#000000" font-family="Arial" font-size="14" lengthAdjust="spacing" textLength="173.9609" x="227.5" y="280.2847">&#1059;&#1087;&#1088;&#1072;&#1074;&#1083;&#1077;&#1085;&#1080;&#1077; &#1080;&#1085;&#1090;&#1077;&#1075;&#1088;&#1072;&#1094;&#1080;&#1103;&#1084;&#1080;</text></g><!--entity UC_ViewReports--><g class="entity" data-qualified-name="......... ............... .............UC_ViewReports" data-source-line="15" id="ent0011"><ellipse cx="314.4813" cy="683.7336" fill="#B9DAF2" rx="101.6813" ry="22.7363" style="stroke:#000000;stroke-width:1;"/><text fill="#000000" font-family="Arial" font-size="14" lengthAdjust="spacing" textLength="180.2021" x="224.3802" y="688.2829">&#1055;&#1088;&#1086;&#1089;&#1084;&#1086;&#1090;&#1088; &#1084;&#1077;&#1090;&#1088;&#1080;&#1082; &#1080; &#1086;&#1090;&#1095;&#1105;&#1090;&#1086;&#1074;</text></g><!--entity UC_ConfigVersioning--><g class="entity" data-qualified-name="......... ............... .............UC_ConfigVersioning" data-source-line="16" id="ent0012"><ellipse cx="664.6208" cy="122.7355" fill="#B9DAF2" rx="130.3908" ry="28.4782" style="stroke:#000000;stroke-width:1;"/><text fill="#000000" font-family="Arial" font-size="14" lengthAdjust="spacing" textLength="241.7324" x="543.7546" y="127.2848">&#1059;&#1087;&#1088;&#1072;&#1074;&#1083;&#1077;&#1085;&#1080;&#1077; &#1074;&#1077;&#1088;&#1089;&#1080;&#1103;&#1084;&#1080; &#1082;&#1086;&#1085;&#1092;&#1080;&#1075;&#1091;&#1088;&#1072;&#1094;&#1080;&#1080;</text></g><!--entity UC_ConfigRollback--><g class="entity" data-qualified-name="......... ............... .............UC_ConfigRollback" data-source-line="17" id="ent0013"><ellipse cx="314.4776" cy="113.7348" fill="#B9DAF2" rx="81.0876" ry="18.6175" style="stroke:#000000;stroke-width:1;"/><text fill="#000000" font-family="Arial" font-size="14" lengthAdjust="spacing" textLength="133.834" x="247.5606" y="118.2841">&#1054;&#1090;&#1082;&#1072;&#1090; &#1082;&#1086;&#1085;&#1092;&#1080;&#1075;&#1091;&#1088;&#1072;&#1094;&#1080;&#1080;</text></g><!--entity Admin--><g class="entity" data-qualified-name="Admin" data-source-line="5" id="ent0002"><ellipse cx="73.7915" cy="288.1873" fill="#FDF5E6" rx="8" ry="8" style="stroke:#000000;stroke-width:1;"/><path d="M73.7915,296.1873 L73.7915,323.1873 M60.7915,304.1873 L86.7915,304.1873 M73.7915,323.1873 L60.7915,338.1873 M73.7915,323.1873 L86.7915,338.1873" fill="none" style="stroke:#000000;stroke-width:1;"/><text fill="#000000" font-family="Arial" font-size="14" lengthAdjust="spacing" textLength="125.583" x="11" y="353.3191">&#1040;&#1076;&#1084;&#1080;&#1085;&#1080;&#1089;&#1090;&#1088;&#1072;&#1090;&#1086;&#1088; UC</text></g><g class="entity" data-qualified-name="GMN30" data-source-line="41" id="ent0031"><path d="M492.38,739.0373 L492.38,796.4353 L836.8629,796.4353 L836.8629,749.0373 L826.8629,739.0373 L492.38,739.0373" fill="#FFFFE0" style="stroke:#000000;stroke-width:1;"/><path d="M826.8629,739.0373 L826.8629,749.0373 L836.8629,749.0373 L826.8629,739.0373" fill="#FFFFE0" style="stroke:#000000;stroke-width:1;"/><text fill="#000000" font-family="Verdana" font-size="13" lengthAdjust="spacing" textLength="323.4829" x="498.38" y="757.1071">&#1057;&#1086;&#1079;&#1076;&#1072;&#1085;&#1080;&#1077;, &#1080;&#1079;&#1084;&#1077;&#1085;&#1077;&#1085;&#1080;&#1077;, &#1091;&#1076;&#1072;&#1083;&#1077;&#1085;&#1080;&#1077; &#1087;&#1086;&#1083;&#1100;&#1079;&#1086;&#1074;&#1072;&#1090;&#1077;&#1083;&#1077;&#1081;</text><text fill="#000000" font-family="Verdana" font-size="13" lengthAdjust="spacing" textLength="181.0923" x="498.38" y="772.9064">&#1053;&#1072;&#1079;&#1085;&#1072;&#1095;&#1077;&#1085;&#1080;&#1077; &#1088;&#1086;&#1083;&#1077;&#1081; &#1080; &#1075;&#1088;&#1091;&#1087;&#1087;</text><text fill="#000000" font-family="Verdana" font-size="13" lengthAdjust="spacing" textLength="274.1299" x="498.38" y="788.7058">&#1048;&#1085;&#1090;&#1077;&#1075;&#1088;&#1072;&#1094;&#1080;&#1103; &#1089; &#1082;&#1086;&#1088;&#1087;&#1086;&#1088;&#1072;&#1090;&#1080;&#1074;&#1085;&#1099;&#1084; &#1082;&#1072;&#1090;&#1072;&#1083;&#1086;&#1075;&#1086;&#1084;</text></g><g class="entity" data-qualified-name="GMN33" data-source-line="47" id="ent0034"><path d="M506.38,830.9373 L506.38,872.5359 L822.8634,872.5359 L822.8634,840.9373 L812.8634,830.9373 L506.38,830.9373" fill="#FFFFE0" style="stroke:#000000;stroke-width:1;"/><path d="M812.8634,830.9373 L812.8634,840.9373 L822.8634,840.9373 L812.8634,830.9373" fill="#FFFFE0" style="stroke:#000000;stroke-width:1;"/><text fill="#000000" font-family="Verdana" font-size="13" lengthAdjust="spacing" textLength="295.4834" x="512.38" y="849.0071">&#1053;&#1072;&#1089;&#1090;&#1088;&#1086;&#1081;&#1082;&#1072; &#1087;&#1088;&#1072;&#1074;&#1080;&#1083; &#1084;&#1072;&#1088;&#1096;&#1088;&#1091;&#1090;&#1080;&#1079;&#1072;&#1094;&#1080;&#1080; &#1074;&#1099;&#1079;&#1086;&#1074;&#1086;&#1074;</text><text fill="#000000" font-family="Verdana" font-size="13" lengthAdjust="spacing" textLength="222.6694" x="512.38" y="864.8064">&#1050;&#1086;&#1085;&#1092;&#1080;&#1075;&#1091;&#1088;&#1072;&#1094;&#1080;&#1103; &#1086;&#1095;&#1077;&#1088;&#1077;&#1076;&#1077;&#1081; &#1080; &#1075;&#1088;&#1091;&#1087;&#1087;</text></g><g class="entity" data-qualified-name="GMN36" data-source-line="52" id="ent0037"><path d="M896.86,101.9373 L896.86,118.7373 L795.49,122.7373 L896.86,126.7373 L896.86,143.5359 A0,0 0 0 0 896.86,143.5359 L1153.1486,143.5359 A0,0 0 0 0 1153.1486,143.5359 L1153.1486,111.9373 L1143.1486,101.9373 L896.86,101.9373 A0,0 0 0 0 896.86,101.9373" fill="#FFFFE0" style="stroke:#000000;stroke-width:1;"/><path d="M1143.1486,101.9373 L1143.1486,111.9373 L1153.1486,111.9373 L1143.1486,101.9373" fill="#FFFFE0" style="stroke:#000000;stroke-width:1;"/><text fill="#000000" font-family="Verdana" font-size="13" lengthAdjust="spacing" textLength="222.8345" x="902.86" y="120.0071">&#1042;&#1077;&#1088;&#1089;&#1080;&#1086;&#1085;&#1080;&#1088;&#1086;&#1074;&#1072;&#1085;&#1080;&#1077; &#1082;&#1086;&#1085;&#1092;&#1080;&#1075;&#1091;&#1088;&#1072;&#1094;&#1080;&#1081;</text><text fill="#000000" font-family="Verdana" font-size="13" lengthAdjust="spacing" textLength="235.2886" x="902.86" y="135.8064">&#1089; &#1074;&#1086;&#1079;&#1084;&#1086;&#1078;&#1085;&#1086;&#1089;&#1090;&#1100;&#1102; &#1086;&#1090;&#1082;&#1072;&#1090;&#1072; &#1080;&#1079;&#1084;&#1077;&#1085;&#1077;&#1085;&#1080;&#1081;</text></g><g class="entity" data-qualified-name="GMN39" data-source-line="57" id="ent0040"><path d="M521.9,907.0373 L521.9,964.4353 L807.3307,964.4353 L807.3307,917.0373 L797.3307,907.0373 L521.9,907.0373" fill="#FFFFE0" style="stroke:#000000;stroke-width:1;"/><path d="M797.3307,907.0373 L797.3307,917.0373 L807.3307,917.0373 L797.3307,907.0373" fill="#FFFFE0" style="stroke:#000000;stroke-width:1;"/><text fill="#000000" font-family="Verdana" font-size="13" lengthAdjust="spacing" textLength="264.4307" x="527.9" y="925.1071">&#1055;&#1088;&#1086;&#1089;&#1084;&#1086;&#1090;&#1088; &#1084;&#1077;&#1090;&#1088;&#1080;&#1082; &#1087;&#1088;&#1086;&#1080;&#1079;&#1074;&#1086;&#1076;&#1080;&#1090;&#1077;&#1083;&#1100;&#1085;&#1086;&#1089;&#1090;&#1080;,</text><text fill="#000000" font-family="Verdana" font-size="13" lengthAdjust="spacing" textLength="184.5771" x="527.9" y="940.9064">&#1089;&#1090;&#1072;&#1090;&#1080;&#1089;&#1090;&#1080;&#1082;&#1080; &#1080;&#1089;&#1087;&#1086;&#1083;&#1100;&#1079;&#1086;&#1074;&#1072;&#1085;&#1080;&#1103;,</text><text fill="#000000" font-family="Verdana" font-size="13" lengthAdjust="spacing" textLength="105.4727" x="527.9" y="956.7058">&#1086;&#1090;&#1095;&#1105;&#1090;&#1086;&#1074; &#1087;&#1086; CDR</text></g><!--link Admin to UC_ManageUsers--><g class="link" data-entity-1="ent0002" data-entity-2="ent0004" data-link-type="dependency" data-source-line="21" id="lnk14"><path d="M74.15,356.4973 C74.15,414.8973 74.15,518.7373 74.15,518.7373 C74.15,518.7373 137.48,518.7373 201.67,518.7373" fill="none" id="Admin-to-UC_ManageUsers" style="stroke:#000000;stroke-width:1;"/><polygon fill="#000000" points="207.67,518.7373,198.67,514.7373,202.67,518.7373,198.67,522.7373,207.67,518.7373" style="stroke:#000000;stroke-width:1;"/></g><!--link Admin to UC_ManageNumbers--><g class="link" data-entity-1="ent0002" data-entity-2="ent0005" data-link-type="dependency" data-source-line="22" id="lnk15"><path d="M95.15,356.6773 C95.15,392.3773 95.15,439.7373 95.15,439.7373 C95.15,439.7373 159.51,439.7373 220.53,439.7373" fill="none" id="Admin-to-UC_ManageNumbers" style="stroke:#000000;stroke-width:1;"/><polygon fill="#000000" points="226.53,439.7373,217.53,435.7373,221.53,439.7373,217.53,443.7373,226.53,439.7373" style="stroke:#000000;stroke-width:1;"/></g><!--link Admin to UC_ManagePolicies--><g class="link" data-entity-1="ent0002" data-entity-2="ent0006" data-link-type="dependency" data-source-line="23" id="lnk16"><path d="M137.03,344.5273 C160.85,344.5273 182.55,344.5273 208.88,344.5273" fill="none" id="Admin-to-UC_ManagePolicies" style="stroke:#000000;stroke-width:1;"/><polygon fill="#000000" points="214.88,344.5273,205.88,340.5273,209.88,344.5273,205.88,348.5273,214.88,344.5273" style="stroke:#000000;stroke-width:1;"/></g><!--link Admin to UC_ManageRouting--><g class="link" data-entity-1="ent0002" data-entity-2="ent0007" data-link-type="dependency" data-source-line="24" id="lnk17"><path d="M53.15,356.6273 C53.15,434.4073 53.15,601.7373 53.15,601.7373 C53.15,601.7373 128.41,601.7373 200.3,601.7373" fill="none" id="Admin-to-UC_ManageRouting" style="stroke:#000000;stroke-width:1;"/><polygon fill="#000000" points="206.3,601.7373,197.3,597.7373,201.3,601.7373,197.3,605.7373,206.3,601.7373" style="stroke:#000000;stroke-width:1;"/></g><!--link Admin to UC_ManageQueues--><g class="link" data-entity-1="ent0002" data-entity-2="ent0008" data-link-type="dependency" data-source-line="25" id="lnk18"><path d="M136.96,285.4273 C171.42,285.4273 207.15,285.4273 207.15,285.4273 C207.15,285.4273 207.15,233.1473 207.15,209.0073" fill="none" id="Admin-to-UC_ManageQueues" style="stroke:#000000;stroke-width:1;"/><polygon fill="#000000" points="207.15,203.0073,203.15,212.0073,207.15,208.0073,211.15,212.0073,207.15,203.0073" style="stroke:#000000;stroke-width:1;"/></g><!--link Admin to UC_ConfigureSystem--><g class="link" data-entity-1="ent0002" data-entity-2="ent0009" data-link-type="dependency" data-source-line="26" id="lnk19"><path d="M116.15,356.3573 C116.15,377.2273 116.15,398.7673 116.15,398.7673 C116.15,398.7673 413.07,398.7673 568.67,398.7673" fill="none" id="Admin-to-UC_ConfigureSystem" style="stroke:#000000;stroke-width:1;"/><polygon fill="#000000" points="574.67,398.7673,565.67,394.7673,569.67,398.7673,565.67,402.7673,574.67,398.7673" style="stroke:#000000;stroke-width:1;"/></g><!--link Admin to UC_ManageIntegrations--><g class="link" data-entity-1="ent0002" data-entity-2="ent0010" data-link-type="dependency" data-source-line="27" id="lnk20"><path d="M137.03,291.6673 C169.9,291.6673 204.17,291.6673 238.03,291.6673" fill="none" id="Admin-to-UC_ManageIntegrations" style="stroke:#000000;stroke-width:1;"/><polygon fill="#000000" points="244.03,291.6673,235.03,287.6673,239.03,291.6673,235.03,295.6673,244.03,291.6673" style="stroke:#000000;stroke-width:1;"/></g><!--link Admin to UC_ViewReports--><g class="link" data-entity-1="ent0002" data-entity-2="ent0011" data-link-type="dependency" data-source-line="28" id="lnk21"><path d="M32.15,356.5573 C32.15,450.7573 32.15,683.7373 32.15,683.7373 C32.15,683.7373 125.68,683.7373 206.55,683.7373" fill="none" id="Admin-to-UC_ViewReports" style="stroke:#000000;stroke-width:1;"/><polygon fill="#000000" points="212.55,683.7373,203.55,679.7373,207.55,683.7373,203.55,687.7373,212.55,683.7373" style="stroke:#000000;stroke-width:1;"/></g><!--link Admin to UC_ConfigVersioning--><g class="link" data-entity-1="ent0002" data-entity-2="ent0012" data-link-type="dependency" data-source-line="29" id="lnk22"><path d="M136.59,315.3373 C266.8,315.3373 554.15,315.3373 554.15,315.3373 C554.15,315.3373 554.15,189.8773 554.15,144.1773" fill="none" id="Admin-to-UC_ConfigVersioning" style="stroke:#000000;stroke-width:1;"/><polygon fill="#000000" points="554.15,138.1773,550.15,147.1773,554.15,143.1773,558.15,147.1773,554.15,138.1773" style="stroke:#000000;stroke-width:1;"/></g><!--link Admin to UC_ConfigRollback--><g class="link" data-entity-1="ent0002" data-entity-2="ent0013" data-link-type="dependency" data-source-line="30" id="lnk23"><path d="M74.15,278.8873 C74.15,219.6973 74.15,113.7373 74.15,113.7373 C74.15,113.7373 157.39,113.7373 227.12,113.7373" fill="none" id="Admin-to-UC_ConfigRollback" style="stroke:#000000;stroke-width:1;"/><polygon fill="#000000" points="233.12,113.7373,224.12,109.7373,228.12,113.7373,224.12,117.7373,233.12,113.7373" style="stroke:#000000;stroke-width:1;"/></g><!--link UC_ManageUsers to UC_ConfigureSystem--><g class="link" data-entity-1="ent0004" data-entity-2="ent0009" data-link-type="dependency" data-source-line="33" id="lnk24"><path d="M411.15,508.5773 C411.15,482.0673 411.15,412.8173 411.15,412.8173 C411.15,412.8173 513.34,412.8173 588.35,412.8173" fill="none" id="UC_ManageUsers-to-UC_ConfigureSystem" style="stroke:#000000;stroke-width:1;stroke-dasharray:7,7;"/><polygon fill="#000000" points="594.35,412.8173,585.35,408.8173,589.35,412.8173,585.35,416.8173,594.35,412.8173" style="stroke:#000000;stroke-width:1;"/><text fill="#000000" font-family="Verdana" font-size="13" lengthAdjust="spacing" textLength="62.9624" x="455.87" y="426.8871">&#171;include&#187;</text></g><!--link UC_ManageNumbers to UC_ConfigureSystem--><g class="link" data-entity-1="ent0005" data-entity-2="ent0009" data-link-type="dependency" data-source-line="34" id="lnk25"><path d="M314.15,419.5973 C314.15,412.2873 314.15,405.7873 314.15,405.7873 C314.15,405.7873 468.67,405.7873 572.44,405.7873" fill="none" id="UC_ManageNumbers-to-UC_ConfigureSystem" style="stroke:#000000;stroke-width:1;stroke-dasharray:7,7;"/><polygon fill="#000000" points="578.44,405.7873,569.44,401.7873,573.44,405.7873,569.44,409.7873,578.44,405.7873" style="stroke:#000000;stroke-width:1;"/><text fill="#000000" font-family="Verdana" font-size="13" lengthAdjust="spacing" textLength="62.9624" x="376.39" y="402.8571">&#171;include&#187;</text></g><!--link UC_ManagePolicies to UC_ConfigureSystem--><g class="link" data-entity-1="ent0006" data-entity-2="ent0009" data-link-type="dependency" data-source-line="35" id="lnk26"><path d="M427.15,366.7273 C427.15,376.4973 427.15,391.7373 427.15,391.7373 C427.15,391.7373 507.08,391.7373 575.56,391.7373" fill="none" id="UC_ManagePolicies-to-UC_ConfigureSystem" style="stroke:#000000;stroke-width:1;stroke-dasharray:7,7;"/><polygon fill="#000000" points="581.56,391.7373,572.56,387.7373,576.56,391.7373,572.56,395.7373,581.56,391.7373" style="stroke:#000000;stroke-width:1;"/><text fill="#000000" font-family="Verdana" font-size="13" lengthAdjust="spacing" textLength="62.9624" x="492.85" y="405.8071">&#171;include&#187;</text></g><!--link UC_ManageRouting to UC_ConfigureSystem--><g class="link" data-entity-1="ent0007" data-entity-2="ent0009" data-link-type="dependency" data-source-line="36" id="lnk27"><path d="M416.56,593.7473 C519.77,593.7473 664.15,593.7473 664.15,593.7473 C664.15,593.7473 664.15,476.5473 664.15,426.4973" fill="none" id="UC_ManageRouting-to-UC_ConfigureSystem" style="stroke:#000000;stroke-width:1;stroke-dasharray:7,7;"/><polygon fill="#000000" points="664.15,420.4973,660.15,429.4973,664.15,425.4973,668.15,429.4973,664.15,420.4973" style="stroke:#000000;stroke-width:1;"/><text fill="#000000" font-family="Verdana" font-size="13" lengthAdjust="spacing" textLength="62.9624" x="563.98" y="607.8171">&#171;include&#187;</text></g><!--link UC_ManageQueues to UC_ConfigureSystem--><g class="link" data-entity-1="ent0008" data-entity-2="ent0009" data-link-type="dependency" data-source-line="37" id="lnk28"><path d="M431.4,192.7373 C533.05,192.7373 664.15,192.7373 664.15,192.7373 C664.15,192.7373 664.15,320.7773 664.15,373.1373" fill="none" id="UC_ManageQueues-to-UC_ConfigureSystem" style="stroke:#000000;stroke-width:1;stroke-dasharray:7,7;"/><polygon fill="#000000" points="664.15,379.1373,668.15,370.1373,664.15,374.1373,660.15,370.1373,664.15,379.1373" style="stroke:#000000;stroke-width:1;"/><text fill="#000000" font-family="Verdana" font-size="13" lengthAdjust="spacing" textLength="62.9624" x="577.97" y="206.8071">&#171;include&#187;</text></g><!--link UC_ConfigRollback to UC_ConfigVersioning--><g class="link" data-entity-1="ent0013" data-entity-2="ent0012" data-link-type="dependency" data-source-line="38" id="lnk29"><path d="M395.69,113.7373 C438.62,113.7373 486.24,113.7373 534.28,113.7373" fill="none" id="UC_ConfigRollback-to-UC_ConfigVersioning" style="stroke:#000000;stroke-width:1;stroke-dasharray:7,7;"/><polygon fill="#000000" points="540.28,113.7373,531.28,109.7373,535.28,113.7373,531.28,117.7373,540.28,113.7373" style="stroke:#000000;stroke-width:1;"/><text fill="#000000" font-family="Verdana" font-size="13" lengthAdjust="spacing" textLength="62.9624" x="404.98" y="127.8071">&#171;include&#187;</text></g><!--link UC_ManageUsers to GMN30--><g class="link" data-entity-1="ent0004" data-entity-2="ent0031" data-link-type="association" data-source-line="41" id="lnk32"><path d="M421.08,518.7373 C468.21,518.7373 513.15,518.7373 513.15,518.7373 C513.15,518.7373 513.15,673.0073 513.15,738.6873" fill="none" id="UC_ManageUsers-GMN30" style="stroke:#000000;stroke-width:1;stroke-dasharray:7,7;"/></g><!--link UC_ManageRouting to GMN33--><g class="link" data-entity-1="ent0007" data-entity-2="ent0034" data-link-type="association" data-source-line="47" id="lnk35"><path d="M416.64,609.7273 C442.03,609.7273 462.15,609.7273 462.15,609.7273 C462.15,609.7273 462.15,851.7373 462.15,851.7373 C462.15,851.7373 480.47,851.7373 506.08,851.7373" fill="none" id="UC_ManageRouting-GMN33" style="stroke:#000000;stroke-width:1;stroke-dasharray:7,7;"/></g><!--link UC_ViewReports to GMN39--><g class="link" data-entity-1="ent0011" data-entity-2="ent0040" data-link-type="association" data-source-line="57" id="lnk41"><path d="M314.15,706.5473 C314.15,768.5773 314.15,935.7373 314.15,935.7373 C314.15,935.7373 424.66,935.7373 521.56,935.7373" fill="none" id="UC_ViewReports-GMN39" style="stroke:#000000;stroke-width:1;stroke-dasharray:7,7;"/></g><?plantuml-src bLLDRzD04BtlhnXouTAFUrLLGk720GH1xRLodILOE7Rb3w4A8QL9eKYjA7018K65-0EHKvEqpSTVsFr7p8pj9dRS9bLaIzdTUNxpPkRj0yinxR0kmV1z6VZhTSjeU4RJN_U30rlkXkRQVjYqXGYim9QmxKke6lXI5sgWkggdM_WUug-x0UeBhWvnVQG6-b2tQK-trLYtOBigX646hWULEqzLa0OygZSjHmXFce7XDF2h5NMkhkcKFg9pz3LGVndW29-F-BJKM4L8PQH6-aH_0FKJ5v2Nxj0nTONHU4nTLk2T00XzQL8M5KIPS0eHVY3cep6e2SPUwrFLJq2HNOp_puWr4zokxZur7ACXKGxFNumtOYvngbK1urdOt5iAXLbXgkqa7qAYCenPn0vkT_F0prtRCYsv13BggLlw4puTHk-dQiMaronapGq3osaiHXphOyutLXU9Rg0YVP8AYayUzaKemm9FAj-8geijrk4MeIgVWJvCkWQHX_eaWwcwpYkh4NhovO4VoEPYVjXzZD6RGizNveaJI9o5m7ATFBbpQZTaCiGtzYzmSQcHiJ10kTBoiVvARJtDTSUIRsjot_M29KeIaNoSR2hVLPaWKyQ90ZlOICYsMABVI8GceBqaJCsrxJt3V2FU2_4GCFoGMpYYsK9o-3T2Mdqr43ogiBgwLPo9aesiqKksRbgrP2_hkPAjj6zoEyLMA0dBrJMtFrkY4jGPUKjsRrGZpRvpGGTKGMuJQjc1o8i4Qsjbb643DZTJLzxQ4aNzxXcLINlFi5JrUqOb1LawAAzRFcogTI5EE6uWmRCQhmDmNyrxiVg3hTf7O-mcixG2x6X3dgquMqF3f1EBJ9yia31_uTa-dkoIhwKHVEVm2Pxv7jadeape_8zvVy6nuV73bGc_k-oroL0D8HbGfZHMFRemX7JgGCdUclBKZebWUfcErILXmOsh3DJrxHPVD6R2kirxPrsz9Eqxw9Qua_gMEHnzBNU3SpdAZOgAGJf6N6CSBFMFh8bJFzMVsNap9UVhVdaNnxmzB_3u2TCbV69omRTopEqpoePzXQaI4VgNh24rb8nSeT1jhC0PXUJl3cvBg3wkJPd_1m00?></g></svg>