<?plantuml 1.2026.0?><svg xmlns="http://www.w3.org/2000/svg" xmlns:xlink="http://www.w3.org/1999/xlink" contentStyleType="text/css" data-diagram-type="DESCRIPTION" height="1088px" preserveAspectRatio="none" style="width:1423px;height:1088px;background:#FFFFFF;" version="1.1" viewBox="0 0 1423 1088" width="1423px" zoomAndPan="magnify"><title>Use Case &#1076;&#1080;&#1072;&#1075;&#1088;&#1072;&#1084;&#1084;&#1072;: &#1054;&#1092;&#1080;&#1094;&#1077;&#1088; &#1080;&#1085;&#1092;&#1086;&#1088;&#1084;&#1072;&#1094;&#1080;&#1086;&#1085;&#1085;&#1086;&#1081; &#1073;&#1077;&#1079;&#1086;&#1087;&#1072;&#1089;&#1085;&#1086;&#1089;&#1090;&#1080;</title><defs/><g><g class="title" data-source-line="3"><text fill="#000000" font-family="Verdana" font-size="22" font-weight="bold" lengthAdjust="spacing" textLength="790.1631" x="312.4135" y="37.1182">Use Case &#1076;&#1080;&#1072;&#1075;&#1088;&#1072;&#1084;&#1084;&#1072;: &#1054;&#1092;&#1080;&#1094;&#1077;&#1088; &#1080;&#1085;&#1092;&#1086;&#1088;&#1084;&#1072;&#1094;&#1080;&#1086;&#1085;&#1085;&#1086;&#1081; &#1073;&#1077;&#1079;&#1086;&#1087;&#1072;&#1089;&#1085;&#1086;&#1089;&#1090;&#1080;</text></g><!--cluster ????????? ??????????????? ????????????--><g class="cluster" data-qualified-name="......... ............... ............" data-source-line="7" id="ent0003"><rect fill="#FFFFFF" height="439" rx="7.5" ry="7.5" style="stroke:#000000;stroke-width:1;" width="1094.52" x="323.47" y="132.4273"/><text fill="#000000" font-family="Arial" font-size="14" font-weight="bold" lengthAdjust="spacing" textLength="326.1357" x="707.6621" y="147.5591">&#1055;&#1083;&#1072;&#1090;&#1092;&#1086;&#1088;&#1084;&#1072; &#1059;&#1085;&#1080;&#1092;&#1080;&#1094;&#1080;&#1088;&#1086;&#1074;&#1072;&#1085;&#1085;&#1099;&#1093; &#1050;&#1086;&#1084;&#1084;&#1091;&#1085;&#1080;&#1082;&#1072;&#1094;&#1080;&#1081;</text></g><!--entity UC_SecurityMonitoring--><g class="entity" data-qualified-name="......... ............... .............UC_SecurityMonitoring" data-source-line="8" id="ent0004"><ellipse cx="492.1147" cy="351.4262" fill="#B9DAF2" rx="97.3447" ry="21.8689" style="stroke:#000000;stroke-width:1;"/><text fill="#000000" font-family="Arial" font-size="14" lengthAdjust="spacing" textLength="170.6592" x="406.7851" y="355.9756">&#1052;&#1086;&#1085;&#1080;&#1090;&#1086;&#1088;&#1080;&#1085;&#1075; &#1073;&#1077;&#1079;&#1086;&#1087;&#1072;&#1089;&#1085;&#1086;&#1089;&#1090;&#1080;</text></g><!--entity UC_AccessAudit--><g class="entity" data-qualified-name="......... ............... .............UC_AccessAudit" data-source-line="9" id="ent0005"><ellipse cx="912.5933" cy="188.432" fill="#B9DAF2" rx="92.2733" ry="20.8547" style="stroke:#000000;stroke-width:1;"/><text fill="#000000" font-family="Arial" font-size="14" lengthAdjust="spacing" textLength="159.373" x="832.9068" y="192.9813">&#1040;&#1091;&#1076;&#1080;&#1090; &#1076;&#1086;&#1089;&#1090;&#1091;&#1087;&#1072; &#1082; &#1076;&#1072;&#1085;&#1085;&#1099;&#1084;</text></g><!--entity UC_SecurityPolicies--><g class="entity" data-qualified-name="......... ............... .............UC_SecurityPolicies" data-source-line="10" id="ent0006"><ellipse cx="492.1067" cy="431.4266" fill="#B9DAF2" rx="102.8467" ry="22.9693" style="stroke:#000000;stroke-width:1;"/><text fill="#000000" font-family="Arial" font-size="14" lengthAdjust="spacing" textLength="182.752" x="400.7307" y="435.976">&#1059;&#1087;&#1088;&#1072;&#1074;&#1083;&#1077;&#1085;&#1080;&#1077; &#1087;&#1086;&#1083;&#1080;&#1090;&#1080;&#1082;&#1072;&#1084;&#1080; &#1048;&#1041;</text></g><!--entity UC_SecurityLogs--><g class="entity" data-qualified-name="......... ............... .............UC_SecurityLogs" data-source-line="11" id="ent0007"><ellipse cx="1292.3867" cy="287.4286" fill="#B9DAF2" rx="109.6067" ry="24.3213" style="stroke:#000000;stroke-width:1;"/><text fill="#000000" font-family="Arial" font-size="14" lengthAdjust="spacing" textLength="197.4355" x="1193.6689" y="291.978">&#1055;&#1088;&#1086;&#1089;&#1084;&#1086;&#1090;&#1088; &#1083;&#1086;&#1075;&#1086;&#1074; &#1073;&#1077;&#1079;&#1086;&#1087;&#1072;&#1089;&#1085;&#1086;&#1089;&#1090;&#1080;</text></g><!--entity UC_RecordingAudit--><g class="entity" data-qualified-name="......... ............... .............UC_RecordingAudit" data-source-line="12" id="ent0008"><ellipse cx="1292.3922" cy="386.4297" fill="#B9DAF2" rx="106.0122" ry="23.6024" style="stroke:#000000;stroke-width:1;"/><text fill="#000000" font-family="Arial" font-size="14" lengthAdjust="spacing" textLength="189.6494" x="1197.5675" y="390.9791">&#1044;&#1086;&#1089;&#1090;&#1091;&#1087; &#1082; &#1079;&#1072;&#1087;&#1080;&#1089;&#1103;&#1084; &#1076;&#1083;&#1103; &#1072;&#1091;&#1076;&#1080;&#1090;&#1072;</text></g><!--entity UC_IncidentAnalysis--><g class="entity" data-qualified-name="......... ............... .............UC_IncidentAnalysis" data-source-line="13" id="ent0009"><ellipse cx="912.5861" cy="270.4265" fill="#B9DAF2" rx="120.5461" ry="26.5092" style="stroke:#000000;stroke-width:1;"/><text fill="#000000" font-family="Arial" font-size="14" lengthAdjust="spacing" textLength="220.8828" x="802.1447" y="274.9758">&#1040;&#1085;&#1072;&#1083;&#1080;&#1079; &#1080;&#1085;&#1094;&#1080;&#1076;&#1077;&#1085;&#1090;&#1086;&#1074; &#1073;&#1077;&#1079;&#1086;&#1087;&#1072;&#1089;&#1085;&#1086;&#1089;&#1090;&#1080;</text></g><!--entity UC_AccessControl--><g class="entity" data-qualified-name="......... ............... .............UC_AccessControl" data-source-line="14" id="ent0010"><ellipse cx="492.1128" cy="522.4239" fill="#B9DAF2" rx="152.6328" ry="32.9266" style="stroke:#000000;stroke-width:1;"/><text fill="#000000" font-family="Arial" font-size="14" lengthAdjust="spacing" textLength="288.2373" x="347.9941" y="526.9732">&#1059;&#1087;&#1088;&#1072;&#1074;&#1083;&#1077;&#1085;&#1080;&#1077; &#1087;&#1088;&#1072;&#1074;&#1072;&#1084;&#1080; &#1076;&#1086;&#1089;&#1090;&#1091;&#1087;&#1072; (RBAC/ABAC)</text></g><!--entity UC_SIEMIntegration--><g class="entity" data-qualified-name="......... ............... .............UC_SIEMIntegration" data-source-line="15" id="ent0011"><ellipse cx="492.1084" cy="276.423" fill="#B9DAF2" rx="77.3784" ry="17.8757" style="stroke:#000000;stroke-width:1;"/><text fill="#000000" font-family="Arial" font-size="14" lengthAdjust="spacing" textLength="125.0977" x="429.5596" y="280.9723">&#1048;&#1085;&#1090;&#1077;&#1075;&#1088;&#1072;&#1094;&#1080;&#1103; &#1089; SIEM</text></g><!--entity UC_SecurityReports--><g class="entity" data-qualified-name="......... ............... .............UC_SecurityReports" data-source-line="16" id="ent0012"><ellipse cx="492.1063" cy="195.4226" fill="#B9DAF2" rx="128.1263" ry="28.0253" style="stroke:#000000;stroke-width:1;"/><text fill="#000000" font-family="Arial" font-size="14" lengthAdjust="spacing" textLength="236.9541" x="373.6293" y="199.9719">&#1043;&#1077;&#1085;&#1077;&#1088;&#1072;&#1094;&#1080;&#1103; &#1086;&#1090;&#1095;&#1105;&#1090;&#1086;&#1074; &#1087;&#1086; &#1073;&#1077;&#1079;&#1086;&#1087;&#1072;&#1089;&#1085;&#1086;&#1089;&#1090;&#1080;</text></g><!--entity SecurityOfficer--><g class="entity" data-qualified-name="SecurityOfficer" data-source-line="5" id="ent0002"><ellipse cx="143.7368" cy="321.8873" fill="#FDF5E6" rx="8" ry="8" style="stroke:#000000;stroke-width:1;"/><path d="M143.7368,329.8873 L143.7368,356.8873 M130.7368,337.8873 L156.7368,337.8873 M143.7368,356.8873 L130.7368,371.8873 M143.7368,356.8873 L156.7368,371.8873" fill="none" style="stroke:#000000;stroke-width:1;"/><text fill="#000000" font-family="Arial" font-size="14" lengthAdjust="spacing" textLength="265.4736" x="11" y="387.0191">&#1054;&#1092;&#1080;&#1094;&#1077;&#1088; &#1080;&#1085;&#1092;&#1086;&#1088;&#1084;&#1072;&#1094;&#1080;&#1086;&#1085;&#1085;&#1086;&#1081; &#1073;&#1077;&#1079;&#1086;&#1087;&#1072;&#1089;&#1085;&#1086;&#1089;&#1090;&#1080;</text></g><g class="entity" data-qualified-name="GMN27" data-source-line="38" id="ent0028"><path d="M783.41,679.7373 L783.41,737.1353 L1041.7743,737.1353 L1041.7743,689.7373 L1031.7743,679.7373 L783.41,679.7373" fill="#FFFFE0" style="stroke:#000000;stroke-width:1;"/><path d="M1031.7743,679.7373 L1031.7743,689.7373 L1041.7743,689.7373 L1031.7743,679.7373" fill="#FFFFE0" style="stroke:#000000;stroke-width:1;"/><text fill="#000000" font-family="Verdana" font-size="13" lengthAdjust="spacing" textLength="237.3643" x="789.41" y="697.8071">&#1052;&#1086;&#1085;&#1080;&#1090;&#1086;&#1088;&#1080;&#1085;&#1075; &#1089;&#1086;&#1073;&#1099;&#1090;&#1080;&#1081; &#1073;&#1077;&#1079;&#1086;&#1087;&#1072;&#1089;&#1085;&#1086;&#1089;&#1090;&#1080;</text><text fill="#000000" font-family="Verdana" font-size="13" lengthAdjust="spacing" textLength="181.0605" x="789.41" y="713.6064">&#1074; &#1088;&#1077;&#1072;&#1083;&#1100;&#1085;&#1086;&#1084; &#1074;&#1088;&#1077;&#1084;&#1077;&#1085;&#1080; &#1095;&#1077;&#1088;&#1077;&#1079;</text><text fill="#000000" font-family="Verdana" font-size="13" lengthAdjust="spacing" textLength="126.3691" x="789.41" y="729.4058">Observability Stack</text></g><g class="entity" data-qualified-name="GMN30" data-source-line="44" id="ent0031"><path d="M1180.44,58.7373 L1180.44,116.1353 A0,0 0 0 0 1180.44,116.1353 L1180.44,116.1353 L973.45,172.4273 L1188.44,116.1353 L1404.3428,116.1353 A0,0 0 0 0 1404.3428,116.1353 L1404.3428,68.7373 L1394.3428,58.7373 L1180.44,58.7373 A0,0 0 0 0 1180.44,58.7373" fill="#FFFFE0" style="stroke:#000000;stroke-width:1;"/><path d="M1394.3428,58.7373 L1394.3428,68.7373 L1404.3428,68.7373 L1394.3428,58.7373" fill="#FFFFE0" style="stroke:#000000;stroke-width:1;"/><text fill="#000000" font-family="Verdana" font-size="13" lengthAdjust="spacing" textLength="193.2227" x="1186.44" y="76.8071">&#1040;&#1091;&#1076;&#1080;&#1090; &#1074;&#1089;&#1077;&#1093; &#1087;&#1086;&#1087;&#1099;&#1090;&#1086;&#1082; &#1076;&#1086;&#1089;&#1090;&#1091;&#1087;&#1072;</text><text fill="#000000" font-family="Verdana" font-size="13" lengthAdjust="spacing" textLength="178.7563" x="1186.44" y="92.6064">&#1082; &#1095;&#1091;&#1074;&#1089;&#1090;&#1074;&#1080;&#1090;&#1077;&#1083;&#1100;&#1085;&#1099;&#1084; &#1076;&#1072;&#1085;&#1085;&#1099;&#1084;</text><text fill="#000000" font-family="Verdana" font-size="13" lengthAdjust="spacing" textLength="202.9028" x="1186.44" y="108.4058">(&#1079;&#1072;&#1087;&#1080;&#1089;&#1080;, CDR, &#1082;&#1086;&#1085;&#1092;&#1080;&#1075;&#1091;&#1088;&#1072;&#1094;&#1080;&#1080;)</text></g><g class="entity" data-qualified-name="GMN33" data-source-line="50" id="ent0034"><path d="M768.74,771.8373 L768.74,845.0346 L1056.4368,845.0346 L1056.4368,781.8373 L1046.4368,771.8373 L768.74,771.8373" fill="#FFFFE0" style="stroke:#000000;stroke-width:1;"/><path d="M1046.4368,771.8373 L1046.4368,781.8373 L1056.4368,781.8373 L1046.4368,771.8373" fill="#FFFFE0" style="stroke:#000000;stroke-width:1;"/><text fill="#000000" font-family="Verdana" font-size="13" lengthAdjust="spacing" textLength="266.6968" x="774.74" y="789.9071">&#1059;&#1087;&#1088;&#1072;&#1074;&#1083;&#1077;&#1085;&#1080;&#1077; &#1087;&#1086;&#1083;&#1080;&#1090;&#1080;&#1082;&#1072;&#1084;&#1080; &#1073;&#1077;&#1079;&#1086;&#1087;&#1072;&#1089;&#1085;&#1086;&#1089;&#1090;&#1080;:</text><text fill="#000000" font-family="Verdana" font-size="13" lengthAdjust="spacing" textLength="204.8833" x="774.74" y="805.7064">- &#1055;&#1086;&#1083;&#1080;&#1090;&#1080;&#1082;&#1080; &#1076;&#1086;&#1089;&#1090;&#1091;&#1087;&#1072; &#1082; &#1079;&#1072;&#1087;&#1080;&#1089;&#1103;&#1084;</text><text fill="#000000" font-family="Verdana" font-size="13" lengthAdjust="spacing" textLength="194.1177" x="774.74" y="821.5058">- &#1055;&#1086;&#1083;&#1080;&#1090;&#1080;&#1082;&#1080; retention &#1076;&#1072;&#1085;&#1085;&#1099;&#1093;</text><text fill="#000000" font-family="Verdana" font-size="13" lengthAdjust="spacing" textLength="166.4482" x="774.74" y="837.3051">- &#1055;&#1086;&#1083;&#1080;&#1090;&#1080;&#1082;&#1080; &#1096;&#1080;&#1092;&#1088;&#1086;&#1074;&#1072;&#1085;&#1080;&#1103;</text></g><g class="entity" data-qualified-name="GMN36" data-source-line="57" id="ent0037"><path d="M776.35,587.7373 L776.35,645.1353 L1048.8314,645.1353 L1048.8314,597.7373 L1038.8314,587.7373 L776.35,587.7373" fill="#FFFFE0" style="stroke:#000000;stroke-width:1;"/><path d="M1038.8314,587.7373 L1038.8314,597.7373 L1048.8314,597.7373 L1038.8314,587.7373" fill="#FFFFE0" style="stroke:#000000;stroke-width:1;"/><text fill="#000000" font-family="Verdana" font-size="13" lengthAdjust="spacing" textLength="238.8813" x="782.35" y="605.8071">&#1048;&#1085;&#1090;&#1077;&#1075;&#1088;&#1072;&#1094;&#1080;&#1103; &#1089; &#1082;&#1086;&#1088;&#1087;&#1086;&#1088;&#1072;&#1090;&#1080;&#1074;&#1085;&#1099;&#1084; SIEM</text><text fill="#000000" font-family="Verdana" font-size="13" lengthAdjust="spacing" textLength="251.4814" x="782.35" y="621.6064">&#1076;&#1083;&#1103; &#1094;&#1077;&#1085;&#1090;&#1088;&#1072;&#1083;&#1080;&#1079;&#1086;&#1074;&#1072;&#1085;&#1085;&#1086;&#1075;&#1086; &#1084;&#1086;&#1085;&#1080;&#1090;&#1086;&#1088;&#1080;&#1085;&#1075;&#1072;</text><text fill="#000000" font-family="Verdana" font-size="13" lengthAdjust="spacing" textLength="163.7378" x="782.35" y="637.4058">&#1080; &#1072;&#1085;&#1072;&#1083;&#1080;&#1079;&#1072; &#1073;&#1077;&#1079;&#1086;&#1087;&#1072;&#1089;&#1085;&#1086;&#1089;&#1090;&#1080;</text></g><!--link SecurityOfficer to UC_SecurityMonitoring--><g class="link" data-entity-1="ent0002" data-entity-2="ent0004" data-link-type="dependency" data-source-line="20" id="lnk13"><path d="M276.67,351.4273 C315.77,351.4273 351.84,351.4273 388.28,351.4273" fill="none" id="SecurityOfficer-to-UC_SecurityMonitoring" style="stroke:#000000;stroke-width:1;"/><polygon fill="#000000" points="394.28,351.4273,385.28,347.4273,389.28,351.4273,385.28,355.4273,394.28,351.4273" style="stroke:#000000;stroke-width:1;"/></g><!--link SecurityOfficer to UC_AccessAudit--><g class="link" data-entity-1="ent0002" data-entity-2="ent0005" data-link-type="dependency" data-source-line="21" id="lnk14"><path d="M163.99,312.4673 C190.47,263.8373 243.21,182.9673 315.47,149.4273 C502.45,62.6573 752.7387,132.1686 857.8687,168.4786" fill="none" id="SecurityOfficer-to-UC_AccessAudit" style="stroke:#000000;stroke-width:1;"/><polygon fill="#000000" points="863.54,170.4373,856.3389,163.7183,858.8139,168.805,853.7273,171.28,863.54,170.4373" style="stroke:#000000;stroke-width:1;"/></g><!--link SecurityOfficer to UC_SecurityPolicies--><g class="link" data-entity-1="ent0002" data-entity-2="ent0006" data-link-type="dependency" data-source-line="22" id="lnk15"><path d="M276.67,381.9073 C325.23,393.1173 372.5438,404.0474 413.7738,413.5674" fill="none" id="SecurityOfficer-to-UC_SecurityPolicies" style="stroke:#000000;stroke-width:1;"/><polygon fill="#000000" points="419.62,414.9173,411.7507,408.995,414.7482,413.7924,409.9508,416.7899,419.62,414.9173" style="stroke:#000000;stroke-width:1;"/></g><!--link SecurityOfficer to UC_SecurityLogs--><g class="link" data-entity-1="ent0002" data-entity-2="ent0007" data-link-type="dependency" data-source-line="23" id="lnk16"><path d="M168.74,390.2473 C199,437.1273 254.49,516.6273 315.47,572.4273 C576.37,811.1673 778.74,1081.3973 1056.44,862.4273 C1241.99,716.1273 1035.14,531.7773 1180.44,345.4273 C1193.27,328.9773 1206.6743,319.3108 1225.1743,310.4008" fill="none" id="SecurityOfficer-to-UC_SecurityLogs" style="stroke:#000000;stroke-width:1;"/><polygon fill="#000000" points="1230.58,307.7973,1220.7358,308.0988,1226.0752,309.9669,1224.2071,315.3064,1230.58,307.7973" style="stroke:#000000;stroke-width:1;"/></g><!--link SecurityOfficer to UC_RecordingAudit--><g class="link" data-entity-1="ent0002" data-entity-2="ent0008" data-link-type="dependency" data-source-line="24" id="lnk17"><path d="M149.63,390.1173 C165.4,507.9173 219,858.2373 306.47,924.4273 C456.02,1037.6073 1001.96,1039.0173 1150.44,924.4273 C1234.8,859.3173 1277.8315,512.4222 1288.2615,416.4822" fill="none" id="SecurityOfficer-to-UC_RecordingAudit" style="stroke:#000000;stroke-width:1;"/><polygon fill="#000000" points="1288.91,410.5173,1283.9607,419.0323,1288.3696,415.488,1291.9139,419.8969,1288.91,410.5173" style="stroke:#000000;stroke-width:1;"/></g><!--link SecurityOfficer to UC_IncidentAnalysis--><g class="link" data-entity-1="ent0002" data-entity-2="ent0009" data-link-type="dependency" data-source-line="25" id="lnk18"><path d="M163.99,312.4673 C190.47,263.8373 243.21,182.9673 315.47,149.4273 C448.21,87.8273 499.93,128.3273 644.74,149.4273 C687.88,155.7173 704.18,150.8573 738.74,177.4273 C758.98,192.9973 748.57,210.7773 768.74,226.4273 C783.81,238.1273 796.3297,244.7758 814.5997,251.0958" fill="none" id="SecurityOfficer-to-UC_IncidentAnalysis" style="stroke:#000000;stroke-width:1;"/><polygon fill="#000000" points="820.27,253.0573,813.0722,246.3349,815.5447,251.4227,810.4569,253.8953,820.27,253.0573" style="stroke:#000000;stroke-width:1;"/></g><!--link SecurityOfficer to UC_AccessControl--><g class="link" data-entity-1="ent0002" data-entity-2="ent0010" data-link-type="dependency" data-source-line="26" id="lnk19"><path d="M191.04,390.3373 C223.97,416.3673 270.24,449.7173 315.47,471.4273 C337.8,482.1473 357.0844,489.3488 381.0844,496.5688" fill="none" id="SecurityOfficer-to-UC_AccessControl" style="stroke:#000000;stroke-width:1;"/><polygon fill="#000000" points="386.83,498.2973,379.3639,491.8742,382.042,496.8569,377.0592,499.535,386.83,498.2973" style="stroke:#000000;stroke-width:1;"/></g><!--link SecurityOfficer to UC_SIEMIntegration--><g class="link" data-entity-1="ent0002" data-entity-2="ent0011" data-link-type="dependency" data-source-line="27" id="lnk20"><path d="M276.57,321.0073 C289.7,318.0673 302.84,315.1673 315.47,312.4273 C354.41,303.9973 392.4384,296.1833 426.6084,289.2933" fill="none" id="SecurityOfficer-to-UC_SIEMIntegration" style="stroke:#000000;stroke-width:1;"/><polygon fill="#000000" points="432.49,288.1073,422.8769,285.9652,427.5886,289.0956,424.4582,293.8073,432.49,288.1073" style="stroke:#000000;stroke-width:1;"/></g><!--link SecurityOfficer to UC_SecurityReports--><g class="link" data-entity-1="ent0002" data-entity-2="ent0012" data-link-type="dependency" data-source-line="28" id="lnk21"><path d="M195.74,312.4573 C228.47,289.0473 272.7,260.2373 315.47,241.4273 C340.87,230.2673 363.7411,222.8495 390.4611,215.9395" fill="none" id="SecurityOfficer-to-UC_SecurityReports" style="stroke:#000000;stroke-width:1;"/><polygon fill="#000000" points="396.27,214.4373,386.5552,212.818,391.4293,215.6892,388.5581,220.5632,396.27,214.4373" style="stroke:#000000;stroke-width:1;"/></g><!--link UC_AccessAudit to UC_SecurityLogs--><g class="link" data-entity-1="ent0005" data-entity-2="ent0007" data-link-type="dependency" data-source-line="31" id="lnk22"><path d="M974.29,204.3373 C1041.35,221.9073 1143.4159,248.6566 1214.4059,267.2566" fill="none" id="UC_AccessAudit-to-UC_SecurityLogs" style="stroke:#000000;stroke-width:1;stroke-dasharray:7,7;"/><polygon fill="#000000" points="1220.21,268.7773,1212.5177,262.6268,1215.3733,267.51,1210.4901,270.3656,1220.21,268.7773" style="stroke:#000000;stroke-width:1;"/><text fill="#000000" font-family="Verdana" font-size="13" lengthAdjust="spacing" textLength="62.9624" x="1087.44" y="232.0371">&#171;include&#187;</text></g><!--link UC_IncidentAnalysis to UC_SecurityLogs--><g class="link" data-entity-1="ent0009" data-entity-2="ent0007" data-link-type="dependency" data-source-line="32" id="lnk23"><path d="M1031.05,275.7173 C1080.12,277.9273 1130.7261,280.1968 1178.5961,282.3568" fill="none" id="UC_IncidentAnalysis-to-UC_SecurityLogs" style="stroke:#000000;stroke-width:1;stroke-dasharray:7,7;"/><polygon fill="#000000" points="1184.59,282.6273,1175.7795,278.2257,1179.5951,282.4019,1175.4188,286.2176,1184.59,282.6273" style="stroke:#000000;stroke-width:1;"/><text fill="#000000" font-family="Verdana" font-size="13" lengthAdjust="spacing" textLength="62.9624" x="1087.44" y="275.4871">&#171;include&#187;</text></g><!--link UC_IncidentAnalysis to UC_RecordingAudit--><g class="link" data-entity-1="ent0009" data-entity-2="ent0008" data-link-type="dependency" data-source-line="33" id="lnk24"><path d="M984.21,292.1173 C1054.47,313.6873 1155.5344,344.7158 1222.9044,365.4058" fill="none" id="UC_IncidentAnalysis-to-UC_RecordingAudit" style="stroke:#000000;stroke-width:1;stroke-dasharray:7,7;"/><polygon fill="#000000" points="1228.64,367.1673,1221.2109,360.7014,1223.8603,365.6994,1218.8623,368.3489,1228.64,367.1673" style="stroke:#000000;stroke-width:1;"/><text fill="#000000" font-family="Verdana" font-size="13" lengthAdjust="spacing" textLength="62.9624" x="1087.44" y="322.0271">&#171;include&#187;</text></g><!--link UC_SecurityReports to UC_SecurityLogs--><g class="link" data-entity-1="ent0012" data-entity-2="ent0007" data-link-type="dependency" data-source-line="34" id="lnk25"><path d="M579.64,216.2573 C601.44,222.9673 624.41,231.3273 644.74,241.4273 C705.72,271.7373 703.97,310.4073 768.74,331.4273 C928.97,383.4473 1124.8091,339.0183 1224.2991,309.4183" fill="none" id="UC_SecurityReports-to-UC_SecurityLogs" style="stroke:#000000;stroke-width:1;stroke-dasharray:7,7;"/><polygon fill="#000000" points="1230.05,307.7073,1220.283,306.4399,1225.2576,309.1331,1222.5643,314.1077,1230.05,307.7073" style="stroke:#000000;stroke-width:1;"/><text fill="#000000" font-family="Verdana" font-size="13" lengthAdjust="spacing" textLength="62.9624" x="881.59" y="328.4971">&#171;include&#187;</text></g><!--link UC_SecurityReports to UC_AccessAudit--><g class="link" data-entity-1="ent0012" data-entity-2="ent0005" data-link-type="dependency" data-source-line="35" id="lnk26"><path d="M620.37,193.3073 C684.81,192.2273 755.5808,191.0377 814.1208,190.0577" fill="none" id="UC_SecurityReports-to-UC_AccessAudit" style="stroke:#000000;stroke-width:1;stroke-dasharray:7,7;"/><polygon fill="#000000" points="820.12,189.9573,811.0543,186.1085,815.1207,190.041,811.1882,194.1074,820.12,189.9573" style="stroke:#000000;stroke-width:1;"/><text fill="#000000" font-family="Verdana" font-size="13" lengthAdjust="spacing" textLength="62.9624" x="675.74" y="188.5871">&#171;include&#187;</text></g><!--link UC_SecurityMonitoring to GMN27--><g class="link" data-entity-1="ent0004" data-entity-2="ent0028" data-link-type="association" data-source-line="38" id="lnk29"><path d="M584.18,358.8373 C606.56,364.7673 628.67,374.7773 644.74,391.4273 C686.81,435.0473 650.59,468.8573 674.74,524.4273 C704.31,592.4973 709.31,617.9873 768.74,662.4273 C777.4,668.9073 787,674.4973 797.02,679.3073" fill="none" id="UC_SecurityMonitoring-GMN27" style="stroke:#000000;stroke-width:1;stroke-dasharray:7,7;"/></g><!--link UC_SecurityPolicies to GMN33--><g class="link" data-entity-1="ent0006" data-entity-2="ent0034" data-link-type="association" data-source-line="50" id="lnk35"><path d="M588.31,439.9673 C609.45,446.1573 629.93,456.2273 644.74,472.4273 C696.78,529.4073 642,573.5573 674.74,643.4273 C702.17,701.9673 715.93,717.1473 768.74,754.4273 C777.62,760.6973 787.32,766.3473 797.35,771.4073" fill="none" id="UC_SecurityPolicies-GMN33" style="stroke:#000000;stroke-width:1;stroke-dasharray:7,7;"/></g><!--link UC_SIEMIntegration to GMN36--><g class="link" data-entity-1="ent0011" data-entity-2="ent0037" data-link-type="association" data-source-line="57" id="lnk38"><path d="M567.61,280.8873 C594.26,285.6873 623.05,294.9373 644.74,312.4273 C669.57,332.4573 744.64,550.5173 768.74,571.4273 C775.71,577.4773 783.5,582.7173 791.73,587.2573" fill="none" id="UC_SIEMIntegration-GMN36" style="stroke:#000000;stroke-width:1;stroke-dasharray:7,7;"/></g><?plantuml-src fLPTInj157tVNp7DInNyU1SHqhGFGiMY-2phPaoNnbtPdHIa58pMMcX1fOLAAVN1Fn1N5rUDoL-uyuzwxkHpasnCAO4XEtlldNFElNFlFdCzfrmfIc67eLJXVD6rIu6z4yw7QgyiDolEt6vbfsnPobLbAJP2AGes5hgXX6fqhVUnrl6hBGZwepzHeZzJhFS5NZ_YiG43lCHcGWrwnAz1TuAkAAPR_6tYLPKtTLKVK69PjgFyGEJ-FrGEXCIwT2g1g_PMjxTTHmQM5KX7sLu9J79qGGzmEUX55dG9_wHzSeBD1aMWXwFqLtqaw1Ssm5KViXdTjx7SvSG7IuXAA1rM9aU_3Rm4A3WmmDFrU9WRXSqEqXNVSw60wvLI8KznvWs7PE6DApQQ3FcUTzeOgTu9btSS6ORvIj5LgJYNr3GPYy0zDYnYWJWDF39UGmeK4q7dT3Q8xOrVTXrNXgc85omJ6DMn7d2o7X3jcfMRcFDhlvIE-QD7qH2y1QWc05Rr2TMPxuC-4OZPreHgdOXhql638iGRPdwAysjCasvR1SMfks4HE4yJe5ts7BSeFPNtxF9Uw8OJwDhUQYkQJjpKsejyOJwFPJgTj8BlgS0lfyAV6vHnwxgPsZmHkYhMbr-jTCN4_sLFILnUvVfUolsxmHJtEPja7Ukp3dUKmCJfMfExVg12wwDbFUSxRqn1amim1YoAaAPRNEQ1soTcPvSoIZt3ih-AdmZMhSqdx4ojPTWCL4-6rL0TZ0NVoMOMh86iFO6-8pqB_zFK5Yu5YgtURQ1frSJSt11xiI0M5zjDVsd96i7e_xpIAWxx3N2PxB0CftwgQH_ByvKKWLjwguI_dTbXH_PgIDgWAxHyReXZXXNS8m6lc1kB_cQk0TfJPBRghJuWzB6vU8W0-zMjK0RlxIst321YNTdEEqjwHS5WHq1ET_7-8H01ICmZYNjtqq1jj4P1NuzXdti0m5Da84U6QDm2o-CYDJjWFjLhjPJCYCBBjHc4O8buAABz77Pw22NJuv2F61d_C7io15z0b5c1kTtlaeoQYAc1CTeha0h5YplNfu4-6cshl_1NGT_t05heMFP3lJYhWxEus6cQjMOEZDgfuI3isPfs_2d48Oo2PehrFavQ0rTm5nYivLOHGADQR_onHbabtINr5m00?></g></svg>