<?plantuml 1.2026.0?><svg xmlns="http://www.w3.org/2000/svg" xmlns:xlink="http://www.w3.org/1999/xlink" contentStyleType="text/css" data-diagram-type="DESCRIPTION" height="1128px" preserveAspectRatio="none" style="width:1228px;height:1128px;background:#FFFFFF;" version="1.1" viewBox="0 0 1228 1128" width="1228px" zoomAndPan="magnify"><title>Use Case &#1076;&#1080;&#1072;&#1075;&#1088;&#1072;&#1084;&#1084;&#1072;: &#1040;&#1076;&#1084;&#1080;&#1085;&#1080;&#1089;&#1090;&#1088;&#1072;&#1090;&#1086;&#1088; UC</title><defs/><g><g class="title" data-source-line="3"><text fill="#000000" font-family="Verdana" font-size="22" font-weight="bold" lengthAdjust="spacing" textLength="510.5977" x="354.2755" y="37.1182">Use Case &#1076;&#1080;&#1072;&#1075;&#1088;&#1072;&#1084;&#1084;&#1072;: &#1040;&#1076;&#1084;&#1080;&#1085;&#1080;&#1089;&#1090;&#1088;&#1072;&#1090;&#1086;&#1088; UC</text></g><!--cluster ????????? ??????????????? ????????????--><g class="cluster" data-qualified-name="......... ............... ............" data-source-line="7" id="ent0003"><rect fill="#FFFFFF" height="663" rx="7.5" ry="7.5" style="stroke:#000000;stroke-width:1;" width="694.43" x="183.58" y="300.4373"/><text fill="#000000" font-family="Arial" font-size="14" font-weight="bold" lengthAdjust="spacing" textLength="326.1357" x="367.7271" y="315.5691">&#1055;&#1083;&#1072;&#1090;&#1092;&#1086;&#1088;&#1084;&#1072; &#1059;&#1085;&#1080;&#1092;&#1080;&#1094;&#1080;&#1088;&#1086;&#1074;&#1072;&#1085;&#1085;&#1099;&#1093; &#1050;&#1086;&#1084;&#1084;&#1091;&#1085;&#1080;&#1082;&#1072;&#1094;&#1080;&#1081;</text></g><!--entity UC_ManageUsers--><g class="entity" data-qualified-name="......... ............... .............UC_ManageUsers" data-source-line="8" id="ent0004"><ellipse cx="317.4806" cy="359.4414" fill="#B9DAF2" rx="106.3206" ry="23.6641" style="stroke:#000000;stroke-width:1;"/><text fill="#000000" font-family="Arial" font-size="14" lengthAdjust="spacing" textLength="190.3193" x="222.3209" y="363.9907">&#1059;&#1087;&#1088;&#1072;&#1074;&#1083;&#1077;&#1085;&#1080;&#1077; &#1087;&#1086;&#1083;&#1100;&#1079;&#1086;&#1074;&#1072;&#1090;&#1077;&#1083;&#1103;&#1084;&#1080;</text></g><!--entity UC_ManageNumbers--><g class="entity" data-qualified-name="......... ............... .............UC_ManageNumbers" data-source-line="9" id="ent0005"><ellipse cx="317.476" cy="438.4385" fill="#B9DAF2" rx="87.506" ry="19.9012" style="stroke:#000000;stroke-width:1;"/><text fill="#000000" font-family="Arial" font-size="14" lengthAdjust="spacing" textLength="148.6133" x="243.1694" y="442.9878">&#1059;&#1087;&#1088;&#1072;&#1074;&#1083;&#1077;&#1085;&#1080;&#1077; &#1085;&#1086;&#1084;&#1077;&#1088;&#1072;&#1084;&#1080;</text></g><!--entity UC_ManagePolicies--><g class="entity" data-qualified-name="......... ............... .............UC_ManagePolicies" data-source-line="10" id="ent0006"><ellipse cx="317.4776" cy="519.4368" fill="#B9DAF2" rx="117.8976" ry="25.9795" style="stroke:#000000;stroke-width:1;"/><text fill="#000000" font-family="Arial" font-size="14" lengthAdjust="spacing" textLength="215.2363" x="209.8594" y="523.9861">&#1059;&#1087;&#1088;&#1072;&#1074;&#1083;&#1077;&#1085;&#1080;&#1077; &#1087;&#1086;&#1083;&#1080;&#1090;&#1080;&#1082;&#1072;&#1084;&#1080; &#1076;&#1086;&#1089;&#1090;&#1091;&#1087;&#1072;</text></g><!--entity UC_ManageRouting--><g class="entity" data-qualified-name="......... ............... .............UC_ManageRouting" data-source-line="11" id="ent0007"><ellipse cx="317.4794" cy="604.4392" fill="#B9DAF2" rx="107.9094" ry="23.9819" style="stroke:#000000;stroke-width:1;"/><text fill="#000000" font-family="Arial" font-size="14" lengthAdjust="spacing" textLength="193.7646" x="220.597" y="608.9885">&#1059;&#1087;&#1088;&#1072;&#1074;&#1083;&#1077;&#1085;&#1080;&#1077; &#1084;&#1072;&#1088;&#1096;&#1088;&#1091;&#1090;&#1080;&#1079;&#1072;&#1094;&#1080;&#1077;&#1081;</text></g><!--entity UC_ManageQueues--><g class="entity" data-qualified-name="......... ............... .............UC_ManageQueues" data-source-line="12" id="ent0008"><ellipse cx="317.4836" cy="689.436" fill="#B9DAF2" rx="116.6436" ry="25.7287" style="stroke:#000000;stroke-width:1;"/><text fill="#000000" font-family="Arial" font-size="14" lengthAdjust="spacing" textLength="212.5566" x="211.2053" y="693.9853">&#1059;&#1087;&#1088;&#1072;&#1074;&#1083;&#1077;&#1085;&#1080;&#1077; &#1086;&#1095;&#1077;&#1088;&#1077;&#1076;&#1103;&#1084;&#1080; &#1074;&#1099;&#1079;&#1086;&#1074;&#1086;&#1074;</text></g><!--entity UC_ConfigureSystem--><g class="entity" data-qualified-name="......... ............... .............UC_ConfigureSystem" data-source-line="13" id="ent0009"><ellipse cx="731.6235" cy="562.438" fill="#B9DAF2" rx="89.7535" ry="20.3507" style="stroke:#000000;stroke-width:1;"/><text fill="#000000" font-family="Arial" font-size="14" lengthAdjust="spacing" textLength="153.7061" x="654.7705" y="566.9873">&#1050;&#1086;&#1085;&#1092;&#1080;&#1075;&#1091;&#1088;&#1072;&#1094;&#1080;&#1103; &#1089;&#1080;&#1089;&#1090;&#1077;&#1084;&#1099;</text></g><!--entity UC_ManageIntegrations--><g class="entity" data-qualified-name="......... ............... .............UC_ManageIntegrations" data-source-line="14" id="ent0010"><ellipse cx="317.4804" cy="772.4354" fill="#B9DAF2" rx="98.8404" ry="22.1681" style="stroke:#000000;stroke-width:1;"/><text fill="#000000" font-family="Arial" font-size="14" lengthAdjust="spacing" textLength="173.9609" x="230.5" y="776.9847">&#1059;&#1087;&#1088;&#1072;&#1074;&#1083;&#1077;&#1085;&#1080;&#1077; &#1080;&#1085;&#1090;&#1077;&#1075;&#1088;&#1072;&#1094;&#1080;&#1103;&#1084;&#1080;</text></g><!--entity UC_ViewReports--><g class="entity" data-qualified-name="......... ............... .............UC_ViewReports" data-source-line="15" id="ent0011"><ellipse cx="317.4813" cy="852.4336" fill="#B9DAF2" rx="101.6813" ry="22.7363" style="stroke:#000000;stroke-width:1;"/><text fill="#000000" font-family="Arial" font-size="14" lengthAdjust="spacing" textLength="180.2021" x="227.3802" y="856.9829">&#1055;&#1088;&#1086;&#1089;&#1084;&#1086;&#1090;&#1088; &#1084;&#1077;&#1090;&#1088;&#1080;&#1082; &#1080; &#1086;&#1090;&#1095;&#1105;&#1090;&#1086;&#1074;</text></g><!--entity UC_ConfigVersioning--><g class="entity" data-qualified-name="......... ............... .............UC_ConfigVersioning" data-source-line="16" id="ent0012"><ellipse cx="731.6208" cy="915.4355" fill="#B9DAF2" rx="130.3908" ry="28.4782" style="stroke:#000000;stroke-width:1;"/><text fill="#000000" font-family="Arial" font-size="14" lengthAdjust="spacing" textLength="241.7324" x="610.7546" y="919.9848">&#1059;&#1087;&#1088;&#1072;&#1074;&#1083;&#1077;&#1085;&#1080;&#1077; &#1074;&#1077;&#1088;&#1089;&#1080;&#1103;&#1084;&#1080; &#1082;&#1086;&#1085;&#1092;&#1080;&#1075;&#1091;&#1088;&#1072;&#1094;&#1080;&#1080;</text></g><!--entity UC_ConfigRollback--><g class="entity" data-qualified-name="......... ............... .............UC_ConfigRollback" data-source-line="17" id="ent0013"><ellipse cx="317.4776" cy="928.4348" fill="#B9DAF2" rx="81.0876" ry="18.6175" style="stroke:#000000;stroke-width:1;"/><text fill="#000000" font-family="Arial" font-size="14" lengthAdjust="spacing" textLength="133.834" x="250.5606" y="932.9841">&#1054;&#1090;&#1082;&#1072;&#1090; &#1082;&#1086;&#1085;&#1092;&#1080;&#1075;&#1091;&#1088;&#1072;&#1094;&#1080;&#1080;</text></g><!--entity Admin--><g class="entity" data-qualified-name="Admin" data-source-line="5" id="ent0002"><ellipse cx="73.7915" cy="712.8873" fill="#FDF5E6" rx="8" ry="8" style="stroke:#000000;stroke-width:1;"/><path d="M73.7915,720.8873 L73.7915,747.8873 M60.7915,728.8873 L86.7915,728.8873 M73.7915,747.8873 L60.7915,762.8873 M73.7915,747.8873 L86.7915,762.8873" fill="none" style="stroke:#000000;stroke-width:1;"/><text fill="#000000" font-family="Arial" font-size="14" lengthAdjust="spacing" textLength="125.583" x="11" y="778.0191">&#1040;&#1076;&#1084;&#1080;&#1085;&#1080;&#1089;&#1090;&#1088;&#1072;&#1090;&#1086;&#1088; UC</text></g><g class="entity" data-qualified-name="GMN30" data-source-line="41" id="ent0031"><path d="M559.38,58.7373 L559.38,116.1353 L903.8629,116.1353 L903.8629,68.7373 L893.8629,58.7373 L559.38,58.7373" fill="#FFFFE0" style="stroke:#000000;stroke-width:1;"/><path d="M893.8629,58.7373 L893.8629,68.7373 L903.8629,68.7373 L893.8629,58.7373" fill="#FFFFE0" style="stroke:#000000;stroke-width:1;"/><text fill="#000000" font-family="Verdana" font-size="13" lengthAdjust="spacing" textLength="323.4829" x="565.38" y="76.8071">&#1057;&#1086;&#1079;&#1076;&#1072;&#1085;&#1080;&#1077;, &#1080;&#1079;&#1084;&#1077;&#1085;&#1077;&#1085;&#1080;&#1077;, &#1091;&#1076;&#1072;&#1083;&#1077;&#1085;&#1080;&#1077; &#1087;&#1086;&#1083;&#1100;&#1079;&#1086;&#1074;&#1072;&#1090;&#1077;&#1083;&#1077;&#1081;</text><text fill="#000000" font-family="Verdana" font-size="13" lengthAdjust="spacing" textLength="181.0923" x="565.38" y="92.6064">&#1053;&#1072;&#1079;&#1085;&#1072;&#1095;&#1077;&#1085;&#1080;&#1077; &#1088;&#1086;&#1083;&#1077;&#1081; &#1080; &#1075;&#1088;&#1091;&#1087;&#1087;</text><text fill="#000000" font-family="Verdana" font-size="13" lengthAdjust="spacing" textLength="274.1299" x="565.38" y="108.4058">&#1048;&#1085;&#1090;&#1077;&#1075;&#1088;&#1072;&#1094;&#1080;&#1103; &#1089; &#1082;&#1086;&#1088;&#1087;&#1086;&#1088;&#1072;&#1090;&#1080;&#1074;&#1085;&#1099;&#1084; &#1082;&#1072;&#1090;&#1072;&#1083;&#1086;&#1075;&#1086;&#1084;</text></g><g class="entity" data-qualified-name="GMN33" data-source-line="47" id="ent0034"><path d="M573.38,150.6373 L573.38,192.2359 L889.8634,192.2359 L889.8634,160.6373 L879.8634,150.6373 L573.38,150.6373" fill="#FFFFE0" style="stroke:#000000;stroke-width:1;"/><path d="M879.8634,150.6373 L879.8634,160.6373 L889.8634,160.6373 L879.8634,150.6373" fill="#FFFFE0" style="stroke:#000000;stroke-width:1;"/><text fill="#000000" font-family="Verdana" font-size="13" lengthAdjust="spacing" textLength="295.4834" x="579.38" y="168.7071">&#1053;&#1072;&#1089;&#1090;&#1088;&#1086;&#1081;&#1082;&#1072; &#1087;&#1088;&#1072;&#1074;&#1080;&#1083; &#1084;&#1072;&#1088;&#1096;&#1088;&#1091;&#1090;&#1080;&#1079;&#1072;&#1094;&#1080;&#1080; &#1074;&#1099;&#1079;&#1086;&#1074;&#1086;&#1074;</text><text fill="#000000" font-family="Verdana" font-size="13" lengthAdjust="spacing" textLength="222.6694" x="579.38" y="184.5064">&#1050;&#1086;&#1085;&#1092;&#1080;&#1075;&#1091;&#1088;&#1072;&#1094;&#1080;&#1103; &#1086;&#1095;&#1077;&#1088;&#1077;&#1076;&#1077;&#1081; &#1080; &#1075;&#1088;&#1091;&#1087;&#1087;</text></g><g class="entity" data-qualified-name="GMN36" data-source-line="52" id="ent0037"><path d="M964.86,894.6373 L964.86,911.4373 L862.37,915.4373 L964.86,919.4373 L964.86,936.2359 A0,0 0 0 0 964.86,936.2359 L1221.1486,936.2359 A0,0 0 0 0 1221.1486,936.2359 L1221.1486,904.6373 L1211.1486,894.6373 L964.86,894.6373 A0,0 0 0 0 964.86,894.6373" fill="#FFFFE0" style="stroke:#000000;stroke-width:1;"/><path d="M1211.1486,894.6373 L1211.1486,904.6373 L1221.1486,904.6373 L1211.1486,894.6373" fill="#FFFFE0" style="stroke:#000000;stroke-width:1;"/><text fill="#000000" font-family="Verdana" font-size="13" lengthAdjust="spacing" textLength="222.8345" x="970.86" y="912.7071">&#1042;&#1077;&#1088;&#1089;&#1080;&#1086;&#1085;&#1080;&#1088;&#1086;&#1074;&#1072;&#1085;&#1080;&#1077; &#1082;&#1086;&#1085;&#1092;&#1080;&#1075;&#1091;&#1088;&#1072;&#1094;&#1080;&#1081;</text><text fill="#000000" font-family="Verdana" font-size="13" lengthAdjust="spacing" textLength="235.2886" x="970.86" y="928.5064">&#1089; &#1074;&#1086;&#1079;&#1084;&#1086;&#1078;&#1085;&#1086;&#1089;&#1090;&#1100;&#1102; &#1086;&#1090;&#1082;&#1072;&#1090;&#1072; &#1080;&#1079;&#1084;&#1077;&#1085;&#1077;&#1085;&#1080;&#1081;</text></g><g class="entity" data-qualified-name="GMN39" data-source-line="57" id="ent0040"><path d="M588.9,226.7373 L588.9,284.1353 L874.3307,284.1353 L874.3307,236.7373 L864.3307,226.7373 L588.9,226.7373" fill="#FFFFE0" style="stroke:#000000;stroke-width:1;"/><path d="M864.3307,226.7373 L864.3307,236.7373 L874.3307,236.7373 L864.3307,226.7373" fill="#FFFFE0" style="stroke:#000000;stroke-width:1;"/><text fill="#000000" font-family="Verdana" font-size="13" lengthAdjust="spacing" textLength="264.4307" x="594.9" y="244.8071">&#1055;&#1088;&#1086;&#1089;&#1084;&#1086;&#1090;&#1088; &#1084;&#1077;&#1090;&#1088;&#1080;&#1082; &#1087;&#1088;&#1086;&#1080;&#1079;&#1074;&#1086;&#1076;&#1080;&#1090;&#1077;&#1083;&#1100;&#1085;&#1086;&#1089;&#1090;&#1080;,</text><text fill="#000000" font-family="Verdana" font-size="13" lengthAdjust="spacing" textLength="184.5771" x="594.9" y="260.6064">&#1089;&#1090;&#1072;&#1090;&#1080;&#1089;&#1090;&#1080;&#1082;&#1080; &#1080;&#1089;&#1087;&#1086;&#1083;&#1100;&#1079;&#1086;&#1074;&#1072;&#1085;&#1080;&#1103;,</text><text fill="#000000" font-family="Verdana" font-size="13" lengthAdjust="spacing" textLength="105.4727" x="594.9" y="276.4058">&#1086;&#1090;&#1095;&#1105;&#1090;&#1086;&#1074; &#1087;&#1086; CDR</text></g><!--link Admin to UC_ManageUsers--><g class="link" data-entity-1="ent0002" data-entity-2="ent0004" data-link-type="dependency" data-source-line="21" id="lnk14"><path d="M74.89,703.5173 C77.23,633.2573 92.41,484.7973 175.58,401.4373 C189.46,387.5273 202.0479,380.0747 220.8279,373.8147" fill="none" id="Admin-to-UC_ManageUsers" style="stroke:#000000;stroke-width:1;"/><polygon fill="#000000" points="226.52,371.9173,216.7169,370.9686,221.7766,373.4984,219.2468,378.5581,226.52,371.9173" style="stroke:#000000;stroke-width:1;"/></g><!--link Admin to UC_ManageNumbers--><g class="link" data-entity-1="ent0002" data-entity-2="ent0005" data-link-type="dependency" data-source-line="22" id="lnk15"><path d="M78.49,703.7373 C86.13,645.7673 108.97,536.7773 175.58,476.4373 C192.39,461.2173 208.845,453.4757 230.715,447.9157" fill="none" id="Admin-to-UC_ManageNumbers" style="stroke:#000000;stroke-width:1;"/><polygon fill="#000000" points="236.53,446.4373,226.8219,444.7781,231.6841,447.6693,228.793,452.5315,236.53,446.4373" style="stroke:#000000;stroke-width:1;"/></g><!--link Admin to UC_ManagePolicies--><g class="link" data-entity-1="ent0002" data-entity-2="ent0006" data-link-type="dependency" data-source-line="23" id="lnk16"><path d="M87.01,703.5873 C101.71,662.9573 130.25,600.1173 175.58,563.4373 C190.42,551.4273 202.8948,544.6636 221.1548,538.2936" fill="none" id="Admin-to-UC_ManagePolicies" style="stroke:#000000;stroke-width:1;"/><polygon fill="#000000" points="226.82,536.3173,217.0047,535.505,222.099,537.9642,219.6398,543.0585,226.82,536.3173" style="stroke:#000000;stroke-width:1;"/></g><!--link Admin to UC_ManageRouting--><g class="link" data-entity-1="ent0002" data-entity-2="ent0007" data-link-type="dependency" data-source-line="24" id="lnk17"><path d="M107.32,703.6973 C125.6,684.0873 149.87,661.3473 175.58,646.4373 C194.57,635.4273 210.9581,628.7848 231.9781,622.5448" fill="none" id="Admin-to-UC_ManageRouting" style="stroke:#000000;stroke-width:1;"/><polygon fill="#000000" points="237.73,620.8373,227.9638,619.564,232.9367,622.2602,230.2405,627.2332,237.73,620.8373" style="stroke:#000000;stroke-width:1;"/></g><!--link Admin to UC_ManageQueues--><g class="link" data-entity-1="ent0002" data-entity-2="ent0008" data-link-type="dependency" data-source-line="25" id="lnk18"><path d="M137.03,728.7873 C166.4,722.3473 196.0091,715.8518 227.6291,708.9218" fill="none" id="Admin-to-UC_ManageQueues" style="stroke:#000000;stroke-width:1;"/><polygon fill="#000000" points="233.49,707.6373,223.8423,705.6568,228.6059,708.7077,225.555,713.4713,233.49,707.6373" style="stroke:#000000;stroke-width:1;"/></g><!--link Admin to UC_ConfigureSystem--><g class="link" data-entity-1="ent0002" data-entity-2="ent0009" data-link-type="dependency" data-source-line="26" id="lnk19"><path d="M79.67,781.2273 C88.53,833.2673 112.6,923.8673 175.58,964.4373 C272.65,1026.9673 321.55,983.8373 435.38,964.4373 C479.03,956.9973 496.35,960.9273 529.38,931.4373 C552.21,911.0473 545.25,896.5973 559.38,869.4373 C616.28,760.0773 686.9824,637.3433 715.5524,588.2433" fill="none" id="Admin-to-UC_ConfigureSystem" style="stroke:#000000;stroke-width:1;"/><polygon fill="#000000" points="718.57,583.0573,710.5863,588.8245,716.0554,587.3789,717.5009,592.848,718.57,583.0573" style="stroke:#000000;stroke-width:1;"/></g><!--link Admin to UC_ManageIntegrations--><g class="link" data-entity-1="ent0002" data-entity-2="ent0010" data-link-type="dependency" data-source-line="27" id="lnk20"><path d="M137.03,750.1673 C165.42,753.6873 193.5558,757.1771 224.3658,761.0071" fill="none" id="Admin-to-UC_ManageIntegrations" style="stroke:#000000;stroke-width:1;"/><polygon fill="#000000" points="230.32,761.7473,221.8822,756.6676,225.3582,761.1305,220.8953,764.6065,230.32,761.7473" style="stroke:#000000;stroke-width:1;"/></g><!--link Admin to UC_ViewReports--><g class="link" data-entity-1="ent0002" data-entity-2="ent0011" data-link-type="dependency" data-source-line="28" id="lnk21"><path d="M123.82,781.3173 C139.67,792.5373 157.77,804.0173 175.58,812.4373 C196.73,822.4373 215.0949,828.8261 237.3449,834.9461" fill="none" id="Admin-to-UC_ViewReports" style="stroke:#000000;stroke-width:1;"/><polygon fill="#000000" points="243.13,836.5373,235.5131,830.2937,238.309,835.2113,233.3914,838.0072,243.13,836.5373" style="stroke:#000000;stroke-width:1;"/></g><!--link Admin to UC_ConfigVersioning--><g class="link" data-entity-1="ent0002" data-entity-2="ent0012" data-link-type="dependency" data-source-line="29" id="lnk22"><path d="M74.14,781.2973 C75.44,844.8373 88.44,969.5773 166.58,1026.4373 C296.96,1121.3173 373.23,1066.6473 529.38,1026.4373 C591.78,1010.3673 650.6438,973.8654 689.2138,946.5454" fill="none" id="Admin-to-UC_ConfigVersioning" style="stroke:#000000;stroke-width:1;"/><polygon fill="#000000" points="694.11,943.0773,684.4537,945.0153,690.0299,945.9674,689.0778,951.5435,694.11,943.0773" style="stroke:#000000;stroke-width:1;"/></g><!--link Admin to UC_ConfigRollback--><g class="link" data-entity-1="ent0002" data-entity-2="ent0013" data-link-type="dependency" data-source-line="30" id="lnk23"><path d="M91.08,781.2973 C107.47,815.6373 135.98,864.4873 175.58,892.4373 C195.49,906.4873 214.5554,913.7443 237.8754,918.9743" fill="none" id="Admin-to-UC_ConfigRollback" style="stroke:#000000;stroke-width:1;"/><polygon fill="#000000" points="243.73,920.2873,235.8235,914.4147,238.8512,919.1931,234.0728,922.2208,243.73,920.2873" style="stroke:#000000;stroke-width:1;"/></g><!--link UC_ManageUsers to UC_ConfigureSystem--><g class="link" data-entity-1="ent0004" data-entity-2="ent0009" data-link-type="dependency" data-source-line="33" id="lnk24"><path d="M378.96,379.1673 C397.31,385.6873 417.38,393.3573 435.38,401.4373 C534.71,446.0473 640.8725,508.008 693.9825,540.048" fill="none" id="UC_ManageUsers-to-UC_ConfigureSystem" style="stroke:#000000;stroke-width:1;stroke-dasharray:7,7;"/><polygon fill="#000000" points="699.12,543.1473,693.48,535.0733,694.8387,540.5645,689.3475,541.9233,699.12,543.1473" style="stroke:#000000;stroke-width:1;"/><text fill="#000000" font-family="Verdana" font-size="13" lengthAdjust="spacing" textLength="62.9624" x="466.38" y="413.8771">&#171;include&#187;</text></g><!--link UC_ManageNumbers to UC_ConfigureSystem--><g class="link" data-entity-1="ent0005" data-entity-2="ent0009" data-link-type="dependency" data-source-line="34" id="lnk25"><path d="M371.52,454.3973 C450.11,478.0373 590.9944,520.4288 670.4044,544.3188" fill="none" id="UC_ManageNumbers-to-UC_ConfigureSystem" style="stroke:#000000;stroke-width:1;stroke-dasharray:7,7;"/><polygon fill="#000000" points="676.15,546.0473,668.6839,539.6241,671.362,544.6069,666.3792,547.2849,676.15,546.0473" style="stroke:#000000;stroke-width:1;"/><text fill="#000000" font-family="Verdana" font-size="13" lengthAdjust="spacing" textLength="62.9624" x="466.38" y="482.7571">&#171;include&#187;</text></g><!--link UC_ManagePolicies to UC_ConfigureSystem--><g class="link" data-entity-1="ent0006" data-entity-2="ent0009" data-link-type="dependency" data-source-line="35" id="lnk26"><path d="M424.88,530.5373 C494.89,537.8473 579.1324,546.635 643.3824,553.335" fill="none" id="UC_ManagePolicies-to-UC_ConfigureSystem" style="stroke:#000000;stroke-width:1;stroke-dasharray:7,7;"/><polygon fill="#000000" points="649.35,553.9573,640.8134,549.0454,644.377,553.4387,639.9837,557.0023,649.35,553.9573" style="stroke:#000000;stroke-width:1;"/><text fill="#000000" font-family="Verdana" font-size="13" lengthAdjust="spacing" textLength="62.9624" x="466.38" y="532.8971">&#171;include&#187;</text></g><!--link UC_ManageRouting to UC_ConfigureSystem--><g class="link" data-entity-1="ent0007" data-entity-2="ent0009" data-link-type="dependency" data-source-line="36" id="lnk27"><path d="M424.58,600.9973 C458.15,599.3473 495.37,596.9373 529.38,593.4373 C572.98,588.9573 615.6425,582.5287 654.1425,576.0787" fill="none" id="UC_ManageRouting-to-UC_ConfigureSystem" style="stroke:#000000;stroke-width:1;stroke-dasharray:7,7;"/><polygon fill="#000000" points="660.06,575.0873,650.5228,572.6294,655.1287,575.9135,651.8446,580.5194,660.06,575.0873" style="stroke:#000000;stroke-width:1;"/><text fill="#000000" font-family="Verdana" font-size="13" lengthAdjust="spacing" textLength="62.9624" x="466.38" y="590.5071">&#171;include&#187;</text></g><!--link UC_ManageQueues to UC_ConfigureSystem--><g class="link" data-entity-1="ent0008" data-entity-2="ent0009" data-link-type="dependency" data-source-line="37" id="lnk28"><path d="M386.54,668.4673 C467.93,643.3873 596.7562,603.6945 671.1862,580.7545" fill="none" id="UC_ManageQueues-to-UC_ConfigureSystem" style="stroke:#000000;stroke-width:1;stroke-dasharray:7,7;"/><polygon fill="#000000" points="676.92,578.9873,667.1411,577.8156,672.1418,580.46,669.4974,585.4607,676.92,578.9873" style="stroke:#000000;stroke-width:1;"/><text fill="#000000" font-family="Verdana" font-size="13" lengthAdjust="spacing" textLength="62.9624" x="466.38" y="623.0071">&#171;include&#187;</text></g><!--link UC_ConfigRollback to UC_ConfigVersioning--><g class="link" data-entity-1="ent0013" data-entity-2="ent0012" data-link-type="dependency" data-source-line="38" id="lnk29"><path d="M397.95,925.9373 C455.84,924.1073 529.503,921.7866 596.353,919.6766" fill="none" id="UC_ConfigRollback-to-UC_ConfigVersioning" style="stroke:#000000;stroke-width:1;stroke-dasharray:7,7;"/><polygon fill="#000000" points="602.35,919.4873,593.2283,915.7732,597.3525,919.645,593.4807,923.7692,602.35,919.4873" style="stroke:#000000;stroke-width:1;"/><text fill="#000000" font-family="Verdana" font-size="13" lengthAdjust="spacing" textLength="62.9624" x="466.38" y="919.0071">&#171;include&#187;</text></g><!--link UC_ManageUsers to GMN30--><g class="link" data-entity-1="ent0004" data-entity-2="ent0031" data-link-type="association" data-source-line="41" id="lnk32"><path d="M327.83,335.4073 C346.61,290.4673 393.41,193.8673 465.38,145.4373 C493.24,126.6873 526.14,113.8873 559.12,105.1673" fill="none" id="UC_ManageUsers-GMN30" style="stroke:#000000;stroke-width:1;stroke-dasharray:7,7;"/></g><!--link UC_ManageRouting to GMN33--><g class="link" data-entity-1="ent0007" data-entity-2="ent0034" data-link-type="association" data-source-line="47" id="lnk35"><path d="M400.21,588.6673 C413.78,582.5673 426.35,574.1273 435.38,562.4373 C480.81,503.6473 416.24,285.1673 465.38,229.4373 C492.74,198.4173 532.5,181.8473 572.96,173.4673" fill="none" id="UC_ManageRouting-GMN33" style="stroke:#000000;stroke-width:1;stroke-dasharray:7,7;"/></g><!--link UC_ViewReports to GMN39--><g class="link" data-entity-1="ent0011" data-entity-2="ent0040" data-link-type="association" data-source-line="57" id="lnk41"><path d="M399.43,838.6173 C413.33,832.7173 426.22,824.3373 435.38,812.4373 C492.6,738.1173 420.89,474.0073 465.38,391.4373 C494.34,337.6773 552.96,304.5873 607.74,284.5273" fill="none" id="UC_ViewReports-GMN39" style="stroke:#000000;stroke-width:1;stroke-dasharray:7,7;"/></g><?plantuml-src bLLDRzD04BtlhnXouTAFUrLLGk720GH1xRLodILOE7Rb3w4A8QL9eKYjA7018K65-0EHKvEqpSTVsFr7p8pj9dRS9bLaIzdTUNxpPkRj0yinxR0kmV1z6VZhTSjeU4RJN_U30rlkXkRQVjYqXGYim9QmxKke6lXI5sgWkggdM_WUug-x0UeBhWvnVQG6-b2tQK-trLYtOBigX646hWULEqzLa0OygZSjHmXFce7XDF2h5NMkhkcKFg9pz3LGVndW29-F-BJKM4L8PQH6-aH_0FKJ5v2Nxj0nTONHU4nTLk2T00XzQL8M5KIPS0eHVY3cep6e2SPUwrFLJq2HNOp_puWr4zokxZur7ACXKGxFNumtOYvngbK1urdOt5iAXLbXgkqa7qAYCenPn0vkT_F0prtRCYsv13BggLlw4puTHk-dQiMaronapGq3osaiHXphOyutLXU9Rg0YVP8AYayUzaKemm9FAj-8geijrk4MeIgVWJvCkWQHX_eaWwcwpYkh4NhovO4VoEPYVjXzZD6RGizNveaJI9o5m7ATFBbpQZTaCiGtzYzmSQcHiJ10kTBoiVvARJtDTSUIRsjot_M29KeIaNoSR2hVLPaWKyQ90ZlOICYsMABVI8GceBqaJCsrxJt3V2FU2_4GCFoGMpYYsK9o-3T2Mdqr43ogiBgwLPo9aesiqKksRbgrP2_hkPAjj6zoEyLMA0dBrJMtFrkY4jGPUKjsRrGZpRvpGGTKGMuJQjc1o8i4Qsjbb643DZTJLzxQ4aNzxXcLINlFi5JrUqOb1LawAAzRFcogTI5EE6uWmRCQhmDmNyrxiVg3hTf7O-mcixG2x6X3dgquMqF3f1EBJ9yia31_uTa-dkoIhwKHVEVm2Pxv7jadeape_8zvVy6nuV73bGc_k-oroL0D8HbGfZHMFRemX7JgGCdUclBKZebWUfcErILXmOsh3DJrxHPVD6R2kirxPrsz9Eqxw9Qua_gMEHnzBNU3SpdAZOgAGJf6N6CSBFMFh8bJFzMVsNap9UVhVdaNnxmzB_3u2TCbV69omRTopEqpoePzXQaI4VgNh24rb8nSeT1jhC0PXUJl3cvBg3wkJPd_1m00?></g></svg>